<?xml version="1.0" encoding="UTF-8"?>
<!DOCTYPE svg PUBLIC "-//W3C//DTD SVG 1.1//EN" "http://www.w3.org/Graphics/SVG/1.1/DTD/svg11.dtd">
<svg version="1.1" xmlns="http://www.w3.org/2000/svg" xmlns:xlink="http://www.w3.org/1999/xlink" x="0" y="0" width="594" height="430" viewBox="0, 0, 594, 430">
  <g id="Layer_1">
    <path d="M166.921,75.527 L418.98,75.527 L418.98,273.537 L166.921,273.537 L166.921,75.527 z" fill="#FFFFFF"/>
    <path d="M404.194,109.084 C404.626,109.827 405.031,110.585 405.429,111.353 C402.115,108.015 398.294,105.272 394.214,103.02 C389.642,100.527 384.707,98.645 379.393,97.705 C376.736,97.265 373.967,97.067 371.068,97.378 C369.618,97.542 368.135,97.853 366.65,98.395 C365.168,98.914 363.666,99.724 362.354,100.863 C361.631,101.484 360.975,102.209 360.414,103.003 C360.561,99.612 361.328,96.48 363.054,94.565 C364.055,93.332 365.452,92.521 367.134,91.934 L367.781,91.736 L368.523,91.545 C369.032,91.416 369.533,91.296 370.05,91.209 C370.551,91.097 371.068,91.011 371.578,90.951 C372.085,90.865 372.604,90.795 373.112,90.753 C377.228,90.347 381.394,90.831 385.311,92.176 C389.219,93.539 392.878,95.738 396.043,98.663 C397.646,100.113 399.104,101.744 400.485,103.477 C401.831,105.228 403.064,107.108 404.194,109.084" fill="#E9B9AC"/>
    <path d="M228.571,94.212 C230.297,96.126 231.064,99.258 231.212,102.649 C230.65,101.863 229.994,101.13 229.27,100.518 C227.958,99.379 226.458,98.56 224.974,98.05 C223.49,97.507 222.006,97.188 220.557,97.033 C217.658,96.713 214.889,96.912 212.232,97.351 C206.918,98.301 201.983,100.173 197.412,102.666 C193.331,104.918 189.509,107.661 186.197,111 C186.594,110.231 186.999,109.472 187.431,108.73 C188.561,106.755 189.794,104.883 191.14,103.124 C192.52,101.39 193.978,99.759 195.583,98.318 C198.749,95.393 202.415,93.185 206.323,91.823 C210.231,90.477 214.397,90.002 218.512,90.399 C219.021,90.441 219.539,90.511 220.048,90.598 C220.565,90.657 221.075,90.752 221.583,90.855 C222.093,90.942 222.593,91.062 223.102,91.192 L223.844,91.383 L224.49,91.588 C226.172,92.167 227.57,92.987 228.571,94.212" fill="#E9B9AC"/>
    <path d="M420.275,12.853 C424.934,12.801 429.506,13.654 433.456,15.527 C434.457,15.984 435.38,16.527 436.304,17.123 C437.244,17.744 438.176,18.443 439.099,19.159 C440.953,20.617 442.765,22.222 444.568,23.87 C448.166,27.173 451.667,30.719 455.179,34.282 L458.388,37.525 C457.508,37.085 456.637,36.654 455.739,36.24 C451.029,34.048 446.104,32.194 440.928,30.883 C435.743,29.588 430.316,28.769 424.563,29.132 C421.681,29.312 418.713,29.821 415.668,30.978 C414.15,31.582 412.614,32.358 411.122,33.436 C409.629,34.514 408.163,35.938 407.024,37.81 C405.877,39.665 405.144,42.003 405.058,44.306 C404.963,46.609 405.454,48.809 406.205,50.673 C406.334,51.018 406.489,51.336 406.637,51.656 C408.801,61.474 415.573,74.629 416.238,83.989 C416.496,87.578 416.505,92.038 416.246,96.903 C416.246,96.903 397.491,83.929 388.27,70.178 L388.261,70.023 C387.794,64.433 386.863,58.773 385.008,53.114 C384.534,51.699 384.008,50.293 383.404,48.877 C382.792,47.481 382.084,46.091 381.308,44.711 C381.031,44.211 380.713,43.728 380.41,43.237 C380.299,41.788 380.376,40.347 380.635,38.94 C381.075,36.525 382.041,34.247 383.292,32.168 C385.828,28.01 389.4,24.568 393.377,21.799 C397.362,19.021 401.771,16.89 406.308,15.329 C410.854,13.785 415.607,12.904 420.275,12.853" fill="#D0968C"/>
    <path d="M465.815,45.022 C480.152,59.309 495.543,73.24 513.617,83.936 C522.605,89.304 532.285,93.772 542.508,96.877 C547.623,98.421 552.852,99.655 558.182,100.414 C559.502,100.622 560.839,100.768 562.177,100.923 C562.849,101.009 563.521,101.052 564.187,101.113 L566.136,101.286 C568.249,101.449 570.312,101.795 572.054,102.338 C572.917,102.605 573.701,102.925 574.297,103.252 L574.323,103.27 C574.159,103.425 573.979,103.58 573.779,103.744 C573.149,104.252 572.373,104.771 571.527,105.272 C569.812,106.272 567.81,107.169 565.714,107.963 C563.608,108.774 561.408,109.49 559.147,110.12 C558.019,110.448 556.871,110.732 555.724,111.025 C554.455,111.354 553.109,111.673 551.824,112.043 C549.235,112.768 546.7,113.596 544.198,114.501 C541.688,115.382 539.237,116.382 536.813,117.434 C531.965,119.548 527.256,121.921 522.691,124.561 C518.12,127.191 513.702,130.107 509.475,133.326 C507.361,134.938 505.3,136.638 503.29,138.406 C501.297,140.201 499.339,142.065 497.484,144.049 C495.639,146.049 493.852,148.146 492.214,150.389 C490.583,152.649 489.082,155.055 487.788,157.635 C487.477,158.292 487.132,158.913 486.864,159.603 L486.442,160.611 C486.304,160.948 486.148,161.311 486.054,161.578 L484.734,165.028 C483.846,167.324 482.896,169.601 481.956,171.87 C480.05,176.408 477.996,180.876 475.771,185.249 C474.899,186.975 473.993,188.684 473.062,190.382 C461.519,201.105 449.148,204.306 439.012,198.371 C427.393,191.573 421.224,168.083 418.98,153.676 C423.449,151.657 427.763,147.646 431.757,142.591 C432.87,149.561 434.518,156.497 437.202,163.157 C439.064,167.711 441.488,172.137 444.749,175.846 C447.984,179.574 452.15,182.403 456.594,183.696 C452.721,181.134 449.916,177.529 448.166,173.595 C446.396,169.652 445.534,165.408 445.137,161.128 C444.404,152.537 445.439,143.79 447.061,135.172 C448.39,128.218 450.166,121.317 452.193,114.451 C452.919,115.477 453.644,116.502 454.394,117.522 C458.819,123.534 463.806,129.435 469.784,134.162 C472.777,136.509 475.986,138.561 479.386,140.08 C482.767,141.616 486.304,142.6 489.807,143.039 C486.727,141.296 484.019,139.157 481.724,136.716 C479.42,134.292 477.53,131.574 475.936,128.744 C472.76,123.051 470.759,116.832 469.153,110.395 C468.36,107.169 467.67,103.882 466.989,100.5 C466.816,99.655 466.644,98.81 466.471,97.947 C477.565,100.388 491.178,112.053 501.211,113.562 C517.171,115.968 554.697,104.262 525.798,105.987 C497.57,107.67 454.126,46.824 423.579,39.165 C424.313,38.923 425.063,38.707 425.839,38.526 C430.127,37.552 434.923,37.457 439.693,37.896 C444.49,38.328 449.321,39.32 454.083,40.683 C457.913,41.778 461.7,43.115 465.438,44.634 L465.815,45.022" fill="#D0968C"/>
    <path d="M386.32,117.677 C389.029,117.677 391.229,119.876 391.229,122.593 C391.229,125.303 389.029,127.502 386.32,127.502 C383.603,127.502 381.402,125.303 381.402,122.593 C381.402,119.876 383.603,117.677 386.32,117.677" fill="#FFFFFE"/>
    <path d="M328.263,390.67 C331.514,390.67 334.93,390.23 338.493,389.376 C335.491,393.258 332.3,396.882 328.84,400.072 C321.594,406.794 313.027,411.572 303.883,412.59 C299.328,413.116 294.679,412.84 290.123,411.728 C285.568,410.581 281.125,408.647 276.898,406.138 C272.662,403.628 268.668,400.522 264.89,397.027 C262.672,394.992 260.56,392.801 258.472,390.523 C259.542,390.609 260.603,390.67 261.637,390.67 C265.934,390.67 269.927,389.91 273.585,388.427 C282.894,394.189 294.091,397.192 306.092,394.466 C309.956,393.595 313.666,391.584 317.193,388.763 C320.609,390.023 324.311,390.67 328.263,390.67" fill="#E5C7BE"/>
    <path d="M295.022,343.533 C295.514,323.027 318.807,313.753 323.552,335.208 C323.465,335.477 323.768,337.788 323.31,342.731 C322.707,349.227 319.454,368.033 292.711,368.033 C271.8,368.033 265.252,351.212 263.233,341.429 L262.922,335.157 C262.233,321.734 286.527,320.009 290.821,343.206 C292.219,343.353 293.618,343.464 295.022,343.533" fill="#D8272D"/>
    <path d="M264.674,251.512 C269.083,253.229 273.517,254.289 277.942,255.015 C282.369,255.714 286.802,256.075 291.219,256.058 C293.427,256.041 295.627,255.946 297.818,255.679 C299.992,255.395 302.209,255.04 304.176,254.092 C302.071,254.592 299.914,254.453 297.801,254.281 C295.679,254.074 293.574,253.712 291.504,253.272 C287.354,252.374 283.291,251.123 279.4,249.597 C275.526,248.061 271.8,246.223 268.521,244.032 C267.46,243.316 266.469,242.558 265.555,241.773 C265.838,232.145 253.589,226.064 239.156,234.794 C212.275,251.037 243.469,261.105 254.685,260.673 C265.899,260.242 263.742,252.909 263.742,252.909 L264.373,251.391 C264.476,251.434 264.57,251.468 264.674,251.512 M329.013,252.331 C338.796,246.293 343.394,255.781 334.188,258.086 C324.992,260.38 313.777,259.233 308.887,251.185 C312.915,261.821 329.013,270.731 341.383,256.929 C353.745,243.127 335.914,231.342 325.131,232.775 C314.348,234.215 305.721,242.101 308.887,245.638 C312.053,249.165 319.238,258.369 329.013,252.331 M294.005,181.756 C307.575,186.811 329.694,205.912 356.29,235.544 C359.785,239.435 365.107,256.411 363.295,272.449 C362.976,275.261 362.467,277.9 361.777,280.351 C358.662,285.673 354.005,291.177 347.422,297.769 C329.013,316.169 279.003,310.415 250.225,304.671 C239.295,302.487 229.33,296.897 221.645,289.797 C211.128,271.596 206.28,256.075 224.507,231.309 C251.803,194.239 277.778,175.708 294.005,181.756" fill="#BE847B"/>
    <path d="M264.89,381.81 C259.049,382.544 253.063,381.154 248.361,379.464 C229.322,372.632 210.438,353.808 203.459,335.303 C205.753,335.286 208.031,335.063 210.24,334.613 C214.855,333.698 219.151,331.896 223.058,329.609 C225.596,331.309 228.183,332.939 230.813,334.492 C235.378,337.175 240.097,339.651 245.014,341.869 L245.117,341.92 C246.188,346.207 247.395,351.134 248.784,356.568 C250.863,364.703 256.651,374.229 264.89,381.81" fill="#E5C7BE"/>
    <path d="M210.222,125.13 C207.513,125.13 205.313,122.93 205.313,120.213 C205.313,117.504 207.513,115.304 210.222,115.304 C212.939,115.304 215.14,117.504 215.14,120.213 C215.14,122.93 212.939,125.13 210.222,125.13" fill="#FFFFFE"/>
    <path d="M194.686,21.816 C198.387,24.879 201.629,28.571 204.167,32.737 C206.737,36.878 208.549,41.545 209.179,46.515 C209.532,49.491 209.179,56.134 208.704,57.54 C206.883,63.172 206.979,64.44 203.355,69.755 L203.355,69.833 C194.263,83.394 175.896,96.196 175.388,96.549 C175.12,91.676 175.128,87.225 175.388,83.636 C176.009,74.966 181.857,63.043 184.436,53.529 C185.61,50.949 186.094,48.223 186.016,45.677 C185.972,42.995 185.248,40.554 184.264,38.38 C182.246,34.005 178.89,30.9 175.362,28.882 C171.799,26.846 168.02,25.879 164.414,25.568 C160.799,25.266 157.34,25.595 154.037,26.208 L151.595,26.751 C150.792,26.941 150.007,27.207 149.223,27.432 C147.643,27.864 146.143,28.485 144.633,29.045 C144.425,29.123 144.228,29.21 144.03,29.295 C144.719,28.605 145.41,27.907 146.107,27.225 C147.868,25.518 149.637,23.853 151.44,22.256 C153.234,20.66 155.053,19.15 156.91,17.821 C160.541,15.2 164.629,13.525 169.055,12.991 C173.464,12.456 178.088,13.103 182.461,14.699 C186.844,16.295 190.984,18.762 194.686,21.816" fill="#D0968C"/>
    <path d="M335.085,172.189 C336.647,175.14 338.347,177.977 340.055,180.781 C341.754,183.594 343.565,186.311 345.326,189.028 L350.718,197.034 C352.537,199.666 354.332,202.288 356.083,204.911 C357.878,207.498 359.568,210.128 361.251,212.735 C364.598,217.953 367.669,223.234 370.171,228.659 C372.646,234.095 374.467,239.719 374.994,245.629 C375.261,248.587 375.183,251.615 374.717,254.687 C374.26,257.758 373.406,260.854 372.311,263.985 C377.089,259.414 380.522,253.029 381.765,246.034 C383.05,239.02 382.23,231.739 380.394,225.036 C379.928,223.355 379.41,221.698 378.841,220.068 C378.263,218.437 377.625,216.84 376.96,215.271 C375.648,212.104 374.113,209.085 372.543,206.117 C370.964,203.159 369.239,200.312 367.514,197.483 C365.744,194.696 363.934,191.961 362.113,189.261 C354.78,178.486 346.879,168.504 340.254,158.11 C336.958,152.908 334.024,147.595 332.084,141.909 C330.092,136.241 329.444,130.099 330.677,123.551 C326.64,128.839 324.941,136.147 325.441,143.125 C325.881,150.164 328.021,156.876 330.669,163.113 C332.014,166.229 333.49,169.256 335.085,172.189 M332.248,23.679 C348.639,28.424 367.246,42.355 368.048,42.943 C369.645,44.151 369.679,49.576 371.103,51.372 C371.811,52.277 372.475,53.251 373.121,54.261 C373.785,55.262 374.424,56.314 375.027,57.41 C377.469,61.775 379.557,66.632 381.652,71.627 C382.723,74.119 383.749,76.656 384.879,79.201 C385.629,80.908 386.415,82.634 387.286,84.325 L387.468,85.205 C382.723,83.308 377.486,82.574 372.405,83.04 C371.74,83.092 371.085,83.161 370.438,83.273 C369.782,83.359 369.145,83.479 368.497,83.618 C367.85,83.747 367.221,83.902 366.582,84.075 L365.624,84.334 C365.279,84.447 364.934,84.55 364.589,84.671 C361.854,85.628 359.103,87.431 357.214,89.941 C355.316,92.442 354.358,95.376 354.014,98.11 C353.668,100.871 353.814,103.511 354.228,106.039 C355.022,110.853 356.644,115.278 358.662,119.446 C359.715,124.077 361.698,128.426 364.649,132.083 C365.253,132.808 365.9,133.515 366.582,134.17 C373.958,148.008 404.85,193.816 405.065,172.482 C408.197,182.575 411.285,192.635 414.21,202.711 C416.901,212.087 419.507,221.464 421.733,230.868 C422.845,235.569 423.924,240.263 424.787,244.974 C425.71,249.665 426.477,254.366 426.986,259.043 C427.556,263.701 427.85,268.359 427.729,272.855 C427.677,275.098 427.521,277.314 427.202,279.429 L426.926,280.998 L426.581,282.507 L426.185,283.975 C426.037,284.492 425.848,285.062 425.666,285.605 C422.689,294.395 418.679,303.04 413.52,310.699 C408.361,318.316 401.839,325.08 393.48,328.635 C389.331,330.43 384.741,331.31 380.014,331.3 C375.286,331.267 370.455,330.378 365.711,328.937 C369.911,331.552 374.596,333.604 379.669,334.613 C381.868,335.063 384.146,335.286 386.449,335.303 C380.221,351.798 364.537,368.551 347.716,376.832 C347.784,376.436 347.862,376.048 347.923,375.65 C347.577,376.177 347.231,376.703 346.887,377.23 C345.11,378.074 343.324,378.825 341.538,379.464 C336.656,381.215 330.393,382.647 324.347,381.725 C335.051,369.146 343.48,350.047 348.414,335.329 C350.89,333.612 353.245,331.826 355.522,329.972 C362.174,324.502 368.221,318.508 373.553,311.926 C376.218,308.629 378.693,305.196 380.928,301.625 C383.171,298.053 385.146,294.309 386.752,290.427 C388.761,285.631 390.177,280.559 390.745,275.485 L390.763,275.615 C391.22,278.564 391.548,281.731 392.453,285.285 C395.041,282.672 396.604,279.523 397.535,276.099 C397.991,274.39 398.241,272.588 398.225,270.715 C398.207,268.843 397.957,266.91 397.275,264.961 C396.604,263.029 395.49,261.052 393.756,259.439 C392.065,257.818 389.563,256.697 387.14,256.705 C384.697,256.671 382.523,257.671 381.041,259.034 C379.565,260.44 378.642,262.156 378.383,263.985 C380.109,263.32 381.627,262.873 382.981,262.777 C384.336,262.701 385.432,262.942 386.165,263.398 C386.536,263.614 386.837,263.856 387.105,264.149 C387.252,264.263 387.354,264.46 387.493,264.582 C387.605,264.771 387.743,264.884 387.847,265.091 C388.313,265.807 388.761,266.704 389.132,267.791 C389.442,268.706 389.702,269.723 389.935,270.81 C389.555,272.371 389.088,273.89 388.537,275.373 C386.907,279.825 384.568,283.948 381.852,287.71 C379.6,290.832 377.055,293.722 374.319,296.415 C371.595,299.105 368.695,301.607 365.676,303.944 C360.983,307.569 355.972,310.77 350.813,313.564 C350.329,313.676 349.786,313.866 349.19,314.116 C352.624,310.114 355.746,306.128 358.446,302.047 C365.892,295.327 370.508,285.519 371.869,273.406 C373.837,255.912 368.626,236.371 362.709,229.781 C343.246,208.094 316.056,180.765 297.024,173.673 C269.169,163.295 235.283,202.124 217.563,226.192 C209.8,236.743 205.779,246.077 204.348,254.617 C203.881,252.797 203.485,250.978 203.175,249.156 C202.009,242.558 201.975,236.053 203.218,229.885 C205.624,217.497 212.888,206.463 221.125,195.688 C229.383,184.878 238.819,174.251 246.799,162.035 C250.742,155.918 254.331,149.38 256.72,142.324 C259.101,135.301 260.249,127.7 259.067,120.566 C257.229,127.545 254.296,133.739 250.63,139.434 C246.972,145.127 242.693,150.38 238.156,155.522 C229.123,165.823 219.082,175.708 210.18,187.294 C207.971,190.201 205.831,193.203 203.803,196.344 C201.828,199.511 199.939,202.779 198.317,206.239 C195.083,213.132 192.778,220.8 192.434,228.659 C192.045,236.51 193.633,244.325 196.695,251.166 C198.584,255.437 200.966,259.361 203.727,262.942 C203.881,270.3 205.866,277.107 208.799,283.698 C211.154,291.437 214.916,297.734 219.687,303.28 L219.807,303.47 L219.841,303.453 C224.835,309.225 230.918,314.185 237.613,319.146 C228.865,315.962 220.298,311.942 212.405,306.887 C204.407,301.745 196.979,295.551 191.295,287.847 C188.466,284 186.094,279.764 184.445,275.192 C183.626,272.915 182.988,270.55 182.539,268.136 C182.393,267.333 182.262,266.522 182.16,265.702 C182.279,265.486 182.401,265.28 182.521,265.091 C182.634,264.884 182.771,264.771 182.883,264.582 C183.022,264.46 183.125,264.263 183.272,264.149 C183.54,263.856 183.833,263.614 184.213,263.398 C184.946,262.942 186.041,262.701 187.396,262.777 C188.741,262.873 190.268,263.32 191.994,263.985 C191.727,262.156 190.803,260.44 189.328,259.034 C187.854,257.671 185.68,256.671 183.238,256.705 C180.805,256.697 178.312,257.818 176.622,259.439 C174.887,261.052 173.766,263.029 173.093,264.961 C172.42,266.91 172.162,268.843 172.152,270.715 C172.135,272.588 172.377,274.39 172.843,276.099 C173.774,279.523 175.327,282.672 177.915,285.285 C178.829,281.731 179.157,278.564 179.606,275.615 C180.003,272.828 180.46,270.258 181.132,268.144 C181.115,270.715 181.314,273.303 181.728,275.882 C182.547,280.981 184.204,285.983 186.473,290.711 C191.037,300.192 197.842,308.483 205.468,315.694 C210.808,320.732 216.598,325.261 222.697,329.368 C218.434,330.55 214.121,331.267 209.886,331.3 C205.158,331.31 200.569,330.43 196.419,328.635 C188.069,325.08 181.539,318.316 176.379,310.699 C171.221,303.04 167.219,294.395 164.232,285.605 C164.052,285.062 163.862,284.492 163.715,283.975 L163.319,282.507 L162.973,280.998 L162.707,279.429 C162.379,277.314 162.223,275.098 162.172,272.855 C162.05,268.359 162.352,263.701 162.914,259.043 C163.431,254.366 164.198,249.665 165.113,244.974 C165.976,240.263 167.054,235.569 168.167,230.868 C170.392,221.464 172.999,212.087 175.698,202.711 C178.631,192.557 181.753,182.419 184.911,172.25 C185.489,171.041 186.058,169.903 186.62,168.79 C186.576,169.791 186.55,170.834 186.55,171.914 C186.55,193.799 217.65,147.707 225.043,133.817 C225.733,133.162 226.371,132.463 226.975,131.73 C229.926,128.072 231.909,123.724 232.962,119.091 C234.98,114.925 236.603,110.499 237.396,105.686 C237.811,103.166 237.957,100.518 237.613,97.757 C237.267,95.022 236.31,92.089 234.412,89.588 C232.522,87.085 229.77,85.283 227.036,84.325 C226.691,84.195 226.345,84.092 226.001,83.99 L225.043,83.73 C224.413,83.549 223.774,83.393 223.127,83.273 C222.49,83.126 221.843,83.006 221.187,82.919 C220.54,82.815 219.883,82.738 219.229,82.695 C214.139,82.229 208.902,82.953 204.158,84.86 L204.339,83.971 C205.209,82.298 205.987,80.589 206.737,78.891 C207.85,76.364 208.885,73.827 209.938,71.342 C212.025,66.382 222.473,42.59 225.568,40.07 C250.292,19.944 273.284,21.005 278.15,20.229 C280.59,19.841 285.913,21.091 289.182,23.455 C291.21,24.921 292.935,23.041 295.394,24.412 C295.514,24.473 295.601,24.507 295.8,24.404 C298.267,23.015 300.519,22.23 303.02,21.919 C305.53,21.618 309.93,19.478 312.406,19.513 C318.962,19.6 327.313,22.248 332.248,23.679" fill="#E5C7BE"/>
    <path d="M168.607,38.673 C138.034,45.72 94.227,107.333 65.828,105.634 C36.928,103.908 74.454,115.615 90.414,113.207 C101.784,111.5 117.753,96.747 129.433,97.163 C129.208,98.283 128.984,99.396 128.76,100.5 C128.079,103.882 127.388,107.169 126.586,110.396 C124.99,116.831 122.988,123.051 119.806,128.744 C118.209,131.575 116.329,134.292 114.025,136.716 C111.73,139.157 109.014,141.297 105.942,143.039 C109.436,142.599 112.981,141.616 116.363,140.08 C119.754,138.562 122.971,136.508 125.956,134.163 C131.943,129.435 136.929,123.535 141.347,117.522 C142.097,116.503 142.83,115.477 143.546,114.45 C145.574,121.317 147.359,128.219 148.688,135.171 C150.309,143.79 151.345,152.538 150.602,161.129 C150.215,165.408 149.343,169.652 147.575,173.595 C145.823,177.529 143.029,181.135 139.155,183.697 C143.597,182.403 147.765,179.573 151,175.847 C154.261,172.137 156.675,167.711 158.548,163.157 C160.757,157.67 162.257,151.994 163.344,146.274 C167.382,150.519 171.669,153.529 176.069,154.453 C173.731,168.911 167.572,191.694 156.167,198.372 C145.443,204.652 132.202,200.691 120.098,188.424 C119.658,187.579 119.21,186.734 118.779,185.879 C116.553,181.548 114.5,177.133 112.594,172.638 C111.645,170.395 110.721,168.134 109.816,165.865 C108.867,163.554 108.22,161.465 106.899,158.611 C105.666,155.97 104.148,153.572 102.526,151.312 C100.895,149.052 99.127,146.946 97.255,144.998 C95.4,143.022 93.459,141.167 91.458,139.425 C89.456,137.655 87.386,136.017 85.29,134.421 C81.08,131.254 76.697,128.383 72.177,125.794 C67.665,123.18 63.016,120.825 58.263,118.687 C53.508,116.537 48.618,114.674 43.588,113.087 C41.095,112.293 38.455,111.587 35.954,110.965 C33.676,110.404 31.433,109.774 29.285,109.05 C27.137,108.325 25.057,107.523 23.185,106.625 C21.356,105.746 19.666,104.694 18.691,103.771 C18.958,103.606 19.261,103.435 19.597,103.27 C21.012,102.579 22.909,102.019 24.911,101.682 C25.913,101.501 26.946,101.381 28,101.285 L29.906,101.122 C30.57,101.061 31.243,101.018 31.898,100.94 C37.204,100.353 42.466,99.431 47.599,98.041 C57.865,95.342 67.647,91.219 76.749,86.155 C81.304,83.618 85.713,80.884 89.974,77.967 C94.236,75.051 98.333,71.946 102.328,68.754 C110.333,62.362 117.778,55.435 124.999,48.404 C129.511,43.969 133.909,39.475 138.301,35.032 C140.811,34.42 143.322,33.936 145.841,33.634 C147.325,33.488 148.792,33.281 150.249,33.271 C150.982,33.264 151.707,33.195 152.423,33.221 L154.571,33.307 C157.4,33.514 160.127,33.998 162.551,34.876 C164.966,35.749 167.054,37.042 168.512,38.569 L168.607,38.673" fill="#D0968C"/>
    <path d="M304.176,254.092 C302.209,255.04 299.992,255.393 297.817,255.679 C295.627,255.946 293.427,256.041 291.219,256.058 C286.802,256.075 282.366,255.714 277.941,255.015 C273.517,254.29 269.083,253.229 264.674,251.512 C264.571,251.468 264.476,251.434 264.373,251.391 L264.373,251.382 C263.639,251.099 262.889,250.761 262.156,250.416 L262.017,250.606 C262.008,250.512 261.982,250.416 261.956,250.32 C260.671,249.718 259.395,249.036 258.134,248.233 C257.557,247.863 256.979,247.475 256.41,247.052 C252.847,246.06 248.533,245.689 246.524,246.336 C242.822,247.525 252.493,260.656 263.742,252.909 C263.742,252.909 265.899,260.242 254.685,260.673 C243.469,261.105 212.275,251.037 239.156,234.794 C253.59,226.064 265.839,232.146 265.555,241.772 C266.469,242.558 267.461,243.316 268.521,244.032 C271.8,246.223 275.526,248.061 279.4,249.597 C283.292,251.123 287.354,252.374 291.503,253.272 C293.574,253.712 295.679,254.074 297.801,254.281 C299.914,254.453 302.071,254.592 304.176,254.092 M341.383,256.929 C329.013,270.731 312.914,261.821 308.887,251.184 C313.777,259.233 324.992,260.38 334.188,258.086 C343.394,255.781 338.796,246.293 329.013,252.331 C319.238,258.369 312.053,249.165 308.887,245.638 C305.721,242.101 314.348,234.215 325.131,232.775 C335.914,231.342 353.745,243.127 341.383,256.929 M325.441,143.125 C324.941,136.147 326.64,128.839 330.677,123.551 C329.444,130.099 330.092,136.241 332.084,141.909 C334.024,147.595 336.958,152.908 340.254,158.11 C346.879,168.505 354.78,178.486 362.113,189.261 C363.934,191.961 365.745,194.697 367.514,197.483 C369.239,200.312 370.964,203.158 372.543,206.117 C374.113,209.085 375.648,212.105 376.96,215.271 C377.625,216.84 378.263,218.437 378.841,220.068 C379.41,221.699 379.928,223.355 380.394,225.037 C382.23,231.739 383.05,239.02 381.765,246.034 C380.522,253.029 377.09,259.414 372.311,263.986 C373.406,260.854 374.26,257.759 374.717,254.687 C375.183,251.615 375.261,248.587 374.993,245.629 C374.467,239.719 372.646,234.095 370.171,228.659 C367.669,223.233 364.598,217.953 361.251,212.735 C359.568,210.129 357.878,207.498 356.083,204.911 C354.332,202.288 352.537,199.666 350.718,197.034 L345.326,189.029 C343.565,186.311 341.754,183.594 340.055,180.782 C338.347,177.978 336.647,175.14 335.085,172.189 C333.49,169.256 332.014,166.228 330.669,163.113 C328.021,156.877 325.881,150.165 325.441,143.125 M194.046,22.158 C197.451,25.686 200.121,29.54 201.977,33.595 C203.838,37.708 207.305,44.488 208.878,56.768 C208.822,57.097 208.764,57.36 208.704,57.54 C206.883,63.172 206.978,64.441 203.355,69.755 L203.355,69.832 C194.263,83.393 175.896,96.196 175.388,96.549 C175.12,91.676 175.128,87.225 175.388,83.635 C176.009,74.965 181.857,63.043 184.436,53.528 C185.61,50.949 186.094,48.222 186.016,45.678 C185.972,42.994 185.248,40.554 184.264,38.38 C182.246,34.006 178.89,30.899 175.361,28.881 C171.799,26.846 168.02,25.878 164.414,25.568 C160.799,25.267 157.341,25.595 154.037,26.206 L151.595,26.751 C150.792,26.94 150.008,27.207 149.223,27.431 C147.643,27.864 146.143,28.485 144.633,29.045 C144.426,29.123 144.228,29.209 144.03,29.296 C144.719,28.605 145.41,27.907 146.107,27.226 C147.868,25.517 149.637,23.852 151.439,22.255 C153.234,20.66 155.054,19.15 156.908,17.822 C160.541,15.199 164.629,13.526 169.055,12.992 C173.464,12.456 178.088,13.103 182.461,14.699 C184.923,15.595 187.305,16.776 189.58,18.172 C191.144,19.38 192.647,20.714 194.046,22.158 M215.139,120.213 C215.139,122.93 212.939,125.131 210.222,125.131 C207.513,125.131 205.313,122.93 205.313,120.213 C205.313,117.504 207.513,115.304 210.222,115.304 C212.939,115.304 215.139,117.504 215.139,120.213 M186.197,111 C186.593,110.232 186.999,109.472 187.431,108.731 C188.561,106.755 189.793,104.883 191.141,103.123 C192.521,101.389 193.978,99.758 195.583,98.318 C198.748,95.394 202.415,93.186 206.323,91.822 C210.231,90.476 214.397,90.002 218.512,90.398 C219.021,90.441 219.539,90.511 220.048,90.597 C220.565,90.657 221.075,90.752 221.583,90.856 C222.093,90.942 222.593,91.063 223.102,91.192 L223.844,91.382 L224.491,91.589 C226.172,92.167 227.57,92.987 228.571,94.212 C230.296,96.126 231.065,99.259 231.21,102.648 C230.65,101.864 229.994,101.129 229.271,100.519 C227.959,99.379 226.458,98.56 224.974,98.051 C223.491,97.506 222.006,97.188 220.557,97.033 C217.659,96.714 214.889,96.912 212.232,97.352 C206.918,98.301 201.984,100.173 197.412,102.665 C193.331,104.917 189.509,107.661 186.197,111 M189.328,116.555 C192.762,113.622 196.669,111.172 200.776,109.214 C202.838,108.239 204.934,107.358 207.082,106.66 C209.213,105.935 211.378,105.367 213.535,105.003 C215.673,104.616 217.823,104.478 219.78,104.65 C221.747,104.771 223.481,105.332 224.585,106.176 C225.156,106.592 225.604,107.074 225.932,107.722 L226.06,107.954 L226.164,108.222 C226.225,108.42 226.312,108.55 226.381,108.791 C226.519,109.283 226.673,109.765 226.768,110.284 C227.217,112.311 227.355,114.484 227.269,116.685 C227.087,120.523 226.199,124.457 224.577,128.072 C222.266,130.384 218.943,132.273 215.562,133.3 C218.383,126.441 220.988,113.924 211.62,113.251 C199.542,112.388 192.062,125.044 194.366,132.808 C196.161,138.864 200.759,144.748 207.332,141.987 C209.903,142.272 212.361,141.909 214.64,141.099 C201.742,150.433 192.917,146.317 192.917,146.317 C189.983,145.402 187.448,142.858 185.282,139.252 C185.523,139.407 185.773,139.563 186.024,139.709 C184.945,138.45 184.075,137.069 183.393,135.637 C183.247,135.326 183.099,135.008 182.961,134.689 C182.807,134.301 182.643,133.913 182.513,133.524 C181.806,131.35 181.668,129.124 182.116,127.062 C182.53,125.001 183.504,123.094 184.782,121.352 C186.05,119.609 187.603,118.029 189.328,116.555 M90.414,113.208 C101.785,111.499 117.753,96.748 129.433,97.162 C129.208,98.283 128.983,99.396 128.76,100.501 C128.079,103.883 127.388,107.169 126.585,110.396 C124.99,116.831 122.988,123.052 119.805,128.744 C118.209,131.574 116.329,134.292 114.025,136.716 C111.73,139.158 109.014,141.296 105.942,143.039 C109.436,142.599 112.981,141.616 116.363,140.081 C119.754,138.562 122.971,136.508 125.956,134.162 C131.943,129.434 136.929,123.534 141.346,117.522 C142.097,116.503 142.83,115.477 143.546,114.45 C145.573,121.317 147.359,128.218 148.688,135.171 C150.309,143.79 151.345,152.537 150.602,161.13 C150.214,165.408 149.343,169.652 147.575,173.596 C145.824,177.529 143.029,181.135 139.155,183.697 C143.597,182.403 147.765,179.573 151,175.847 C154.26,172.138 156.676,167.712 158.548,163.157 C160.757,157.67 162.257,151.994 163.345,146.274 C167.382,150.519 171.668,153.529 176.069,154.452 C173.731,168.911 167.572,191.694 156.167,198.371 C145.443,204.651 132.202,200.692 120.098,188.424 C119.659,187.578 119.21,186.733 118.778,185.879 C116.553,181.549 114.5,177.132 112.594,172.637 C111.644,170.395 110.721,168.135 109.816,165.866 C108.866,163.553 108.22,161.466 106.899,158.61 C105.666,155.971 104.147,153.573 102.525,151.312 C100.896,149.053 99.127,146.947 97.254,144.997 C95.401,143.022 93.459,141.167 91.457,139.424 C89.456,137.656 87.386,136.017 85.29,134.421 C81.08,131.255 76.697,128.382 72.177,125.794 C67.665,123.181 63.016,120.826 58.262,118.686 C53.508,116.538 48.618,114.674 43.588,113.087 C41.094,112.293 38.455,111.585 35.954,110.964 C33.676,110.403 31.433,109.775 29.285,109.049 C27.136,108.326 25.058,107.523 23.185,106.626 C21.356,105.747 19.666,104.693 18.691,103.77 C18.958,103.607 19.261,103.434 19.597,103.269 C21.012,102.58 22.909,102.02 24.91,101.683 C25.911,101.501 26.947,101.38 27.999,101.285 L29.906,101.122 C30.571,101.061 31.243,101.019 31.898,100.941 C37.204,100.353 42.467,99.431 47.6,98.042 C57.865,95.342 67.647,91.218 76.749,86.154 C81.305,83.618 85.713,80.883 89.974,77.967 C94.235,75.051 98.333,71.946 102.328,68.755 C110.333,62.361 117.777,55.434 124.999,48.404 C129.511,43.969 133.91,39.476 138.301,35.032 C140.811,34.419 143.321,33.937 145.841,33.635 C147.324,33.488 148.791,33.28 150.25,33.272 C150.982,33.264 151.707,33.194 152.423,33.221 L154.571,33.308 C157.4,33.515 160.127,33.997 162.551,34.877 C164.967,35.748 167.054,37.042 168.512,38.568 L168.607,38.673 C138.033,45.721 94.227,107.333 65.828,105.633 C36.928,103.909 74.454,115.615 90.414,113.208 M261.638,390.67 C265.934,390.67 269.928,389.911 273.585,388.427 C282.894,394.189 294.091,397.192 306.092,394.466 C309.956,393.595 313.666,391.584 317.193,388.763 C320.609,390.023 324.311,390.67 328.263,390.67 C331.514,390.67 334.93,390.23 338.493,389.377 C335.491,393.258 332.3,396.882 328.84,400.072 C321.594,406.794 313.027,411.572 303.883,412.59 C299.328,413.116 294.679,412.84 290.123,411.728 C285.568,410.581 281.124,408.647 276.897,406.138 C272.663,403.628 268.669,400.522 264.89,397.027 C264.219,396.41 263.571,395.755 262.915,395.111 C262.072,393.644 261.298,392.153 260.605,390.644 C260.951,390.654 261.297,390.67 261.638,390.67 M245.117,341.92 C246.188,346.207 247.395,351.134 248.784,356.568 C250.863,364.704 256.651,374.227 264.89,381.81 C259.049,382.544 253.063,381.154 248.361,379.464 C229.322,372.632 210.438,353.808 203.459,335.303 C205.753,335.285 208.03,335.063 210.24,334.613 C214.855,333.698 219.151,331.897 223.058,329.609 C225.596,331.31 228.183,332.939 230.813,334.492 C235.378,337.176 240.097,339.651 245.014,341.868 L245.117,341.92 M250.225,304.671 C239.295,302.487 229.331,296.897 221.645,289.797 C211.128,271.596 206.28,256.075 224.508,231.309 C251.803,194.239 277.779,175.709 294.005,181.756 C307.575,186.811 329.694,205.912 356.29,235.544 C359.783,239.435 365.107,256.411 363.295,272.449 C362.976,275.261 362.467,277.901 361.777,280.351 C358.662,285.673 354.004,291.177 347.422,297.769 C329.013,316.169 279.003,310.415 250.225,304.671 M323.31,342.73 C322.707,349.228 319.454,368.034 292.711,368.034 C271.8,368.034 265.251,351.211 263.233,341.428 L262.923,335.156 C262.232,321.733 286.526,320.009 290.822,343.205 C292.219,343.352 293.618,343.464 295.022,343.534 C295.514,323.027 318.807,313.754 323.552,335.208 C323.465,335.477 323.768,337.788 323.31,342.73 M311.106,19.654 C311.371,19.613 311.642,19.585 311.91,19.553 C312.075,19.539 312.255,19.511 312.406,19.513 C318.961,19.6 327.313,22.248 332.248,23.679 C348.639,28.424 367.246,42.356 368.048,42.943 C369.645,44.151 369.679,49.576 371.103,51.372 C371.811,52.277 372.475,53.252 373.12,54.261 C373.785,55.262 374.424,56.314 375.027,57.41 C377.469,61.775 379.557,66.632 381.652,71.626 C382.723,74.119 383.748,76.656 384.879,79.201 C385.629,80.909 386.416,82.634 387.286,84.325 L387.468,85.205 C382.723,83.308 377.486,82.575 372.405,83.04 C371.74,83.092 371.085,83.161 370.438,83.273 C369.782,83.359 369.145,83.479 368.497,83.618 C367.85,83.747 367.221,83.902 366.582,84.075 L365.624,84.334 C365.279,84.447 364.934,84.55 364.589,84.671 C361.854,85.628 359.103,87.431 357.214,89.941 C355.316,92.442 354.358,95.376 354.014,98.11 C353.668,100.871 353.814,103.511 354.229,106.039 C355.022,110.853 356.644,115.278 358.662,119.446 C359.715,124.077 361.699,128.426 364.649,132.083 C365.253,132.808 365.9,133.516 366.582,134.17 C373.958,148.009 404.85,193.816 405.065,172.482 C408.197,182.575 411.285,192.635 414.211,202.711 C416.901,212.087 419.507,221.464 421.733,230.868 C422.845,235.57 423.924,240.263 424.787,244.974 C425.71,249.666 426.477,254.366 426.986,259.043 C427.556,263.701 427.85,268.359 427.729,272.855 C427.677,275.098 427.521,277.314 427.202,279.429 L426.926,280.998 L426.581,282.507 L426.185,283.975 C426.037,284.492 425.848,285.063 425.666,285.605 C422.69,294.395 418.679,303.04 413.52,310.699 C408.361,318.316 401.839,325.082 393.48,328.635 C389.331,330.43 384.741,331.31 380.013,331.3 C375.286,331.266 370.455,330.378 365.711,328.937 C369.911,331.551 374.596,333.604 379.669,334.613 C381.868,335.063 384.146,335.285 386.449,335.303 C380.221,351.798 364.537,368.551 347.716,376.832 C347.784,376.436 347.862,376.048 347.923,375.65 C347.577,376.177 347.231,376.704 346.887,377.23 C345.11,378.074 343.324,378.825 341.538,379.464 C336.656,381.215 330.393,382.647 324.346,381.725 C335.051,369.147 343.48,350.047 348.414,335.329 C350.89,333.612 353.244,331.826 355.522,329.973 C362.174,324.503 368.221,318.508 373.553,311.926 C376.218,308.63 378.693,305.196 380.928,301.625 C383.171,298.053 385.146,294.31 386.752,290.427 C388.761,285.631 390.177,280.559 390.745,275.485 L390.763,275.614 C391.219,278.564 391.548,281.731 392.453,285.285 C395.041,282.672 396.604,279.523 397.535,276.099 C397.991,274.391 398.241,272.587 398.225,270.715 C398.207,268.843 397.957,266.91 397.275,264.96 C396.604,263.029 395.49,261.053 393.756,259.439 C392.065,257.818 389.563,256.697 387.14,256.705 C384.697,256.671 382.523,257.671 381.041,259.034 C379.565,260.44 378.642,262.156 378.383,263.986 C380.109,263.322 381.627,262.874 382.981,262.777 C384.336,262.701 385.432,262.941 386.165,263.398 C386.536,263.614 386.837,263.856 387.105,264.149 C387.252,264.262 387.355,264.46 387.493,264.582 C387.605,264.771 387.743,264.883 387.847,265.091 C388.313,265.808 388.761,266.704 389.132,267.791 C389.442,268.706 389.702,269.723 389.935,270.81 C389.555,272.371 389.09,273.89 388.537,275.373 C386.907,279.824 384.568,283.949 381.852,287.71 C379.6,290.832 377.055,293.722 374.319,296.415 C371.595,299.105 368.695,301.607 365.676,303.944 C360.983,307.569 355.972,310.77 350.813,313.564 C350.329,313.676 349.786,313.866 349.19,314.116 C352.624,310.114 355.746,306.128 358.445,302.048 C365.892,295.327 370.508,285.519 371.869,273.406 C373.837,255.912 368.626,236.372 362.709,229.781 C343.246,208.093 316.056,180.765 297.024,173.673 C269.169,163.295 235.283,202.125 217.563,226.192 C209.799,236.743 205.779,246.077 204.348,254.617 C203.881,252.797 203.484,250.978 203.174,249.156 C202.01,242.558 201.974,236.053 203.216,229.885 C205.624,217.497 212.887,206.463 221.125,195.688 C229.383,184.878 238.819,174.251 246.799,162.036 C250.742,155.918 254.33,149.38 256.721,142.324 C259.102,135.301 260.249,127.7 259.066,120.566 C257.229,127.545 254.296,133.739 250.63,139.433 C246.972,145.127 242.694,150.38 238.156,155.522 C229.123,165.823 219.083,175.709 210.179,187.295 C207.971,190.201 205.831,193.203 203.803,196.344 C201.828,199.509 199.939,202.779 198.317,206.239 C195.083,213.131 192.778,220.8 192.434,228.659 C192.045,236.51 193.633,244.325 196.695,251.166 C198.585,255.437 200.966,259.362 203.727,262.941 C203.881,270.301 205.865,277.107 208.799,283.698 C211.153,291.437 214.915,297.735 219.687,303.28 L219.806,303.472 L219.841,303.453 C224.835,309.225 230.918,314.186 237.612,319.146 C228.865,315.962 220.298,311.942 212.405,306.887 C204.407,301.745 196.979,295.551 191.295,287.847 C188.466,284 186.094,279.764 184.446,275.192 C183.626,272.915 182.987,270.55 182.539,268.136 C182.393,267.333 182.262,266.522 182.16,265.702 C182.279,265.486 182.401,265.28 182.521,265.091 C182.634,264.883 182.771,264.771 182.883,264.582 C183.022,264.46 183.125,264.262 183.272,264.149 C183.54,263.856 183.832,263.614 184.212,263.398 C184.945,262.941 186.041,262.701 187.396,262.777 C188.741,262.874 190.269,263.322 191.994,263.986 C191.726,262.156 190.803,260.44 189.328,259.034 C187.854,257.671 185.678,256.671 183.238,256.705 C180.805,256.697 178.312,257.818 176.622,259.439 C174.887,261.053 173.766,263.029 173.092,264.96 C172.42,266.91 172.161,268.843 172.152,270.715 C172.135,272.587 172.377,274.391 172.843,276.099 C173.774,279.523 175.327,282.672 177.915,285.285 C178.829,281.731 179.157,278.564 179.605,275.614 C180.003,272.828 180.46,270.258 181.134,268.144 C181.115,270.715 181.314,273.303 181.728,275.882 C182.547,280.981 184.204,285.983 186.473,290.712 C191.036,300.192 197.842,308.483 205.468,315.694 C210.808,320.732 216.598,325.262 222.697,329.368 C218.434,330.551 214.121,331.266 209.886,331.3 C205.158,331.31 200.569,330.43 196.419,328.635 C188.069,325.082 181.539,318.316 176.379,310.699 C171.221,303.04 167.219,294.395 164.233,285.605 C164.052,285.063 163.862,284.492 163.715,283.975 L163.319,282.507 L162.973,280.998 L162.707,279.429 C162.378,277.314 162.223,275.098 162.172,272.855 C162.05,268.359 162.352,263.701 162.912,259.043 C163.431,254.366 164.198,249.666 165.113,244.974 C165.976,240.263 167.054,235.57 168.167,230.868 C170.393,221.464 172.999,212.087 175.698,202.711 C178.631,192.557 181.753,182.419 184.912,172.25 C185.49,171.042 186.058,169.903 186.62,168.79 C186.576,169.791 186.55,170.834 186.55,171.914 C186.55,193.799 217.65,147.707 225.043,133.817 C225.733,133.162 226.371,132.463 226.975,131.729 C229.926,128.072 231.91,123.724 232.963,119.091 C234.981,114.924 236.604,110.5 237.396,105.686 C237.81,103.166 237.958,100.519 237.612,97.757 C237.267,95.022 236.31,92.09 234.411,89.588 C232.522,87.085 229.77,85.283 227.036,84.325 C226.691,84.195 226.345,84.092 226.001,83.989 L225.043,83.73 C224.413,83.549 223.775,83.393 223.128,83.273 C222.49,83.126 221.843,83.006 221.187,82.919 C220.54,82.815 219.884,82.738 219.229,82.695 C214.139,82.229 208.902,82.954 204.158,84.86 L204.339,83.971 C205.21,82.298 205.987,80.589 206.737,78.891 C207.85,76.362 208.885,73.827 209.938,71.341 C212.025,66.381 222.472,42.59 225.569,40.07 C250.292,19.944 273.284,21.005 278.15,20.229 C280.551,19.847 285.737,21.054 289.018,23.343 C290.01,24.168 290.868,25.099 291.487,26.093 C291.656,26.364 291.851,26.6 292.057,26.818 L296.557,67.82 L301.378,23.903 C302.122,23.207 302.975,22.577 303.905,22.044 C304.275,21.828 304.678,21.634 305.082,21.443 C307.017,20.868 309.297,19.985 311.106,19.654 M362.354,100.863 C361.631,101.484 360.975,102.209 360.414,103.002 C360.561,99.612 361.328,96.481 363.054,94.565 C364.055,93.332 365.452,92.521 367.134,91.934 L367.781,91.736 L368.523,91.546 C369.032,91.416 369.532,91.296 370.05,91.21 C370.551,91.097 371.068,91.012 371.577,90.951 C372.085,90.864 372.604,90.795 373.112,90.752 C377.228,90.347 381.394,90.831 385.311,92.176 C389.218,93.539 392.877,95.738 396.043,98.663 C397.646,100.112 399.104,101.744 400.485,103.477 C401.831,105.228 403.064,107.109 404.194,109.084 C404.626,109.826 405.031,110.584 405.429,111.353 C402.115,108.015 398.294,105.271 394.214,103.02 C389.642,100.527 384.707,98.645 379.393,97.706 C376.735,97.265 373.967,97.067 371.068,97.377 C369.618,97.542 368.135,97.853 366.65,98.395 C365.168,98.913 363.666,99.724 362.354,100.863 M381.402,122.594 C381.402,119.876 383.603,117.676 386.32,117.676 C389.029,117.676 391.229,119.876 391.229,122.594 C391.229,125.302 389.029,127.501 386.32,127.501 C383.603,127.501 381.402,125.302 381.402,122.594 M406.343,139.597 C404.187,143.203 401.649,145.749 398.717,146.67 C398.717,146.67 398.277,146.869 397.457,147.085 C397.302,146.827 397.146,146.568 396.991,146.317 C397.069,146.594 397.154,146.861 397.241,147.137 C394.222,147.87 386.776,148.534 376.985,141.452 C379.263,142.263 381.723,142.616 384.292,142.341 C390.866,145.092 395.464,139.217 397.259,133.162 C399.563,125.397 392.082,112.741 380.005,113.605 C370.637,114.277 373.251,126.787 376.071,133.653 C372.682,132.618 369.368,130.729 367.048,128.426 C365.426,124.81 364.546,120.876 364.356,117.029 C364.271,114.839 364.408,112.655 364.857,110.628 C364.952,110.119 365.107,109.627 365.244,109.136 C365.313,108.894 365.4,108.766 365.469,108.575 L365.563,108.308 L365.702,108.075 C366.021,107.428 366.471,106.945 367.039,106.522 C368.144,105.686 369.877,105.125 371.845,104.995 C373.812,104.832 375.951,104.96 378.099,105.357 C380.246,105.72 382.421,106.29 384.552,107.014 C386.691,107.712 388.796,108.593 390.849,109.568 C394.956,111.526 398.863,113.967 402.297,116.909 C404.022,118.384 405.575,119.954 406.852,121.705 C408.119,123.439 409.094,125.355 409.517,127.416 C409.966,129.47 409.819,131.695 409.111,133.878 C408.982,134.265 408.818,134.654 408.663,135.034 C408.524,135.362 408.379,135.681 408.24,135.991 C407.551,137.414 406.679,138.803 405.601,140.063 C405.851,139.917 406.101,139.762 406.343,139.597 M406.308,15.329 C410.854,13.785 415.607,12.905 420.275,12.853 C424.934,12.8 429.506,13.655 433.456,15.527 C434.457,15.983 435.38,16.528 436.304,17.124 C437.244,17.745 438.174,18.444 439.099,19.159 C440.953,20.618 442.765,22.222 444.568,23.869 C448.166,27.173 451.667,30.718 455.179,34.281 L458.388,37.524 C457.508,37.085 456.637,36.654 455.739,36.24 C451.029,34.049 446.104,32.194 440.928,30.882 C435.743,29.588 430.316,28.769 424.563,29.132 C421.681,29.313 418.713,29.822 415.668,30.978 C414.15,31.582 412.614,32.358 411.122,33.436 C409.629,34.514 408.163,35.938 407.024,37.811 C405.877,39.665 405.144,42.003 405.058,44.306 C404.963,46.61 405.454,48.809 406.205,50.673 C406.334,51.017 406.489,51.336 406.637,51.656 C408.801,61.473 415.573,74.628 416.238,83.989 C416.496,87.578 416.505,92.037 416.246,96.904 C416.246,96.904 397.491,83.929 388.27,70.177 L388.261,70.022 C387.879,65.441 387.175,60.813 385.916,56.177 L385.919,56.163 C386.034,54.28 381.306,44.711 385.584,33.109 C386.987,29.3 390.139,25.805 394.089,22.387 C396.34,20.458 398.781,18.775 401.352,17.295 C402.977,16.56 404.633,15.905 406.308,15.329 M492.214,150.39 C490.583,152.648 489.082,155.057 487.788,157.636 C487.477,158.291 487.131,158.913 486.864,159.603 L486.442,160.612 C486.304,160.948 486.148,161.311 486.054,161.578 L484.734,165.028 C483.845,167.323 482.896,169.601 481.956,171.87 C480.05,176.407 477.996,180.876 475.771,185.25 C474.899,186.974 473.993,188.683 473.062,190.383 C461.519,201.106 449.148,204.307 439.012,198.371 C427.393,191.573 421.224,168.083 418.98,153.676 C423.449,151.657 427.763,147.646 431.757,142.591 C432.87,149.561 434.518,156.497 437.201,163.157 C439.064,167.712 441.488,172.138 444.749,175.847 C447.984,179.573 452.15,182.403 456.594,183.697 C452.72,181.135 449.916,177.529 448.166,173.596 C446.396,169.652 445.534,165.408 445.137,161.13 C444.404,152.537 445.439,143.79 447.061,135.171 C448.39,128.218 450.166,121.317 452.193,114.45 C452.919,115.477 453.644,116.503 454.394,117.522 C458.819,123.534 463.806,129.434 469.784,134.162 C472.777,136.508 475.986,138.562 479.386,140.081 C482.767,141.616 486.304,142.599 489.807,143.039 C486.727,141.296 484.018,139.158 481.724,136.716 C479.42,134.292 477.53,131.574 475.936,128.744 C472.76,123.052 470.759,116.831 469.153,110.396 C468.36,107.169 467.67,103.883 466.988,100.501 C466.816,99.655 466.644,98.81 466.471,97.947 C477.565,100.389 491.177,112.052 501.211,113.561 C517.171,115.969 554.697,104.262 525.798,105.988 C497.57,107.669 454.126,46.826 423.579,39.165 C424.313,38.923 425.063,38.707 425.839,38.526 C430.127,37.551 434.923,37.457 439.693,37.896 C444.49,38.327 449.321,39.32 454.083,40.683 C457.913,41.779 461.7,43.116 465.437,44.634 L465.815,45.021 C480.152,59.308 495.543,73.24 513.617,83.937 C522.605,89.303 532.285,93.771 542.508,96.878 C547.623,98.421 552.85,99.655 558.182,100.415 C559.502,100.622 560.839,100.768 562.177,100.924 C562.85,101.01 563.521,101.053 564.187,101.112 L566.136,101.285 C568.249,101.45 570.312,101.794 572.054,102.337 C572.917,102.605 573.701,102.925 574.297,103.252 L574.323,103.269 C574.159,103.425 573.978,103.58 573.779,103.744 C573.149,104.253 572.372,104.771 571.527,105.271 C569.812,106.271 567.81,107.169 565.714,107.963 C563.608,108.774 561.408,109.49 559.147,110.119 C558.019,110.447 556.871,110.732 555.724,111.024 C554.455,111.353 553.109,111.672 551.824,112.043 C549.235,112.769 546.7,113.597 544.198,114.501 C541.688,115.382 539.237,116.382 536.813,117.436 C531.965,119.548 527.256,121.92 522.691,124.561 C518.12,127.191 513.702,130.108 509.475,133.325 C507.361,134.939 505.3,136.638 503.29,138.406 C501.297,140.201 499.339,142.064 497.484,144.048 C495.639,146.049 493.852,148.147 492.214,150.39 M591.865,96.696 C591.181,95.068 590.228,93.537 589.016,92.128 C586.845,89.629 584.591,88.24 582.848,87.298 C581.162,86.399 579.416,85.686 577.328,85.047 C574.299,84.135 571.176,83.581 567.521,83.303 L565.156,83.113 C564.821,83.087 564.487,83.062 564.085,83.011 L563.621,82.961 C562.628,82.852 561.691,82.749 560.721,82.601 C556.361,81.99 551.916,81.045 547.522,79.798 C543.221,78.563 538.886,77.009 534.63,75.176 C530.35,73.344 526.141,71.277 522.123,69.036 C514.318,64.666 506.318,59.333 498.336,53.18 C491.643,48.038 484.689,42.205 475.779,34.259 C473.695,32.415 471.626,30.551 469.549,28.681 C464.187,23.852 458.643,18.86 452.721,14.103 C450.351,12.209 448.173,10.606 446.029,9.18 C444.875,8.43 443.621,7.631 442.246,6.879 C440.592,5.976 439.189,5.316 437.884,4.823 C432.362,2.656 426.189,1.871 419.54,2.487 C413.938,3.018 408.32,4.493 402.855,6.869 C397.621,9.129 392.783,12.146 388.46,15.849 C383.551,20.097 379.944,24.697 377.729,29.54 C377.299,30.492 376.928,31.442 376.612,32.386 C375.627,31.584 374.537,30.807 373.32,30.04 C372.524,29.537 371.635,29.04 370.604,28.519 L368.393,27.487 C366.248,26.529 364.048,25.456 361.719,24.319 L361.358,24.145 C352.003,19.666 341.011,14.669 328.902,12.067 C321.521,10.553 315.417,10.258 309.662,11.146 C305.819,11.766 302.42,12.924 299.59,14.574 C298.104,15.424 296.738,16.428 295.529,17.554 C294.341,16.438 293.007,15.444 291.561,14.6 C288.717,12.914 285.339,11.731 281.485,11.083 C275.772,10.162 269.681,10.432 262.273,11.935 C250.303,14.479 239.33,19.46 229.943,23.951 C227.158,25.32 224.946,26.371 222.948,27.269 L221.685,27.854 C221.333,28.018 220.983,28.182 220.643,28.364 C219.695,28.849 218.798,29.365 217.992,29.888 C216.331,30.95 214.832,32.11 213.547,33.32 C212.65,33.157 210.721,31.993 209.828,30.021 C207.558,25.061 204.337,20.401 200.249,16.162 C198.243,14.094 196.074,12.202 193.76,10.512 C191.292,8.75 188.762,7.262 186.259,6.102 C180.55,3.418 174.403,2.086 168.53,2.267 C162.48,2.376 156.08,4.314 150.532,7.709 C145.696,10.623 141.591,13.966 137.453,17.433 C132.852,21.318 128.397,25.329 124.088,29.206 C121.091,31.904 117.991,34.695 114.899,37.388 C106.938,44.441 99.586,50.463 92.431,55.793 C88.339,58.82 84.51,61.46 80.701,63.878 C76.733,66.434 72.665,68.802 68.63,70.904 C59.61,75.549 51.298,78.759 43.203,80.724 C38.933,81.784 34.504,82.557 29.957,83.032 C29.657,83.07 29.355,83.091 29.054,83.114 C28.824,83.13 28.594,83.148 28.408,83.166 L26.606,83.311 C24.991,83.433 23.402,83.624 21.872,83.88 C19.439,84.296 15.744,85.067 11.742,86.957 C10.324,87.639 8.19,88.771 6.013,90.709 C4.863,91.739 3.897,92.818 3.057,94.013 C1.974,95.551 1.165,97.219 0.659,98.953 C0.071,100.929 -0.129,103.055 0.081,105.08 C0.262,106.916 0.759,108.722 1.568,110.471 C3.031,113.579 4.974,115.615 6.355,116.918 C9.436,119.744 12.515,121.428 15.415,122.843 C17.96,124.058 20.632,125.089 23.81,126.081 C26.232,126.847 28.804,127.533 31.892,128.242 C34.477,128.839 36.495,129.367 38.427,129.95 C40.997,130.731 43.057,131.416 44.954,132.121 C47.124,132.9 49.288,133.744 51.394,134.633 C60.023,138.251 68.168,142.707 75.569,147.856 C77.748,149.4 79.444,150.686 80.944,151.932 C82.668,153.334 84.292,154.793 85.795,156.289 C87.288,157.754 88.682,159.304 89.933,160.887 C91.295,162.621 92.314,164.153 93.064,165.603 C93.52,166.469 94.089,167.759 94.69,169.125 C95.101,170.059 95.523,171.018 95.932,171.894 C97.196,174.664 98.269,176.909 99.299,178.941 C101.682,183.701 104.207,188.324 106.822,192.709 C113.34,203.449 119.527,211.521 126.294,218.108 C128.311,220.071 130.486,221.922 132.772,223.615 C135.408,225.559 137.906,227.071 140.386,228.229 C143.533,229.72 146.686,230.642 149.74,230.97 C150.411,231.045 151.082,231.09 151.751,231.104 C150.846,234.534 149.993,238.086 149.201,241.724 C148.05,247.235 147.21,252.282 146.628,257.197 C146.299,260.224 146.097,262.771 145.991,265.207 C145.892,267.47 145.798,270.462 145.968,273.527 C146.132,276.665 146.451,279.494 146.941,282.18 L147.383,284.331 L147.963,286.605 L147.996,286.729 C148.162,287.299 148.35,287.869 148.538,288.436 L148.728,289.011 C148.95,289.654 149.172,290.238 149.402,290.838 L149.471,291.016 C151.503,296.266 153.75,301.04 156.333,305.59 C159.058,310.457 162.138,315.002 165.476,319.084 C167.166,321.172 169.074,323.248 171.145,325.259 C173.354,327.405 175.498,329.218 177.664,330.772 C181.736,333.758 186.048,336.021 190.512,337.512 C198.2,360.634 220.318,383.146 243.987,391.646 C246.927,392.7 249.84,393.515 252.679,394.071 C254.017,397.006 255.602,399.883 257.416,402.659 C260.802,407.805 264.867,412.33 269.497,416.107 C274.527,420.209 280.099,423.28 286.102,425.249 C290.744,426.718 295.59,427.465 300.342,427.465 C302.108,427.465 303.865,427.361 305.591,427.153 L306.711,427.029 L310.38,426.333 L310.596,426.286 C312.24,425.877 313.834,425.385 315.175,424.958 L315.403,424.878 C318.964,423.52 321.747,422.188 324.124,420.712 C329.413,417.499 334.138,413.327 338.169,408.311 C341.868,403.71 344.955,398.56 347.361,392.966 C347.667,392.236 347.964,391.497 348.249,390.752 C371.002,381.655 391.969,359.806 399.391,337.513 C403.853,336.021 408.16,333.762 412.201,330.797 C414.402,329.218 416.547,327.405 418.755,325.26 C420.83,323.243 422.738,321.164 424.414,319.1 C427.763,315.002 430.843,310.458 433.556,305.613 C436.148,301.042 438.398,296.268 440.438,290.996 L440.499,290.838 C440.728,290.238 440.951,289.654 441.198,288.937 L441.369,288.419 C441.555,287.857 441.74,287.295 441.904,286.73 L442.47,284.537 L442.961,282.179 C443.45,279.495 443.769,276.666 443.933,273.539 C444.104,270.462 444.01,267.47 443.908,265.212 C443.804,262.762 443.602,260.214 443.269,257.157 C442.691,252.277 441.85,247.229 440.692,241.689 C439.878,237.95 438.995,234.286 438.056,230.746 C440.229,231.147 442.546,231.21 444.916,230.926 C446.496,230.719 448.13,230.354 449.774,229.844 L449.867,229.814 C451.487,229.271 452.923,228.688 454.229,228.043 C456.689,226.856 459.177,225.314 461.843,223.325 C464.08,221.647 466.259,219.765 468.314,217.734 C475.076,211.067 481.267,202.906 487.814,192.02 C490.412,187.617 492.938,182.949 495.319,178.152 C496.435,175.91 497.536,173.578 498.695,171.001 L500.285,167.415 C500.354,167.254 500.411,167.138 500.468,167.021 L500.975,165.937 C501.05,165.758 501.156,165.585 501.255,165.409 C501.353,165.234 501.448,165.059 501.542,164.883 C502.426,163.3 503.528,161.668 504.783,160.07 C506.117,158.419 507.557,156.815 509.046,155.315 C510.425,153.939 512.03,152.481 513.913,150.894 C515.709,149.418 517.521,148.028 519.285,146.774 C526.853,141.436 535.01,136.975 543.522,133.52 C548.373,131.566 552.606,130.126 556.532,129.094 C557.302,128.878 558.057,128.701 558.829,128.519 L559.745,128.299 C561.008,128.011 562.371,127.693 563.763,127.324 C566.69,126.564 569.374,125.736 571.998,124.784 C575.259,123.572 577.964,122.329 580.529,120.865 C582.206,119.9 583.685,118.905 585.091,117.789 C586.442,116.692 588.204,115.133 589.876,112.768 C590.809,111.421 591.524,110.067 592.061,108.631 C592.755,106.781 593.119,104.786 593.116,102.884 C593.125,100.807 592.681,98.61 591.865,96.696" fill="#0B0B09"/>
  </g>
</svg>
