<?xml version="1.0" encoding="UTF-8" standalone="no"?>
<!-- Created with Inkscape (http://www.inkscape.org/) -->

<svg
   xmlns:dc="http://purl.org/dc/elements/1.1/"
   xmlns:cc="http://creativecommons.org/ns#"
   xmlns:rdf="http://www.w3.org/1999/02/22-rdf-syntax-ns#"
   xmlns:svg="http://www.w3.org/2000/svg"
   xmlns="http://www.w3.org/2000/svg"
   xmlns:xlink="http://www.w3.org/1999/xlink"
   xmlns:sodipodi="http://sodipodi.sourceforge.net/DTD/sodipodi-0.dtd"
   xmlns:inkscape="http://www.inkscape.org/namespaces/inkscape"
   width="4in"
   height="4in"
   viewBox="0 0 360 360"
   id="svg39470"
   version="1.1"
   inkscape:version="0.91 r13725"
   sodipodi:docname="happy elephant running.svg">
  <defs
     id="defs39472">
    <linearGradient
       gradientTransform="translate(129.95752,-1004.7871)"
       inkscape:collect="always"
       xlink:href="#linearGradient31211"
       id="linearGradient4294-5-0"
       x1="-517.23553"
       y1="876.92816"
       x2="-462.48938"
       y2="946.60425"
       gradientUnits="userSpaceOnUse" />
    <linearGradient
       inkscape:collect="always"
       id="linearGradient31211">
      <stop
         style="stop-color:#666666;stop-opacity:1"
         offset="0"
         id="stop31213" />
      <stop
         style="stop-color:#e6e6e6;stop-opacity:1"
         offset="1"
         id="stop31215" />
    </linearGradient>
    <linearGradient
       gradientTransform="translate(899.73066,-292.37099)"
       inkscape:collect="always"
       xlink:href="#linearGradient31217"
       id="linearGradient4294-1"
       x1="-517.23553"
       y1="876.92816"
       x2="-462.48938"
       y2="946.60425"
       gradientUnits="userSpaceOnUse" />
    <linearGradient
       inkscape:collect="always"
       id="linearGradient31217">
      <stop
         style="stop-color:#666666;stop-opacity:1"
         offset="0"
         id="stop31219" />
      <stop
         style="stop-color:#f2f2f2;stop-opacity:1"
         offset="1"
         id="stop31221" />
    </linearGradient>
    <linearGradient
       gradientTransform="translate(293.53732,-881.04169)"
       inkscape:collect="always"
       xlink:href="#linearGradient5753"
       id="linearGradient4750-4"
       x1="140.64877"
       y1="940.05286"
       x2="288.56293"
       y2="931.20245"
       gradientUnits="userSpaceOnUse" />
    <linearGradient
       inkscape:collect="always"
       id="linearGradient5753">
      <stop
         style="stop-color:#b3b3b3;stop-opacity:1"
         offset="0"
         id="stop5755" />
      <stop
         style="stop-color:#cccccc;stop-opacity:1"
         offset="1"
         id="stop5757" />
    </linearGradient>
    <linearGradient
       gradientTransform="translate(793.77527,-533.67972)"
       inkscape:collect="always"
       xlink:href="#linearGradient57765"
       id="linearGradient4278-07"
       x1="-320.14972"
       y1="995.92395"
       x2="-268.86371"
       y2="1056.5939"
       gradientUnits="userSpaceOnUse" />
    <linearGradient
       inkscape:collect="always"
       id="linearGradient57765">
      <stop
         style="stop-color:#cccccc;stop-opacity:1"
         offset="0"
         id="stop57767" />
      <stop
         style="stop-color:#f2f2f2;stop-opacity:1"
         offset="1"
         id="stop57769" />
    </linearGradient>
    <linearGradient
       gradientTransform="translate(42.864892,-1202.2117)"
       inkscape:collect="always"
       xlink:href="#linearGradient6619"
       id="linearGradient4278-0-6"
       x1="-298.88947"
       y1="984.80469"
       x2="-267.62827"
       y2="1060.7659"
       gradientUnits="userSpaceOnUse" />
    <linearGradient
       id="linearGradient6619"
       inkscape:collect="always">
      <stop
         id="stop6621"
         offset="0"
         style="stop-color:#b3b3b3;stop-opacity:1" />
      <stop
         id="stop6623"
         offset="1"
         style="stop-color:#f2f2f2;stop-opacity:1" />
    </linearGradient>
    <linearGradient
       gradientTransform="translate(293.53732,-881.04169)"
       inkscape:collect="always"
       xlink:href="#linearGradient6799"
       id="linearGradient4247-9"
       x1="122.73837"
       y1="644.02478"
       x2="244.31212"
       y2="571.1463"
       gradientUnits="userSpaceOnUse" />
    <linearGradient
       inkscape:collect="always"
       id="linearGradient6799">
      <stop
         style="stop-color:#999999;stop-opacity:1"
         offset="0"
         id="stop6801" />
      <stop
         style="stop-color:#cccccc;stop-opacity:1"
         offset="1"
         id="stop6803" />
    </linearGradient>
    <linearGradient
       gradientTransform="translate(293.53732,-881.04169)"
       inkscape:collect="always"
       xlink:href="#linearGradient4758"
       id="linearGradient4764-76"
       x1="-107.68752"
       y1="782.58209"
       x2="40.656982"
       y2="782.58209"
       gradientUnits="userSpaceOnUse" />
    <linearGradient
       inkscape:collect="always"
       id="linearGradient4758">
      <stop
         style="stop-color:#cccccc;stop-opacity:1;"
         offset="0"
         id="stop4760" />
      <stop
         style="stop-color:#b3b3b3;stop-opacity:1"
         offset="1"
         id="stop4762" />
    </linearGradient>
    <radialGradient
       inkscape:collect="always"
       xlink:href="#linearGradient5374"
       id="radialGradient4568-11"
       cx="666.98108"
       cy="754.42957"
       fx="666.98108"
       fy="754.42957"
       r="144.99284"
       gradientTransform="matrix(-0.92078342,0.98133497,-0.70407349,-0.66062987,2011.4729,-393.4526)"
       gradientUnits="userSpaceOnUse" />
    <linearGradient
       id="linearGradient5374"
       inkscape:collect="always">
      <stop
         id="stop5376"
         offset="0"
         style="stop-color:#f9f9f9;stop-opacity:1" />
      <stop
         id="stop5378"
         offset="1"
         style="stop-color:#cccccc;stop-opacity:0;" />
    </linearGradient>
    <radialGradient
       inkscape:collect="always"
       xlink:href="#linearGradient6799"
       id="radialGradient4568-8-0"
       cx="753.85193"
       cy="665.46552"
       fx="753.85193"
       fy="665.46552"
       r="144.99284"
       gradientTransform="matrix(-0.92078342,0.98133497,-0.70407349,-0.66062987,2010.6053,-392.585)"
       gradientUnits="userSpaceOnUse" />
    <radialGradient
       inkscape:collect="always"
       xlink:href="#linearGradient5569"
       id="radialGradient4568-1-3"
       cx="680.71069"
       cy="722.19751"
       fx="680.71069"
       fy="722.19751"
       r="144.99284"
       gradientTransform="matrix(0.65822491,-0.5928229,1.3176471,1.4630138,-534.37593,-791.45702)"
       gradientUnits="userSpaceOnUse" />
    <linearGradient
       inkscape:collect="always"
       id="linearGradient5569">
      <stop
         style="stop-color:#b3b3b3;stop-opacity:1"
         offset="0"
         id="stop5571" />
      <stop
         style="stop-color:#e6e6e6;stop-opacity:1"
         offset="1"
         id="stop5573" />
    </linearGradient>
    <linearGradient
       inkscape:collect="always"
       xlink:href="#linearGradient8840"
       id="linearGradient31209"
       gradientUnits="userSpaceOnUse"
       x1="322.35999"
       y1="560.92999"
       x2="321.03"
       y2="581.81" />
    <linearGradient
       inkscape:collect="always"
       x1="322.35999"
       y1="560.92999"
       x2="321.03"
       gradientUnits="userSpaceOnUse"
       y2="581.81"
       id="linearGradient8840">
      <stop
         offset="0"
         style="stop-color:#ffffff"
         id="stop8924" />
      <stop
         offset="1"
         style="stop-color:#000000;stop-opacity:0"
         id="stop8926" />
    </linearGradient>
  </defs>
  <sodipodi:namedview
     id="base"
     pagecolor="#ffffff"
     bordercolor="#666666"
     borderopacity="1.0"
     inkscape:pageopacity="0.0"
     inkscape:pageshadow="2"
     inkscape:zoom="0.35"
     inkscape:cx="-46.428571"
     inkscape:cy="632.20194"
     inkscape:document-units="in"
     inkscape:current-layer="layer1"
     showgrid="false"
     units="in"
     inkscape:window-width="1920"
     inkscape:window-height="1017"
     inkscape:window-x="-8"
     inkscape:window-y="-8"
     inkscape:window-maximized="1" />
  <metadata
     id="metadata39475">
    <rdf:RDF>
      <cc:Work
         rdf:about="">
        <dc:format>image/svg+xml</dc:format>
        <dc:type
           rdf:resource="http://purl.org/dc/dcmitype/StillImage" />
        <dc:title></dc:title>
      </cc:Work>
    </rdf:RDF>
  </metadata>
  <g
     inkscape:label="Layer 1"
     inkscape:groupmode="layer"
     id="layer1"
     transform="translate(0,-692.3622)">
    <g
       id="g31223"
       transform="matrix(0.40544755,0,0,0.40581764,-38.890826,932.16198)">
      <rect
         inkscape:export-ydpi="300"
         inkscape:export-xdpi="300"
         transform="matrix(-0.85718747,-0.51500451,-0.56712578,0.8236312,0,0)"
         y="-201.62012"
         x="-436.29892"
         height="197.11806"
         width="135.50586"
         id="rect4253-0-5"
         style="fill:url(#linearGradient4294-5-0);fill-opacity:1;stroke:none" />
      <path
         inkscape:export-ydpi="300"
         inkscape:export-xdpi="300"
         sodipodi:nodetypes="ccccc"
         inkscape:connector-curvature="0"
         id="rect4448-5-8-1"
         d="m 332.78686,191.3544 57.29564,11.0051 c 0.91209,3.7414 -2.63387,10.5587 -12.19042,21.5229 l -62.44357,-41.7228 z"
         style="fill:#ffaaaa;stroke:none" />
      <path
         inkscape:export-ydpi="300"
         inkscape:export-xdpi="300"
         sodipodi:nodetypes="sssss"
         inkscape:connector-curvature="0"
         id="path4221-2-0-1-2-1-4"
         d="m 347.77008,203.6001 c -10.83193,-7.4489 -9.19169,-6.109 -19.10652,-12.426 -11.97216,-7.6276 -6.46085,-3.7585 -21.96938,-14.6905 -7.05244,-4.971 26.30684,-18.4715 36.65367,-12.8903 10.34684,5.5814 11.53177,44.8958 4.42223,40.0068 z"
         style="fill:#ffaaaa;stroke:none" />
      <rect
         inkscape:export-ydpi="300"
         inkscape:export-xdpi="300"
         transform="matrix(0.59819573,-0.80135003,0.83687418,0.5473953,0,0)"
         y="510.79602"
         x="333.47418"
         height="197.11806"
         width="135.50586"
         id="rect4253-10"
         style="fill:url(#linearGradient4294-1);fill-opacity:1;stroke:none" />
      <ellipse
         inkscape:export-ydpi="300"
         inkscape:export-xdpi="300"
         ry="202.85713"
         rx="216.42857"
         cy="-69.393791"
         cx="525.68018"
         id="path3336-6-0"
         style="fill:url(#linearGradient4750-4);fill-opacity:1;fill-rule:evenodd;stroke:none;stroke-width:1px;stroke-linecap:butt;stroke-linejoin:miter;stroke-opacity:1" />
      <rect
         inkscape:export-ydpi="300"
         inkscape:export-xdpi="300"
         transform="matrix(0.80309397,-0.59585239,0.64446672,0.76463236,0,0)"
         y="391.52106"
         x="407.88596"
         height="197.11806"
         width="135.50586"
         id="rect4253-9-82"
         style="fill:url(#linearGradient4278-07);fill-opacity:1;stroke:none" />
      <rect
         inkscape:export-ydpi="300"
         inkscape:export-xdpi="300"
         transform="matrix(-0.67729831,-0.7357085,-0.77625991,0.630413,0,0)"
         y="-277.01096"
         x="-343.02444"
         height="197.11806"
         width="135.50586"
         id="rect4253-9-7-83"
         style="fill:url(#linearGradient4278-0-6);fill-opacity:1;stroke:none" />
      <path
         inkscape:export-ydpi="300"
         inkscape:export-xdpi="300"
         sodipodi:nodetypes="ccccc"
         inkscape:connector-curvature="0"
         id="rect4448-5-16"
         d="m 260.81532,162.9821 53.15243,24.0566 c 0.0149,3.851 -5.02239,9.654 -16.8713,18.0887 L 246.0977,149.9992 Z"
         style="fill:#ffaaaa;stroke:none" />
      <path
         inkscape:export-ydpi="300"
         inkscape:export-xdpi="300"
         sodipodi:nodetypes="sssss"
         inkscape:connector-curvature="0"
         id="path4221-2-0-1-2-9"
         d="m 272.53159,178.3828 c -8.79736,-9.7685 -7.51461,-8.0832 -15.68395,-16.5372 -9.86455,-10.208 -5.40686,-5.1609 -17.94017,-19.4065 -5.69953,-6.4779 29.88769,-11.8311 38.64863,-3.9919 8.76093,7.8393 0.74966,46.3471 -5.02451,39.9356 z"
         style="fill:#ffaaaa;stroke:none" />
      <path
         inkscape:export-ydpi="300"
         inkscape:export-xdpi="300"
         sodipodi:nodetypes="sssss"
         inkscape:connector-curvature="0"
         id="path4221-2-0-7-1-6"
         d="m 390.56378,204.9468 c -2.43495,6.7151 -13.37629,7.9319 -22.83151,3.9192 -9.4552,-4.0127 -22.30008,-2.5157 -19.86511,-9.2307 2.43483,-6.7151 35.93908,-20.7339 41.8599,-12.3408 6.04646,8.5712 3.27168,10.9373 0.83674,17.6522 z"
         style="fill:#ffaaaa;stroke:none" />
      <ellipse
         inkscape:export-ydpi="300"
         inkscape:export-xdpi="300"
         transform="matrix(0.98092215,0.19440099,-0.28325219,0.95904546,0,0)"
         ry="80.353279"
         rx="174.53067"
         cy="-547.99805"
         cx="360.28305"
         id="path4221-4-71"
         style="fill:#666666;stroke:none" />
      <ellipse
         inkscape:export-ydpi="300"
         inkscape:export-xdpi="300"
         ry="150.71428"
         rx="161.42857"
         cy="-339.3938"
         cx="634.96594"
         id="path3336-00"
         style="fill:url(#linearGradient4247-9);fill-opacity:1;fill-rule:evenodd;stroke:none;stroke-width:1px;stroke-linecap:butt;stroke-linejoin:miter;stroke-opacity:1" />
      <ellipse
         inkscape:export-ydpi="300"
         inkscape:export-xdpi="300"
         ry="55"
         rx="49.285713"
         cy="-367.96521"
         cx="632.82306"
         id="path4156-52"
         style="fill:#ffffff;stroke:none" />
      <circle
         inkscape:export-ydpi="300"
         inkscape:export-xdpi="300"
         r="23.571428"
         cy="-371.53662"
         cx="653.53735"
         id="path4156-3-14"
         style="fill:#000000;stroke:none" />
      <ellipse
         inkscape:export-ydpi="300"
         inkscape:export-xdpi="300"
         transform="matrix(0.97266703,-0.23220433,0.23220433,0.97266703,0,0)"
         ry="52.142857"
         rx="14.999999"
         cy="-176.86804"
         cx="834.56079"
         id="path4156-36-4"
         style="fill:#ffffff;stroke:none" />
      <ellipse
         inkscape:export-ydpi="300"
         inkscape:export-xdpi="300"
         transform="matrix(0.98919551,-0.14660233,0.14660233,0.98919551,0,0)"
         ry="23.571428"
         rx="9.2857141"
         cy="-251.73335"
         cx="820.16058"
         id="path4156-3-2-3"
         style="fill:#000000;stroke:none" />
      <path
         inkscape:export-ydpi="300"
         inkscape:export-xdpi="300"
         sodipodi:nodetypes="ccccc"
         inkscape:connector-curvature="0"
         id="path4203-6-5"
         d="m 742.73612,-219.3879 c 2.47509,11.7783 -26.29027,26.7325 -48.63177,31.4274 -22.3415,4.6948 -52.51101,-33.4188 -54.9861,-45.1971 -2.47509,-11.7783 31.38949,20.7263 53.731,16.0315 49.88687,-2.2618 47.41178,-14.0401 49.88687,-2.2618 z"
         style="fill:#cccccc;stroke:none" />
      <path
         inkscape:export-ydpi="300"
         inkscape:export-xdpi="300"
         sodipodi:nodetypes="ccccc"
         inkscape:connector-curvature="0"
         id="path4203-4"
         d="m 729.2516,-222.2912 c 0,12.0355 -28.05799,20.7546 -48.57142,20.7546 -20.51343,0 -40,-43.5033 -40,-55.5388 0,-12.0356 23.77228,26.7384 44.28571,26.7384 44.28571,8.0458 44.28571,-3.9898 44.28571,8.0458 z"
         style="fill:#000000;stroke:none" />
      <path
         inkscape:export-ydpi="300"
         inkscape:export-xdpi="300"
         sodipodi:nodetypes="ccscccc"
         inkscape:connector-curvature="0"
         id="rect4153-1"
         d="m 659.35021,-297.8219 81.44692,-75.76 c 90.98352,125.2626 114.16182,137.653 131.84672,127.1933 17.685,-10.4598 -46.3229,-105.2691 15.6275,-182.0481 l 42.3226,20.9476 c -85.7671,-16.8173 63.586,154.4193 4.4902,233.1375 -49.1383,62.6498 -181.92748,7.7912 -275.73394,-123.4703 z"
         style="fill:#cccccc;fill-opacity:1;stroke:none" />
      <ellipse
         inkscape:export-ydpi="300"
         inkscape:export-xdpi="300"
         ry="89.696922"
         rx="198.07697"
         cy="-387.55396"
         cx="358.3175"
         id="path4221-75"
         style="fill:#cccccc;stroke:none" />
      <ellipse
         inkscape:export-ydpi="300"
         inkscape:export-xdpi="300"
         ry="57.756115"
         rx="113.52981"
         cy="-390.10449"
         cx="370.82281"
         id="path4221-2-4"
         style="fill:#ffaaaa;stroke:none" />
      <path
         inkscape:export-ydpi="300"
         inkscape:export-xdpi="300"
         sodipodi:nodetypes="cccccccccccccc"
         inkscape:connector-curvature="0"
         d="m 325.00901,-135.2425 c 5.32255,38.084598 -35.86594,55.406298 -45.97705,65.666898 -14.65126,12.2756 -24.22288,15.4552 -44.36022,12.2855 -8.28771,-0.9053 -17.72387,-8.1625 -24.60026,-12.545 -5.81034,-3.5818 -10.88872,-8.3207 -16.9437,-11.4973 -2.29356,-1.1057 -4.77919,-1.2961 -7.27798,-1.3759 l 17.23614,-12.3457 0,0 c 2.70811,0.2756 5.33807,0.8236 7.71944,2.2231 5.81195,3.5437 10.81029,8.2679 16.6398,11.8046 28.5634,8.959 42.00323,-11.5986 51.23358,-19.859798 6.09477,-7.9852 14.57272,-14.2239 21.35515,-21.6527 8.93436,-8.8529 20.11879,-17.4504 32.97063,-18.2375 8.36161,64.608698 -30.89637,10.6435 -7.99553,5.5338 z"
         id="path4334-0"
         style="fill:url(#linearGradient4764-76);fill-opacity:1;stroke:none" />
      <path
         inkscape:export-ydpi="300"
         inkscape:export-xdpi="300"
         sodipodi:nodetypes="cscc"
         inkscape:connector-curvature="0"
         id="path4408-65"
         d="m 137.03848,-100.7603 c 43.52992,46.768098 104.96842,14.998498 52.37211,-14.2548 -46.42959,-25.8234 -28.58092,-72.1226 -22.93182,-79.2249 -6.18338,8.1815 -71.146577,45.0403 -29.44029,93.4797 z"
         style="fill:#000000;stroke:none" />
      <path
         inkscape:export-ydpi="300"
         inkscape:export-xdpi="300"
         sodipodi:nodetypes="sssss"
         inkscape:connector-curvature="0"
         id="path4221-2-0-4"
         d="m 802.56585,107.2328 c 5.5155,4.5388 3.0062,15.2578 -3.9354,22.8286 -6.94159,7.5708 -9.82303,20.1775 -15.33842,15.6387 -5.51542,-4.5389 -7.53249,-40.8017 2.35674,-43.5775 10.09898,-2.834702 11.40178,0.5713 16.91708,5.1102 z"
         style="fill:#ffaaaa;stroke:none" />
      <path
         inkscape:export-ydpi="300"
         inkscape:export-xdpi="300"
         sodipodi:nodetypes="ccccc"
         inkscape:connector-curvature="0"
         id="rect4448-7"
         d="m 770.44809,157.1463 29.51826,-50.3246 c 3.8313,0.3906 9.0718,6.0108 16.2121,18.6818 l -60.19048,44.9119 z"
         style="fill:#ffaaaa;stroke:none" />
      <path
         inkscape:export-ydpi="300"
         inkscape:export-xdpi="300"
         sodipodi:nodetypes="sssss"
         inkscape:connector-curvature="0"
         id="path4221-2-0-1-210"
         d="m 786.99653,147.1164 c -10.64036,7.7201 -8.82941,6.6219 -18.09634,13.856 -11.18975,8.735 -5.70143,4.8334 -21.18729,15.7974 -7.042,4.9859 -8.61899,-30.967 0.099,-38.8541 8.71796,-7.887 46.16853,4.1336 39.18467,9.2007 z"
         style="fill:#ffaaaa;stroke:none" />
      <path
         inkscape:export-ydpi="300"
         inkscape:export-xdpi="300"
         sodipodi:nodetypes="sssss"
         inkscape:connector-curvature="0"
         id="path4221-2-0-5-2"
         d="m 855.42845,-2.0291024 c 6.5645,2.81589996 7.152,13.8090004 2.6038,23.0186004 -4.5482,9.2097 -3.7902,22.1192 -10.3546,19.3033 -6.5644,-2.8159 -18.6392,-37.0688004 -9.9204,-42.4987004 8.9038,-5.545 11.1068,-2.6391 17.6712,0.1768 z"
         style="fill:#ffaaaa;stroke:none" />
      <path
         inkscape:export-ydpi="300"
         inkscape:export-xdpi="300"
         sodipodi:nodetypes="ccccc"
         inkscape:connector-curvature="0"
         id="rect4448-4-8"
         d="m 838.54595,54.873498 14.2718,-56.5704004 c 3.7876,-0.6962 10.3904,3.2349 20.7885,13.4043004 l -45.2341,59.9487 z"
         style="fill:#ffaaaa;stroke:none" />
      <path
         inkscape:export-ydpi="300"
         inkscape:export-xdpi="300"
         sodipodi:nodetypes="sssss"
         inkscape:connector-curvature="0"
         id="path4221-2-0-1-3-1"
         d="m 851.63045,40.616998 c -8.0578,10.387 -6.6261,8.8263 -13.501,18.3627 -8.3015,11.5151 -4.1228,6.2346 -15.9259,21.0909 -5.3673,6.7559 -16.9329,-27.3226 -10.7675,-37.3324 6.1653,-10.0098 45.4831,-8.9387 40.1944,-2.1212 z"
         style="fill:#ffaaaa;stroke:none" />
      <path
         inkscape:export-ydpi="300"
         inkscape:export-xdpi="300"
         sodipodi:nodetypes="sssss"
         inkscape:connector-curvature="0"
         id="path4221-2-0-7-70"
         d="m 313.83271,189.6669 c -3.93306,5.9626 -14.85667,4.5957 -23.11614,-1.5104 -8.25949,-6.106 -21.09949,-7.6442 -17.16644,-13.6067 3.93295,-5.9626 39.78191,-11.7859 43.58338,-2.244 3.88209,9.7445 0.63224,11.3987 -3.30077,17.3611 z"
         style="fill:#ffaaaa;stroke:none" />
      <path
         inkscape:export-ydpi="300"
         inkscape:export-xdpi="300"
         sodipodi:nodetypes="ccscccc"
         inkscape:connector-curvature="0"
         id="rect4153-9-0"
         d="m 659.56133,-298.7483 81.44692,-75.7601 c 90.9835,125.2626 114.1618,137.6531 131.8468,127.1933 17.6849,-10.4598 -46.323,-105.2691 15.6275,-182.048 l 42.3226,20.9476 c -85.7671,-16.8174 63.5859,154.4192 4.4901,233.1375 -49.1383,62.6497 -181.92746,7.7911 -275.73392,-123.4703 z"
         style="fill:url(#radialGradient4568-11);fill-opacity:1;stroke:none" />
      <path
         inkscape:export-ydpi="300"
         inkscape:export-xdpi="300"
         sodipodi:nodetypes="ccscccc"
         inkscape:connector-curvature="0"
         id="rect4153-9-2-8"
         d="m 658.69373,-297.8807 81.44692,-75.7601 c 90.9835,125.2626 114.1618,137.6531 131.8468,127.1933 17.6849,-10.4598 -46.323,-105.2691 15.6275,-182.048 l 42.3226,20.9476 c -85.7671,-16.8174 63.5859,154.4192 4.4901,233.1375 -49.1383,62.6497 -181.92746,7.7911 -275.73392,-123.4703 z"
         style="fill:url(#radialGradient4568-8-0);fill-opacity:1;stroke:none" />
      <path
         inkscape:export-ydpi="300"
         inkscape:export-xdpi="300"
         sodipodi:nodetypes="ccscccc"
         inkscape:connector-curvature="0"
         id="rect4153-9-3-71"
         d="m 658.69373,-298.7483 81.44692,-75.7601 c 90.9835,125.2626 114.1618,137.6531 131.8468,127.1933 17.6849,-10.4598 -46.323,-105.2691 15.6275,-182.048 l 42.3226,20.9476 c -85.7671,-16.8174 63.5859,154.4192 4.4901,233.1375 -49.1383,62.6497 -181.92746,7.7911 -275.73392,-123.4703 z"
         style="opacity:0;fill:url(#radialGradient4568-1-3);fill-opacity:1;stroke:none" />
      <path
         inkscape:export-ydpi="300"
         inkscape:export-xdpi="300"
         inkscape:connector-curvature="0"
         d="m 760.35798,-346.6005 c -2.61171,0.08 -5.18984,0.4117 -7.72878,1.0189 -3.74902,0.9747 -7.21442,2.537 -10.48555,4.5841 -4.13598,2.7252 -7.6137,6.2482 -10.79075,10.013 -1.26534,1.5427 -2.43922,3.1416 -3.47886,4.8432 -0.39213,0.8579 -0.76605,1.739 -1.00222,2.6552 -0.0532,0.1561 -0.10644,0.3122 -0.15967,0.4683 0,0 -6.08143,-0.2153 -6.08143,-0.2153 l 0,0 c 0.0535,-0.1328 0.10701,-0.2657 0.16052,-0.3985 0.22805,-0.9858 0.63562,-1.9089 1.0198,-2.8402 1.05605,-1.7577 2.32838,-3.3529 3.63514,-4.9313 3.25135,-3.7543 6.71276,-7.3591 10.83139,-10.1815 1.55739,-1.0368 1.87547,-1.3218 3.46995,-2.1279 2.22972,-1.1274 4.61818,-1.8549 6.97618,-2.6537 2.50749,-0.6814 5.04576,-1.0146 7.63721,-1.1842 0,0 5.99707,0.9499 5.99707,0.9499 z"
         id="path4696-9"
         style="opacity:1;fill:#999999;fill-opacity:1;stroke:none" />
      <path
         inkscape:export-ydpi="300"
         inkscape:export-xdpi="300"
         inkscape:connector-curvature="0"
         d="m 773.16876,-329.9968 c -3.17902,0.6129 -6.2031,1.8708 -9.15986,3.1589 -3.66097,1.6303 -7.12499,3.6487 -10.5363,5.7409 -2.69547,1.5898 -5.28232,3.2959 -7.53514,5.4751 -1.67365,1.7784 -3.10325,3.7731 -4.40462,5.8353 -0.92952,1.2947 -1.46457,2.7818 -2.05882,4.2423 -0.0599,0.1712 -0.11972,0.3424 -0.17958,0.5136 0,0 -6.07124,-0.2004 -6.07124,-0.2004 l 0,0 c 0.0614,-0.183 0.1229,-0.3661 0.18435,-0.5492 0.61541,-1.4924 1.17163,-3.0168 2.11869,-4.3435 1.31478,-2.1026 2.77935,-4.1226 4.42709,-5.9769 2.27659,-2.2341 4.86505,-4.0078 7.62671,-5.5997 3.42078,-2.1 6.8788,-4.1545 10.53692,-5.8204 2.93517,-1.3211 5.93936,-2.5235 9.05282,-3.3583 0,0 5.99898,0.8823 5.99898,0.8823 z"
         id="path4698-2"
         style="opacity:1;fill:#999999;fill-opacity:1;stroke:none" />
      <path
         inkscape:export-ydpi="300"
         inkscape:export-xdpi="300"
         inkscape:connector-curvature="0"
         d="m 754.74868,-298.6749 c 1.90999,-2.0945 3.80799,-4.1815 5.85999,-6.1401 1.52567,-1.3957 3.03983,-2.8171 4.69563,-4.0596 0.95607,-0.6631 1.99952,-1.1682 3.02033,-1.7174 0.89389,-0.3793 1.80151,-0.7533 2.73326,-1.0328 1.1145,-0.2817 2.26921,-0.3098 3.4121,-0.3379 3.39006,-0.03 6.78039,-0.014 10.17057,-0.01 1.26721,0 2.53441,0 3.80162,0 0.80683,0 1.59981,-0.05 2.39165,0.1136 0,0 -6.0139,0.8693 -6.0139,0.8693 l 0,0 c -0.78998,-0.05 -1.58028,-0.032 -2.37164,-0.034 -1.26531,-7e-4 -2.53061,0 -3.79591,0 -2.11078,0 -5.72838,-5e-4 3.91758,0 0.4755,-1e-4 -1.89474,0 -1.42651,2e-4 -0.22543,10e-4 -0.45086,0 -0.67629,0 -1.12867,0.012 -2.26408,0.018 -3.38105,0.1997 -0.94617,0.199 -1.79303,0.622 -2.71476,0.8955 -1.0322,0.5142 -2.04505,1.0486 -3.04445,1.6275 -1.70822,1.1643 -3.20261,2.6123 -4.75201,3.973 -2.06046,1.9221 -4.00092,3.9382 -5.77692,6.1292 0,0 -6.04929,-0.4761 -6.04929,-0.4761 z"
         id="path4700-4"
         style="opacity:1;fill:#999999;fill-opacity:1;stroke:none" />
      <path
         inkscape:export-ydpi="300"
         inkscape:export-xdpi="300"
         sodipodi:nodetypes="cccccccccccccc"
         inkscape:connector-curvature="0"
         d="m 769.47235,-290.6996 c 2.383,-2.0045 4.95724,-3.7696 7.58809,-5.4299 1.88926,-1.1506 3.80615,-2.2222 5.81208,-3.1508 0.98112,-0.5646 2.09537,-0.743 3.15885,-1.0755 0.86559,-0.4399 1.74491,-0.7777 2.68336,-1.029 0.75578,-0.2517 3.67946,-2.8709 4.46295,-3.0058 l 3.86137,3.3145 0,0 c -0.7766,0.098 -1.5523,0.2145 -2.2975,0.4647 -0.9115,0.3088 -1.89383,0.3931 -2.67608,1.0209 -1.05946,0.3454 -2.16354,0.5033 -3.17543,0.9914 -1.99237,0.9707 -4.01841,1.858 -5.88839,3.0736 -2.60384,1.6048 -5.15249,3.3091 -7.48,5.302 z"
         id="path4702-8"
         style="opacity:1;fill:#999999;fill-opacity:1;stroke:none" />
      <path
         inkscape:export-ydpi="300"
         inkscape:export-xdpi="300"
         inkscape:connector-curvature="0"
         d="m 772.69645,-274.7437 c 2.89184,-2.045 5.89224,-3.878 9.03379,-5.5111 3.01767,-1.502 6.07043,-2.9759 9.26581,-4.0644 1.45004,-0.4161 2.89314,-0.8495 4.3839,-1.0919 1.1079,-0.051 2.1794,-0.2842 3.2616,-0.5027 1.0766,-0.2159 2.1786,-0.1788 3.2541,-0.3914 1.0751,-0.2776 2.1766,-0.392 3.2816,-0.459 0.1987,-0.01 0.3974,-0.016 0.5962,-0.024 0,0 5.9991,0.9309 5.9991,0.9309 l 0,0 c -0.1978,0 -0.3957,0.01 -0.5935,0.014 -1.0929,0.04 -2.1921,0.095 -3.2588,0.3566 -1.0783,0.2711 -2.1521,0.3155 -3.2587,0.4155 -1.0975,0.1793 -2.1521,0.5487 -3.2764,0.5263 -1.5104,0.1766 -2.9543,0.5964 -4.4218,0.9812 -3.24789,0.9898 -6.32991,2.4609 -9.37198,3.9522 -3.09743,1.6006 -6.10011,3.3428 -8.86542,5.4805 0,0 -6.0295,-0.6124 -6.0295,-0.6124 z"
         id="path4704-4"
         style="opacity:1;fill:#999999;fill-opacity:1;stroke:none" />
      <path
         inkscape:export-ydpi="300"
         inkscape:export-xdpi="300"
         inkscape:connector-curvature="0"
         d="m 792.17135,-261.8657 c 2.14929,-1.9418 4.3511,-3.8236 6.4574,-5.8122 1.8619,-1.8688 4.045,-3.3119 6.3236,-4.6104 1.3288,-0.6953 2.5823,-1.5087 4.0219,-1.9558 1.1564,-0.3798 2.3333,-0.6457 3.5407,-0.7919 1.2196,-0.1201 2.4465,-0.1235 3.6708,-0.1293 0,0 5.9945,0.948 5.9945,0.948 l 0,0 c -1.2205,2e-4 -2.4423,-0.01 -3.661,0.07 -1.2003,0.097 -2.3927,0.2699 -3.5261,0.6982 -1.4838,0.3189 -2.7242,1.1032 -4.0588,1.7958 -2.271,1.2628 -4.5002,2.5994 -6.3462,4.4615 -2.0901,1.9706 -4.2764,3.8318 -6.3675,5.8018 0,0 -6.0493,-0.476 -6.0493,-0.476 z"
         id="path4706-2"
         style="opacity:1;fill:#999999;fill-opacity:1;stroke:none" />
      <path
         inkscape:export-ydpi="300"
         inkscape:export-xdpi="300"
         sodipodi:nodetypes="cccccccccccc"
         inkscape:connector-curvature="0"
         d="m 875.89525,-251.9061 c 2.8193,1.7301 8.5427,5.6891 11.5936,6.9652 2.7503,1.0987 5.428,2.3766 8.231,3.337 1.5369,0.4349 3.0347,0.9927 4.5404,1.5214 0.7763,0.2191 0.3869,0.1233 1.1682,0.288 l -6.0164,0.8074 0,0 c -0.7853,-0.2133 -0.3941,-0.096 -1.1732,-0.3528 -1.4809,-0.5402 -2.9761,-1.0431 -4.4758,-1.528 -2.7676,-1.0192 -5.4458,-2.2628 -8.1737,-3.3818 -3.082,-1.3504 -6.1023,-2.8691 -8.9731,-4.6266 z"
         id="path4716-9"
         style="opacity:1;fill:#999999;fill-opacity:1;stroke:none" />
      <path
         inkscape:export-ydpi="300"
         inkscape:export-xdpi="300"
         inkscape:connector-curvature="0"
         d="m 878.71775,-262.6688 c 2.9013,1.1021 5.9886,1.5102 9.0534,1.8608 2.5162,0.2728 5.0457,0.3631 7.5748,0.3895 2.1443,0 6.0932,0.01 -3.7276,-4e-4 -0.2181,-2e-4 0.4361,-10e-4 0.6542,0 0.4171,0 0.8343,0 1.2514,0 0.6092,0 1.2184,0 1.8276,-0.01 0,0 5.9952,0.9483 5.9952,0.9483 l 0,0 c -0.6096,10e-4 -1.2192,0 -1.8288,0 -3.3787,0.013 -6.7577,0.033 -10.1362,0 -2.5011,-0.05 -5.0016,-0.1697 -7.4872,-0.466 -3.115,-0.3907 -6.2101,-0.9084 -9.1934,-1.9173 0,0 6.0166,-0.8024 6.0166,-0.8024 z"
         id="path4718-5"
         style="opacity:1;fill:#999999;fill-opacity:1;stroke:none" />
      <path
         inkscape:export-ydpi="300"
         inkscape:export-xdpi="300"
         inkscape:connector-curvature="0"
         d="m 876.25405,-276.9995 c 1.9223,0.01 3.8446,0 5.7669,0 3.2827,0 -2.6827,0 -4.3444,-0.046 -0.2468,-0.01 0.4918,-0.049 0.7354,-0.09 0.6154,-0.1022 1.2025,-0.31 1.7946,-0.4989 0.1875,-0.067 0.375,-0.1338 0.5625,-0.2007 0,0 6.0263,0.7236 6.0263,0.7236 l 0,0 c -0.189,0.082 -0.378,0.1634 -0.567,0.245 -0.6047,0.1844 -1.2094,0.4519 -1.8236,0.5965 -2.711,0.6385 -5.5693,0.1558 -8.3434,0.2139 -1.9348,-7e-4 -3.8696,0 -5.8044,0 0,0 5.9971,-0.9498 5.9971,-0.9498 z"
         id="path4720-9"
         style="opacity:1;fill:#999999;fill-opacity:1;stroke:none" />
      <path
         inkscape:export-ydpi="300"
         inkscape:export-xdpi="300"
         inkscape:connector-curvature="0"
         d="m 873.25615,-292.336 c 2.0462,-0.1619 6.41,0.5059 -2.5198,-0.051 -0.4428,-0.028 0.8836,-0.086 1.3224,-0.1523 1.2454,-0.1872 1.6088,-0.3073 2.8371,-0.6102 2.2187,-0.6548 4.3817,-1.5127 6.4764,-2.4932 0.7378,-0.4089 0.382,-0.2018 1.0686,-0.6193 0,0 6.0393,0.622 6.0393,0.622 l 0,0 c -0.7097,0.4281 -0.3433,0.2012 -1.0979,0.6829 -2.1354,0.9849 -4.3197,1.8769 -6.5617,2.5927 -1.327,0.3598 -2.7677,0.8347 -4.1553,0.8816 -3.1324,0.1058 -6.2654,0.085 -9.3984,0.096 0,0 5.9893,-0.9486 5.9893,-0.9486 z"
         id="path4722-91"
         style="opacity:1;fill:#999999;fill-opacity:1;stroke:none" />
      <path
         inkscape:export-ydpi="300"
         inkscape:export-xdpi="300"
         inkscape:connector-curvature="0"
         d="m 867.05715,-316.1518 c 2.6948,0.2745 5.4041,0.3691 8.1104,0.4493 1.9245,0.051 3.8498,0.059 5.775,0.059 3.015,-10e-5 -2.4833,1e-4 -4.4555,-4e-4 -0.2462,-1e-4 0.4923,-5e-4 0.7385,-7e-4 0.6897,-8e-4 1.3794,0 2.069,0 0.8588,-0.054 0.4318,-0.011 1.2808,-0.1285 0,0 6.0051,0.8541 6.0051,0.8541 l 0,0 c -0.8588,0.1543 -0.4264,0.08 -1.2974,0.2223 -3.4405,0 -6.8811,0.01 -10.3217,0 -1.9063,-0.01 -3.8127,-0.027 -5.7182,-0.087 -2.7344,-0.096 -5.4718,-0.2042 -8.1939,-0.4928 0,0 6.0079,-0.8751 6.0079,-0.8751 z"
         id="path4724-3"
         style="opacity:1;fill:#999999;fill-opacity:1;stroke:none" />
      <path
         inkscape:export-ydpi="300"
         inkscape:export-xdpi="300"
         sodipodi:nodetypes="cccccccc"
         inkscape:connector-curvature="0"
         d="m 860.31635,-342.0075 c 5.6125,1.7679 16.313,5.0657 22.0498,6.3568 3.3449,0.8144 6.702,1.5749 10.0799,2.2392 l -5.8786,0.8104 0,0 c -3.3115,-0.6977 -6.6041,-1.4778 -9.8923,-2.2778 -5.8416,-1.3323 -11.7463,-2.4751 -17.4739,-4.2478 z"
         id="path4726-9"
         style="opacity:1;fill:#999999;fill-opacity:1;stroke:none" />
      <path
         inkscape:export-ydpi="300"
         inkscape:export-xdpi="300"
         inkscape:connector-curvature="0"
         d="m 866.44375,-364.6173 c 1.0456,0.1166 2.0937,0.2108 3.1431,0.2877 0.3544,0.026 1.4193,0.068 1.0639,0.071 -7.4031,0.073 -6.2468,0.032 -4.0828,-0.077 1.4521,-0.042 2.8513,-0.3217 4.2204,-0.7909 1.3856,-0.4376 2.7608,-0.8926 4.1877,-1.175 0.1906,-0.043 0.3811,-0.087 0.5717,-0.1306 0,0 6.0187,0.7901 6.0187,0.7901 l 0,0 c -0.1958,0.062 -0.3916,0.123 -0.5874,0.1846 -1.4322,0.2197 -2.794,0.6494 -4.1739,1.0775 -1.3889,0.4949 -2.7723,0.9329 -4.2671,0.9496 -4.0363,0.3274 -8.0885,0.1548 -12.1023,-0.3115 0,0 6.008,-0.8751 6.008,-0.8751 z"
         id="path4728-32"
         style="opacity:1;fill:#999999;fill-opacity:1;stroke:none" />
      <path
         inkscape:export-ydpi="300"
         inkscape:export-xdpi="300"
         inkscape:connector-curvature="0"
         d="m 869.45265,-389.4312 c 1.7442,1.2405 3.7396,1.9663 5.7302,2.6907 1.8072,0.6718 3.7125,0.9663 5.6255,1.1124 0.9593,0.045 0.4862,0.028 1.4193,0.052 0,0 -5.9897,0.9263 -5.9897,0.9263 l 0,0 c -0.9302,-0.044 -0.4588,-0.016 -1.4143,-0.086 -1.9129,-0.2039 -3.8048,-0.5734 -5.6048,-1.2728 -2.026,-0.7426 -3.9888,-1.6019 -5.804,-2.785 0,0 6.0378,-0.6373 6.0378,-0.6373 z"
         id="path4730-5"
         style="opacity:1;fill:#999999;fill-opacity:1;stroke:none" />
      <path
         inkscape:export-ydpi="300"
         inkscape:export-xdpi="300"
         inkscape:connector-curvature="0"
         d="m 878.65595,-407.1181 c 1.6558,1.4384 3.5985,2.3959 5.561,3.325 1.0559,0.437 0.5336,0.2425 1.5649,0.5889 0,0 -6.0038,0.7385 -6.0038,0.7385 l 0,0 c -1.0237,-0.3962 -0.5051,-0.1807 -1.554,-0.6503 -1.9835,-0.9569 -3.8691,-2.0648 -5.6078,-3.4263 0,0 6.0397,-0.5758 6.0397,-0.5758 z"
         id="path4732-6"
         style="opacity:1;fill:#999999;fill-opacity:1;stroke:none" />
      <path
         inkscape:export-ydpi="300"
         inkscape:export-xdpi="300"
         inkscape:connector-curvature="0"
         d="m 884.79075,-418.1609 c 1.6344,0.9877 3.0426,2.2793 4.7574,3.1316 1.0797,0.7963 2.2889,1.0316 3.59,1.1612 0.22,0.014 0.44,0.027 0.66,0.041 0,0 -5.9965,0.8995 -5.9965,0.8995 l 0,0 c -0.2213,-0.023 -0.4426,-0.045 -0.6639,-0.068 -1.3137,-0.2052 -2.4973,-0.6239 -3.6033,-1.3816 -1.6697,-0.9571 -3.1254,-2.2278 -4.7833,-3.2075 0,0 6.0396,-0.5758 6.0396,-0.5758 z"
         id="path4734-6"
         style="opacity:1;fill:#999999;fill-opacity:1;stroke:none" />
      <path
         inkscape:export-ydpi="300"
         inkscape:export-xdpi="300"
         sodipodi:nodetypes="cccccccccccccccccc"
         inkscape:connector-curvature="0"
         d="m 832.22755,-261.8409 c -1.726,0.8277 -3.4191,1.7193 -5.1561,2.5269 -1.4046,0.6724 -2.7332,1.4997 -4.0493,2.3305 -1.2923,0.7592 -2.5688,1.5485 -3.7678,2.4491 -1.3041,1.1589 -2.5508,2.3795 -3.7343,3.661 -0.8356,0.9031 -1.421,1.992 -2.1021,3.0105 -0.478,0.9181 -0.9374,1.8627 -1.2295,2.8591 -0.059,0.1613 -0.1176,0.3226 -0.1764,0.4839 l -6.0784,-0.2269 0,0 0.1782,-0.4222 c 0.2835,-1.067 0.7781,-2.0492 1.2434,-3.0452 0.6751,-1.0569 1.326,-2.1398 2.1245,-3.1052 1.1809,-1.3222 2.5004,-2.5053 3.7442,-3.7666 1.1857,-0.9445 2.4619,-1.7663 3.785,-2.5039 1.3281,-0.8484 2.6596,-1.6978 4.0613,-2.4149 1.7477,-0.7679 5.5981,-3.4641 7.2709,-4.3832 z"
         id="path4736-0"
         style="opacity:1;fill:#999999;fill-opacity:1;stroke:none" />
      <path
         inkscape:export-ydpi="300"
         inkscape:export-xdpi="300"
         sodipodi:nodetypes="ccccccccccc"
         inkscape:connector-curvature="0"
         d="m 843.03725,-252.4853 c -0.4003,2.0572 -0.9451,4.0833 -1.3273,6.1441 -0.2854,1.6747 -0.3407,3.375 -0.3694,5.07 -0.022,1.4707 -0.01,2.9418 0,4.4126 -0.099,1.1217 0.083,2.1108 0.5584,3.1132 0.3666,1.0083 3.1045,10.9488 3.3623,11.992 -4.3291,-5.3159 -8.712,-6.0453 -9.4417,-11.7309 -0.8584,-4.3503 -0.8,-8.9104 -0.1367,-12.9668 0.3788,-2.0675 1.9042,-7.7664 2.2163,-9.8477 l 5.1406,3.8135 z"
         id="path4738-80"
         style="opacity:1;fill:#999999;fill-opacity:1;stroke:none" />
      <path
         inkscape:export-ydpi="300"
         inkscape:export-xdpi="300"
         sodipodi:nodetypes="cccccccccc"
         inkscape:connector-curvature="0"
         d="m 859.59185,-244.4173 c 0.3222,1.908 0.8565,3.7583 1.4708,5.589 1.3888,3.549 2.6986,7.0338 4.4526,10.1168 0.5349,1.1487 1.3169,2.1267 2.1041,3.1027 0.5877,0.8134 1.1141,1.6564 1.6056,2.5316 0.3929,0.8308 8.8,5.6272 9.2218,6.4449 -15.6869,-2.9776 -17.6762,-8.0289 -21.2329,-16.5551 -0.7461,-1.8091 -1.5415,-3.5993 -2.188,-5.4482 -0.6022,-1.852 -1.7051,-6.1831 -2.1155,-8.0869 z"
         id="path4740-9"
         style="opacity:1;fill:#999999;fill-opacity:1;stroke:none" />
      <path
         inkscape:export-ydpi="300"
         inkscape:export-xdpi="300"
         sodipodi:nodetypes="cccccccccccccccccc"
         inkscape:connector-curvature="0"
         d="m 871.08565,-246.4143 c 1.8096,2.5618 3.6244,7.2845 5.5195,9.7882 1.3366,1.799 2.8217,3.474 4.254,5.1925 0.7266,0.888 1.5857,1.6539 2.3685,2.4888 0.782,0.5439 1.5296,1.1393 2.3138,1.6814 0.814,0.4911 1.6815,0.9416 2.4456,1.5138 0.799,0.6152 1.6214,1.1512 2.5437,1.5734 0.8869,0.2709 1.7756,0.4667 2.6592,0.7514 l -6.0303,0.7663 0,0 c -0.8913,-0.2777 -1.8262,-0.4225 -2.6676,-0.8444 -0.9038,-0.4824 -1.7286,-1.0577 -2.5561,-1.659 -0.817,-0.5118 -1.6477,-1.0016 -2.454,-1.5303 -0.772,-0.594 -1.6138,-1.1035 -2.313,-1.7853 -0.8171,-0.8145 -1.6252,-1.6425 -2.3571,-2.5353 -1.4237,-1.7083 -2.7941,-3.4569 -4.1342,-5.2319 -1.8953,-2.5613 -3.7892,-5.1277 -5.6551,-7.7073 z"
         id="path4742-9"
         style="opacity:1;fill:#999999;fill-opacity:1;stroke:none" />
      <path
         inkscape:radius="-0.65452063"
         transform="matrix(0.99143,0.13064,-0.13064,0.99143,370.74732,-919.67269)"
         inkscape:original="M 323.84375 561.8125 C 318.21632 564.85696 316.30524 572.41007 323.5625 578.09375 L 324.28125 578 C 322.86413 576.58084 322.0625 574.36055 322.0625 570.90625 C 322.0625 567.68993 322.69166 564.61335 323.84375 561.8125 z "
         inkscape:transform-center-y="5.9355221"
         inkscape:transform-center-x="1.7323728"
         d="m 322.68164,563.41406 c -1.78892,1.44852 -2.95752,3.42757 -3.1582,5.60938 -0.20325,2.20961 0.60632,4.62843 2.73047,6.91992 -0.53683,-1.35212 -0.84571,-2.98808 -0.84571,-5.03711 0,-2.62497 0.51085,-5.11574 1.27344,-7.49219 z"
         sodipodi:type="inkscape:offset"
         style="fill:url(#linearGradient31209)"
         id="path8838-4" />
    </g>
  </g>
</svg>
