<?xml version="1.0" encoding="UTF-8"?>
<!DOCTYPE svg PUBLIC "-//W3C//DTD SVG 1.1//EN" "http://www.w3.org/Graphics/SVG/1.1/DTD/svg11.dtd">
<svg version="1.1" xmlns="http://www.w3.org/2000/svg" xmlns:xlink="http://www.w3.org/1999/xlink" x="0" y="0" width="825" height="962" viewBox="0, 0, 825, 962">
  <defs>
    <radialGradient id="Gradient_1" gradientUnits="userSpaceOnUse" cx="600.347" cy="604.811" r="28.976">
      <stop offset="0" stop-color="#F7AEB4"/>
      <stop offset="1" stop-color="#F60012"/>
    </radialGradient>
    <radialGradient id="Gradient_2" gradientUnits="userSpaceOnUse" cx="512.974" cy="623.402" r="31.005">
      <stop offset="0" stop-color="#C0E7C7"/>
      <stop offset="1" stop-color="#229614"/>
    </radialGradient>
    <radialGradient id="Gradient_3" gradientUnits="userSpaceOnUse" cx="410.811" cy="643.625" r="34.247">
      <stop offset="0" stop-color="#B1DEF4"/>
      <stop offset="1" stop-color="#10A7CE"/>
    </radialGradient>
    <radialGradient id="Gradient_4" gradientUnits="userSpaceOnUse" cx="420.208" cy="346.897" r="21.1">
      <stop offset="0" stop-color="#B1DEF4"/>
      <stop offset="1" stop-color="#10A7CE"/>
    </radialGradient>
    <radialGradient id="Gradient_5" gradientUnits="userSpaceOnUse" cx="385.794" cy="98.971" r="165.234">
      <stop offset="0" stop-color="#B1DEF4"/>
      <stop offset="1" stop-color="#10A7CE"/>
    </radialGradient>
    <radialGradient id="Gradient_6" gradientUnits="userSpaceOnUse" cx="154.649" cy="435.464" r="21.1">
      <stop offset="0" stop-color="#F7B6D3"/>
      <stop offset="1" stop-color="#FF5D73"/>
    </radialGradient>
    <radialGradient id="Gradient_7" gradientUnits="userSpaceOnUse" cx="120.117" cy="187.538" r="165.234">
      <stop offset="0" stop-color="#F7B6D3"/>
      <stop offset="1" stop-color="#FF5D73"/>
    </radialGradient>
    <radialGradient id="Gradient_8" gradientUnits="userSpaceOnUse" cx="660.417" cy="435.464" r="21.1">
      <stop offset="0" stop-color="#C0E7C7"/>
      <stop offset="1" stop-color="#229614"/>
    </radialGradient>
    <radialGradient id="Gradient_9" gradientUnits="userSpaceOnUse" cx="625.885" cy="187.538" r="165.234">
      <stop offset="0" stop-color="#C0E7C7"/>
      <stop offset="1" stop-color="#229614"/>
    </radialGradient>
    <radialGradient id="Gradient_10" gradientUnits="userSpaceOnUse" cx="283.389" cy="577.779" r="21.1">
      <stop offset="0" stop-color="#F7AEB4"/>
      <stop offset="1" stop-color="#F60012"/>
    </radialGradient>
    <radialGradient id="Gradient_11" gradientUnits="userSpaceOnUse" cx="213.711" cy="337.353" r="165.234">
      <stop offset="0" stop-color="#F7AEB4"/>
      <stop offset="1" stop-color="#F60012"/>
    </radialGradient>
    <linearGradient id="Gradient_12" gradientUnits="userSpaceOnUse" x1="395.946" y1="909.607" x2="398.861" y2="889.309">
      <stop offset="0" stop-color="#FF1F19"/>
      <stop offset="1" stop-color="#B7282C"/>
    </linearGradient>
    <linearGradient id="Gradient_13" gradientUnits="userSpaceOnUse" x1="364.412" y1="920.811" x2="381.882" y2="898.882">
      <stop offset="0" stop-color="#FF1F19"/>
      <stop offset="1" stop-color="#B7282C"/>
    </linearGradient>
    <linearGradient id="Gradient_14" gradientUnits="userSpaceOnUse" x1="400.103" y1="884.014" x2="414.327" y2="886.432">
      <stop offset="0" stop-color="#FF1F19"/>
      <stop offset="1" stop-color="#B7282C"/>
    </linearGradient>
    <linearGradient id="Gradient_15" gradientUnits="userSpaceOnUse" x1="401.529" y1="-883.029" x2="418.355" y2="-884.721" gradientTransform="matrix(1, 0, 0, -1, 0, 0)">
      <stop offset="0" stop-color="#AF2525"/>
      <stop offset="1" stop-color="#90282C"/>
    </linearGradient>
    <clipPath id="Clip_1">
      <path d="M408.16,886.732 C410.789,886.892 413.259,886.463 415.734,885.669 C419.254,884.373 418.721,883.954 417.38,883.852 L417.382,883.851 L417.588,881.562 C414.845,881.904 412.082,881.48 409.384,881.001 L409.383,881.001 C411.136,881.596 413.315,882.125 414.171,883.939 C414.154,883.941 414.145,883.942 414.145,883.942 C414.145,883.942 411.031,887.158 401.276,885.538 C403.496,886.317 405.839,886.494 408.16,886.732 z"/>
    </clipPath>
    <linearGradient id="Gradient_16" gradientUnits="userSpaceOnUse" x1="406.53" y1="880.516" x2="409.403" y2="880.805">
      <stop offset="0" stop-color="#AF2525"/>
      <stop offset="1" stop-color="#90282C"/>
    </linearGradient>
    <linearGradient id="Gradient_17" gradientUnits="userSpaceOnUse" x1="452.2" y1="905.456" x2="444.604" y2="892.921">
      <stop offset="0" stop-color="#FF1F19"/>
      <stop offset="1" stop-color="#B7282C"/>
    </linearGradient>
    <linearGradient id="Gradient_18" gradientUnits="userSpaceOnUse" x1="462.254" y1="893.729" x2="456.459" y2="887.924">
      <stop offset="0" stop-color="#FF1F19"/>
      <stop offset="1" stop-color="#B7282C"/>
    </linearGradient>
    <linearGradient id="Gradient_19" gradientUnits="userSpaceOnUse" x1="446.135" y1="882.916" x2="429.775" y2="883.616">
      <stop offset="0" stop-color="#FF1F19"/>
      <stop offset="1" stop-color="#B7282C"/>
    </linearGradient>
    <linearGradient id="Gradient_20" gradientUnits="userSpaceOnUse" x1="443.248" y1="-882.928" x2="426.452" y2="-884.649" gradientTransform="matrix(1, 0, 0, -1, 0, 0)">
      <stop offset="0" stop-color="#AF2525"/>
      <stop offset="1" stop-color="#90282C"/>
    </linearGradient>
    <clipPath id="Clip_2">
      <path d="M436.635,886.647 C438.954,886.49 441.292,886.198 443.508,885.463 C439.516,885.981 434.051,886.662 430.631,883.908 C430.631,883.908 430.619,883.916 430.602,883.915 C430.98,882.551 433.377,881.57 435.383,880.972 C430.181,882.039 427.201,881.482 427.201,881.482 L427.433,883.704 L427.436,883.705 C426.085,883.837 425.54,884.298 429.062,885.587 C431.503,886.57 434.05,886.547 436.635,886.647 z"/>
    </clipPath>
    <linearGradient id="Gradient_21" gradientUnits="userSpaceOnUse" x1="438.234" y1="880.485" x2="435.361" y2="880.78">
      <stop offset="0" stop-color="#AF2525"/>
      <stop offset="1" stop-color="#90282C"/>
    </linearGradient>
    <radialGradient id="Gradient_22" gradientUnits="userSpaceOnUse" cx="421.086" cy="879.306" r="5.828">
      <stop offset="0" stop-color="#E61F19"/>
      <stop offset="0.988" stop-color="#9E282C"/>
      <stop offset="1" stop-color="#9E282C"/>
    </radialGradient>
    <radialGradient id="Gradient_23" gradientUnits="userSpaceOnUse" cx="146.832" cy="-316.119" r="53.614" gradientTransform="matrix(1, 0, 0, -1, 0, 0)">
      <stop offset="0" stop-color="#FFFFFF"/>
      <stop offset="1" stop-color="#FFFFFF" stop-opacity="0.001"/>
    </radialGradient>
    <clipPath id="Clip_3">
      <path d="M126.742,409.71 C126.742,409.71 156.675,314.85 187.585,299.29 C207.51,289.259 183.357,268.904 160.576,285.237 C153.879,290.381 148.23,296.923 143.52,303.904 C129.162,325.183 123.96,349.914 123.43,375.171 L123.43,375.18 C123.362,386.779 124.753,398.304 126.742,409.71 z"/>
    </clipPath>
    <radialGradient id="Gradient_24" gradientUnits="userSpaceOnUse" cx="55.175" cy="-176.464" r="53.614" gradientTransform="matrix(1, 0, 0, -1, 0, 0)">
      <stop offset="0" stop-color="#FFFFFF"/>
      <stop offset="1" stop-color="#FFFFFF" stop-opacity="0.001"/>
    </radialGradient>
    <clipPath id="Clip_4">
      <path d="M30.738,269.015 C30.738,269.015 65.067,175.656 96.67,161.556 C117.041,152.466 93.865,131.006 70.346,146.258 C70.346,146.258 18.459,178.982 30.738,269.015 z"/>
    </clipPath>
    <radialGradient id="Gradient_25" gradientUnits="userSpaceOnUse" cx="565.531" cy="-165.113" r="53.614" gradientTransform="matrix(1, 0, 0, -1, 0, 0)">
      <stop offset="0" stop-color="#FFFFFF"/>
      <stop offset="1" stop-color="#FFFFFF" stop-opacity="0.001"/>
    </radialGradient>
    <clipPath id="Clip_5">
      <path d="M537.488,256.637 C537.488,256.637 575.446,164.694 607.577,151.842 C628.289,143.557 605.971,121.205 581.872,135.525 C581.872,135.525 528.744,166.192 537.488,256.637 z"/>
    </clipPath>
    <radialGradient id="Gradient_26" gradientUnits="userSpaceOnUse" cx="333.47" cy="-63.138" r="53.614" gradientTransform="matrix(1, 0, 0, -1, 0, 0)">
      <stop offset="0" stop-color="#FFFFFF"/>
      <stop offset="1" stop-color="#FFFFFF" stop-opacity="0.001"/>
    </radialGradient>
    <clipPath id="Clip_6">
      <path d="M305.427,154.661 C305.427,154.661 343.385,62.718 375.516,49.866 C396.228,41.581 373.91,19.23 349.811,33.549 C349.811,33.549 296.683,64.216 305.427,154.661 z"/>
    </clipPath>
    <radialGradient id="Gradient_27" gradientUnits="userSpaceOnUse" cx="536.581" cy="578.032" r="21.1">
      <stop offset="0" stop-color="#FBDEAD"/>
      <stop offset="1" stop-color="#FF9800"/>
    </radialGradient>
    <radialGradient id="Gradient_28" gradientUnits="userSpaceOnUse" cx="553.574" cy="328.29" r="165.234">
      <stop offset="0" stop-color="#FBDEAD"/>
      <stop offset="1" stop-color="#FF9800"/>
    </radialGradient>
    <radialGradient id="Gradient_29" gradientUnits="userSpaceOnUse" cx="488.812" cy="-304.626" r="53.614" gradientTransform="matrix(1, 0, 0, -1, 0, 0)">
      <stop offset="0" stop-color="#FFFFFF"/>
      <stop offset="1" stop-color="#FFFFFF" stop-opacity="0.001"/>
    </radialGradient>
    <clipPath id="Clip_7">
      <path d="M454.079,393.825 C454.079,393.825 498.731,304.941 531.724,294.499 C552.992,287.768 532.387,263.828 507.296,276.326 C507.296,276.326 452.046,302.982 454.079,393.825 z"/>
    </clipPath>
    <radialGradient id="Gradient_30" gradientUnits="userSpaceOnUse" cx="387.288" cy="798.718" r="41.991">
      <stop offset="0" stop-color="#F7AEB4"/>
      <stop offset="1" stop-color="#F60012"/>
    </radialGradient>
    <radialGradient id="Gradient_31" gradientUnits="userSpaceOnUse" cx="540.485" cy="894.955" r="22.426">
      <stop offset="0" stop-color="#C0E7C7"/>
      <stop offset="1" stop-color="#229614"/>
    </radialGradient>
    <radialGradient id="Gradient_32" gradientUnits="userSpaceOnUse" cx="497.661" cy="838.272" r="27.026">
      <stop offset="0" stop-color="#FBDEAD"/>
      <stop offset="1" stop-color="#FF9800"/>
    </radialGradient>
    <radialGradient id="Gradient_33" gradientUnits="userSpaceOnUse" cx="310.277" cy="722.138" r="29.629">
      <stop offset="0" stop-color="#F7B6D3"/>
      <stop offset="1" stop-color="#FF5D73"/>
    </radialGradient>
    <radialGradient id="Gradient_34" gradientUnits="userSpaceOnUse" cx="684.787" cy="550.446" r="27.08">
      <stop offset="0" stop-color="#B1DEF4"/>
      <stop offset="1" stop-color="#10A7CE"/>
    </radialGradient>
    <radialGradient id="Gradient_35" gradientUnits="userSpaceOnUse" cx="19.811" cy="129.625" r="34.247">
      <stop offset="0" stop-color="#B1DEF4"/>
      <stop offset="1" stop-color="#10A7CE"/>
    </radialGradient>
    <radialGradient id="Gradient_36" gradientUnits="userSpaceOnUse" cx="97.959" cy="47.601" r="24.884">
      <stop offset="0" stop-color="#C0E7C7"/>
      <stop offset="1" stop-color="#229614"/>
    </radialGradient>
    <radialGradient id="Gradient_37" gradientUnits="userSpaceOnUse" cx="615.974" cy="473.402" r="31.005">
      <stop offset="0" stop-color="#C0E7C7"/>
      <stop offset="1" stop-color="#229614"/>
    </radialGradient>
    <radialGradient id="Gradient_38" gradientUnits="userSpaceOnUse" cx="464.844" cy="411.976" r="29.937">
      <stop offset="0" stop-color="#F7AEB4"/>
      <stop offset="1" stop-color="#F60012"/>
    </radialGradient>
    <radialGradient id="Gradient_39" gradientUnits="userSpaceOnUse" cx="358.811" cy="374.625" r="34.247">
      <stop offset="0" stop-color="#B1DEF4"/>
      <stop offset="1" stop-color="#10A7CE"/>
    </radialGradient>
    <radialGradient id="Gradient_40" gradientUnits="userSpaceOnUse" cx="239.288" cy="311.718" r="41.991">
      <stop offset="0" stop-color="#C0E7C7"/>
      <stop offset="1" stop-color="#229614"/>
    </radialGradient>
    <radialGradient id="Gradient_41" gradientUnits="userSpaceOnUse" cx="102.974" cy="276.402" r="31.005">
      <stop offset="0" stop-color="#F7AEB4"/>
      <stop offset="1" stop-color="#F60012"/>
    </radialGradient>
    <radialGradient id="Gradient_42" gradientUnits="userSpaceOnUse" cx="49.185" cy="199.1" r="27.08">
      <stop offset="0" stop-color="#C0E7C7"/>
      <stop offset="1" stop-color="#229614"/>
    </radialGradient>
    <radialGradient id="Gradient_43" gradientUnits="userSpaceOnUse" cx="357.784" cy="661.769" r="11.071">
      <stop offset="0" stop-color="#FFF100"/>
      <stop offset="1" stop-color="#FFF100" stop-opacity="0"/>
    </radialGradient>
    <radialGradient id="Gradient_44" gradientUnits="userSpaceOnUse" cx="289.482" cy="369.043" r="7">
      <stop offset="0" stop-color="#FFF100"/>
      <stop offset="1" stop-color="#FFF100" stop-opacity="0"/>
    </radialGradient>
    <radialGradient id="Gradient_45" gradientUnits="userSpaceOnUse" cx="319.424" cy="366.897" r="9.147">
      <stop offset="0" stop-color="#FFF100"/>
      <stop offset="1" stop-color="#FFF100" stop-opacity="0"/>
    </radialGradient>
    <radialGradient id="Gradient_46" gradientUnits="userSpaceOnUse" cx="179.647" cy="295.55" r="8.148">
      <stop offset="0" stop-color="#FFF100"/>
      <stop offset="1" stop-color="#FFF100" stop-opacity="0"/>
    </radialGradient>
    <radialGradient id="Gradient_47" gradientUnits="userSpaceOnUse" cx="84.19" cy="220.852" r="10.751">
      <stop offset="0" stop-color="#FFF100"/>
      <stop offset="1" stop-color="#FFF100" stop-opacity="0"/>
    </radialGradient>
    <radialGradient id="Gradient_48" gradientUnits="userSpaceOnUse" cx="52.282" cy="144.033" r="3.097">
      <stop offset="0" stop-color="#FFF100"/>
      <stop offset="1" stop-color="#FFF100" stop-opacity="0"/>
    </radialGradient>
    <radialGradient id="Gradient_49" gradientUnits="userSpaceOnUse" cx="75.439" cy="106.001" r="6">
      <stop offset="0" stop-color="#FFF100"/>
      <stop offset="1" stop-color="#FFF100" stop-opacity="0"/>
    </radialGradient>
    <radialGradient id="Gradient_50" gradientUnits="userSpaceOnUse" cx="146.99" cy="58.554" r="10.953">
      <stop offset="0" stop-color="#FFF100"/>
      <stop offset="1" stop-color="#FFF100" stop-opacity="0"/>
    </radialGradient>
    <radialGradient id="Gradient_51" gradientUnits="userSpaceOnUse" cx="165.643" cy="22.436" r="6.435">
      <stop offset="0" stop-color="#FFF100"/>
      <stop offset="1" stop-color="#FFF100" stop-opacity="0"/>
    </radialGradient>
    <radialGradient id="Gradient_52" gradientUnits="userSpaceOnUse" cx="410.095" cy="409.015" r="6.034">
      <stop offset="0" stop-color="#FFF100"/>
      <stop offset="1" stop-color="#FFF100" stop-opacity="0"/>
    </radialGradient>
    <radialGradient id="Gradient_53" gradientUnits="userSpaceOnUse" cx="437.44" cy="383.398" r="10.427">
      <stop offset="0" stop-color="#FFF100"/>
      <stop offset="1" stop-color="#FFF100" stop-opacity="0"/>
    </radialGradient>
    <radialGradient id="Gradient_54" gradientUnits="userSpaceOnUse" cx="519.51" cy="450.22" r="6.886">
      <stop offset="0" stop-color="#FFF100"/>
      <stop offset="1" stop-color="#FFF100" stop-opacity="0"/>
    </radialGradient>
    <radialGradient id="Gradient_55" gradientUnits="userSpaceOnUse" cx="552.089" cy="489.202" r="4.8">
      <stop offset="0" stop-color="#FFF100"/>
      <stop offset="1" stop-color="#FFF100" stop-opacity="0"/>
    </radialGradient>
    <radialGradient id="Gradient_56" gradientUnits="userSpaceOnUse" cx="672.205" cy="495.714" r="4.984">
      <stop offset="0" stop-color="#FFF100"/>
      <stop offset="1" stop-color="#FFF100" stop-opacity="0"/>
    </radialGradient>
    <radialGradient id="Gradient_57" gradientUnits="userSpaceOnUse" cx="674.98" cy="603.865" r="7.759">
      <stop offset="0" stop-color="#FFF100"/>
      <stop offset="1" stop-color="#FFF100" stop-opacity="0"/>
    </radialGradient>
    <radialGradient id="Gradient_58" gradientUnits="userSpaceOnUse" cx="636.56" cy="618.157" r="5.244">
      <stop offset="0" stop-color="#FFF100"/>
      <stop offset="1" stop-color="#FFF100" stop-opacity="0"/>
    </radialGradient>
    <radialGradient id="Gradient_59" gradientUnits="userSpaceOnUse" cx="715.425" cy="540.209" r="8.208">
      <stop offset="0" stop-color="#FFF100"/>
      <stop offset="1" stop-color="#FFF100" stop-opacity="0"/>
    </radialGradient>
    <radialGradient id="Gradient_60" gradientUnits="userSpaceOnUse" cx="456.021" cy="664.687" r="8.153">
      <stop offset="0" stop-color="#FFF100"/>
      <stop offset="1" stop-color="#FFF100" stop-opacity="0"/>
    </radialGradient>
    <radialGradient id="Gradient_61" gradientUnits="userSpaceOnUse" cx="386.106" cy="640.152" r="5.957">
      <stop offset="0" stop-color="#FFF100"/>
      <stop offset="1" stop-color="#FFF100" stop-opacity="0"/>
    </radialGradient>
    <radialGradient id="Gradient_62" gradientUnits="userSpaceOnUse" cx="333.571" cy="777.001" r="5">
      <stop offset="0" stop-color="#FFF100"/>
      <stop offset="1" stop-color="#FFF100" stop-opacity="0"/>
    </radialGradient>
    <radialGradient id="Gradient_63" gradientUnits="userSpaceOnUse" cx="276.326" cy="774.542" r="7.459">
      <stop offset="0" stop-color="#FFF100"/>
      <stop offset="1" stop-color="#FFF100" stop-opacity="0"/>
    </radialGradient>
    <radialGradient id="Gradient_64" gradientUnits="userSpaceOnUse" cx="324.27" cy="825.001" r="5">
      <stop offset="0" stop-color="#FFF100"/>
      <stop offset="1" stop-color="#FFF100" stop-opacity="0"/>
    </radialGradient>
    <radialGradient id="Gradient_65" gradientUnits="userSpaceOnUse" cx="448.122" cy="841.326" r="11.325">
      <stop offset="0" stop-color="#FFF100"/>
      <stop offset="1" stop-color="#FFF100" stop-opacity="0"/>
    </radialGradient>
    <radialGradient id="Gradient_66" gradientUnits="userSpaceOnUse" cx="478.241" cy="832.331" r="8.995">
      <stop offset="0" stop-color="#FFF100"/>
      <stop offset="1" stop-color="#FFF100" stop-opacity="0"/>
    </radialGradient>
    <radialGradient id="Gradient_67" gradientUnits="userSpaceOnUse" cx="545.652" cy="863.931" r="11.281">
      <stop offset="0" stop-color="#FFF100"/>
      <stop offset="1" stop-color="#FFF100" stop-opacity="0"/>
    </radialGradient>
    <radialGradient id="Gradient_68" gradientUnits="userSpaceOnUse" cx="579.527" cy="867.32" r="3.389">
      <stop offset="0" stop-color="#FFFDE8"/>
      <stop offset="0.006" stop-color="#FFFDE8"/>
      <stop offset="0.449" stop-color="#FFFBCD"/>
      <stop offset="1" stop-color="#FFF78C"/>
    </radialGradient>
  </defs>
  <g id="レイヤー_1">
    <path d="M604.993,573.787 L602.225,619.265 C599.063,616.669 593.816,615.881 588.604,617.607 L588.604,617.607 C581.422,619.985 577.03,626.232 578.794,631.561 L578.794,631.561 C580.558,636.89 587.811,639.282 594.994,636.905 L594.994,636.905 C601.809,634.648 606.112,628.907 605.026,623.773 L605.026,623.773 C605.046,623.691 605.059,623.607 605.065,623.521 L605.065,623.521 L606.936,592.787 C609.336,594.407 615.586,598.563 620.004,600.938 L620.004,600.938 C625.577,603.934 619.654,613.756 619.654,613.756 L619.654,613.756 C624.253,610.937 638.687,599.419 626.605,594.256 L626.605,594.256 C617.014,590.158 610.375,578.986 608.045,574.553 L608.045,574.553 L608.081,573.975 C608.13,573.163 607.512,572.465 606.7,572.415 L606.7,572.415 L606.553,572.406 C606.523,572.404 606.492,572.403 606.462,572.403 L606.462,572.403 C605.69,572.403 605.041,573.005 604.993,573.787 z" fill="url(#Gradient_1)"/>
    <path d="M502.979,603.448 L502.246,606.939 L496.532,634.14 C494.545,632.332 491.411,631.311 487.992,631.618 L487.992,631.618 C482.483,632.112 478.31,635.861 478.68,639.993 L478.68,639.993 C479.051,644.124 483.801,647.07 489.311,646.576 L489.311,646.576 C494.753,646.087 498.933,642.433 498.608,638.347 L498.608,638.347 L505.147,607.219 L541.969,610.85 L536.224,638.204 C534.235,636.395 531.125,635.38 527.705,635.687 L527.705,635.687 C522.196,636.181 518.035,639.932 518.405,644.064 L518.405,644.064 C518.776,648.196 523.509,651.138 529.019,650.643 L529.019,650.643 C534.461,650.155 538.625,646.498 538.299,642.412 L538.299,642.412 L544.87,611.13 L545.014,611.147 L547.29,600.314 L504.521,596.106 z" fill="url(#Gradient_2)"/>
    <path d="M405.908,604.916 L405.74,604.96 C404.81,605.207 404.256,606.159 404.502,607.088 L404.502,607.088 L418.286,659.147 C413.773,657.407 407.594,658.471 402.386,662.343 L402.386,662.343 C395.211,667.678 392.602,676.32 396.561,681.644 L396.561,681.644 C400.52,686.969 409.546,686.96 416.722,681.624 L416.722,681.624 C423.533,676.56 426.228,668.521 423.103,663.163 L423.103,663.163 C423.094,663.064 423.078,662.965 423.052,662.866 L423.052,662.866 L413.737,627.686 C417.032,628.613 425.587,630.955 431.428,631.979 L431.428,631.979 C438.794,633.27 435.795,646.491 435.795,646.491 L435.795,646.491 C439.908,641.621 451.828,623.336 436.353,622.03 L436.353,622.03 C424.069,620.993 412.472,610.924 408.211,606.815 L408.211,606.815 L408.037,606.153 C407.83,605.373 407.125,604.857 406.355,604.857 L406.355,604.857 C406.207,604.857 406.057,604.876 405.908,604.916 z" fill="url(#Gradient_3)"/>
    <g>
      <path d="M291.133,584.611 L422.408,889.236 L540.384,589.261" fill-opacity="0" stroke="#ECCB78" stroke-width="4.069" stroke-linecap="round" stroke-linejoin="round"/>
      <path d="M426.954,357.75 L422.409,889.236" fill-opacity="0" stroke="#ECCB78" stroke-width="4.069" stroke-linecap="round" stroke-linejoin="round"/>
      <path d="M158.171,411.354 L421.707,889.236 L667.104,402.98" fill-opacity="0" stroke="#ECCB78" stroke-width="4.069" stroke-linecap="round" stroke-linejoin="round"/>
    </g>
    <path d="M423.73,337.049 L402.274,372.077 C400.414,375.112 402.599,379.011 406.158,379.011 L406.158,379.011 L447.868,379.011 C451.375,379.011 453.567,375.213 451.811,372.176 L451.811,372.176 L431.557,337.148 C430.682,335.634 429.148,334.873 427.613,334.873 L427.613,334.873 C426.117,334.873 424.62,335.596 423.73,337.049 z" fill="url(#Gradient_4)"/>
    <path d="M273.05,178.984 C273.05,276.066 341.981,354.767 427.013,354.767 L427.013,354.767 C512.044,354.767 580.975,276.066 580.975,178.984 L580.975,178.984 C580.975,81.901 512.044,3.199 427.013,3.199 L427.013,3.199 C341.981,3.199 273.05,81.901 273.05,178.984 z" fill="url(#Gradient_5)"/>
    <path d="M158.17,425.615 L136.714,460.643 C134.855,463.678 137.039,467.578 140.599,467.578 L140.599,467.578 L182.308,467.578 C185.817,467.578 188.007,463.779 186.251,460.742 L186.251,460.742 L165.999,425.715 C165.123,424.201 163.589,423.44 162.054,423.44 L162.054,423.44 C160.558,423.44 159.061,424.162 158.17,425.615 z" fill="url(#Gradient_6)"/>
    <path d="M7.373,267.55 C7.373,364.633 76.304,443.333 161.336,443.333 L161.336,443.333 C246.367,443.333 315.298,364.633 315.298,267.55 L315.298,267.55 C315.298,170.467 246.367,91.766 161.336,91.766 L161.336,91.766 C76.304,91.766 7.373,170.467 7.373,267.55 z" fill="url(#Gradient_7)"/>
    <path d="M663.939,425.615 L642.482,460.643 C640.624,463.678 642.808,467.578 646.366,467.578 L646.366,467.578 L688.076,467.578 C691.584,467.578 693.776,463.779 692.02,460.742 L692.02,460.742 L671.766,425.715 C670.891,424.201 669.357,423.44 667.822,423.44 L667.822,423.44 C666.326,423.44 664.829,424.162 663.939,425.615 z" fill="url(#Gradient_8)"/>
    <path d="M513.141,267.55 C513.141,364.633 582.072,443.333 667.103,443.333 L667.103,443.333 C752.135,443.333 821.066,364.633 821.066,267.55 L821.066,267.55 C821.066,170.467 752.135,91.766 667.103,91.766 L667.103,91.766 C582.072,91.766 513.141,170.467 513.141,267.55 z" fill="url(#Gradient_9)"/>
    <path d="M285.464,567.529 L269.245,605.268 C267.839,608.538 270.559,612.084 274.082,611.574 L274.082,611.574 L315.362,605.602 C318.833,605.1 320.459,601.026 318.286,598.272 L318.286,598.272 L293.225,566.506 C292.299,565.332 290.975,564.771 289.66,564.771 L289.66,564.771 C287.94,564.771 286.237,565.731 285.464,567.529 z" fill="url(#Gradient_10)"/>
    <path d="M240.79,236.666 C156.636,248.843 99.684,336.603 113.586,432.686 L113.586,432.686 C127.488,528.768 206.978,596.787 291.134,584.611 L291.134,584.611 C375.288,572.435 432.239,484.674 418.338,388.592 L418.338,388.592 C405.519,299.999 336.925,235.264 260.341,235.256 L260.341,235.256 C253.867,235.256 247.35,235.717 240.79,236.666 z" fill="url(#Gradient_11)"/>
    <g>
      <path d="M415.215,958.513 C424.025,935.012 421.294,886.878 421.294,886.878 C417.638,933.883 392.272,956.983 392.272,956.983" fill-opacity="0" stroke="#ECCB78" stroke-width="4.578" stroke-linecap="round" stroke-linejoin="round"/>
      <path d="M456.294,956.293 C456.294,956.293 429.776,934.525 423.711,887.77 C423.711,887.77 423.455,935.981 433.46,958.999" fill-opacity="0" stroke="#ECCB78" stroke-width="4.578" stroke-linecap="round" stroke-linejoin="round"/>
      <path d="M404.06,957.77 C404.06,957.77 417.683,937.114 422.513,888.57" fill-opacity="0" stroke="#ECCB78" stroke-width="4.578" stroke-linecap="round" stroke-linejoin="round"/>
    </g>
    <path d="M375.832,907.751 L384.908,909.401 C383.697,912.2 385.696,921.294 385.696,921.294 L385.696,921.294 C393.953,905.873 420.193,886.884 419.507,887.379 L419.507,887.379 L420.219,881.586 C396.185,883.159 375.832,907.751 375.832,907.751 z" fill="url(#Gradient_12)"/>
    <path d="M380.202,872.603 C393.805,880.344 421.019,878.59 421.019,878.59 L421.019,878.59 C398.222,872.785 388.089,871.385 383.618,871.385 L383.618,871.385 C379.449,871.385 380.202,872.603 380.202,872.603 z" fill="url(#Gradient_13)"/>
    <path d="M380.451,890.386 C388.193,896.002 422.457,887.305 422.457,887.305 L422.457,887.305 L422.37,877.291 C380.33,875.557 380.059,872.237 380.059,872.237 L380.059,872.237 z" fill="url(#Gradient_14)"/>
    <g clip-path="url(#Clip_1)" opacity="0.24">
      <path d="M408.16,886.732 C410.789,886.892 413.259,886.463 415.734,885.669 C419.254,884.373 418.721,883.954 417.38,883.852 L417.382,883.851 L417.588,881.562 C417.588,881.562 414.587,882.059 409.383,881.001 C411.39,881.595 413.79,882.576 414.171,883.939 C414.154,883.941 414.145,883.942 414.145,883.942 C414.145,883.942 411.031,887.158 401.276,885.538 C403.496,886.317 405.839,886.494 408.16,886.732 z" fill="url(#Gradient_15)"/>
    </g>
    <path d="M409.383,881.002 C407.852,880.548 406.55,880.319 406.55,880.319 L406.55,880.319 C407.556,880.599 408.5,880.822 409.383,881.002 z" fill="url(#Gradient_16)"/>
    <path d="M425.531,887.373 C425.531,887.373 451.058,905.701 459.409,921.223 L459.409,921.223 C459.409,921.223 461.39,912.125 460.173,909.328 L460.173,909.328 L469.246,907.66 C469.246,907.66 448.845,883.108 424.808,881.582 L424.808,881.582 z" fill="url(#Gradient_17)"/>
    <path d="M423.74,878.587 C423.74,878.587 464.461,888.545 464.17,872.897 L464.17,872.897 C464.162,872.446 464.504,871.175 460.344,871.175 L460.344,871.175 C455.763,871.175 445.723,872.715 423.74,878.587 z" fill="url(#Gradient_18)"/>
    <path d="M422.387,877.291 L422.32,887.305 C422.32,887.305 456.6,895.936 464.332,890.305 L464.332,890.305 L464.22,872.438 C464.22,872.438 463.927,873.864 422.387,877.291 z" fill="url(#Gradient_19)"/>
    <g clip-path="url(#Clip_2)" opacity="0.24">
      <path d="M436.635,886.647 C438.954,886.49 441.292,886.198 443.508,885.463 C433.757,887.102 430.631,883.908 430.631,883.908 C430.631,883.908 430.619,883.916 430.602,883.915 C430.98,882.551 433.377,881.57 435.383,880.972 C430.181,882.039 427.201,881.482 427.201,881.482 L427.433,883.704 L427.436,883.705 C426.085,883.837 425.54,884.298 429.062,885.587 C431.503,886.57 434.05,886.547 436.635,886.647 z" fill="url(#Gradient_20)"/>
    </g>
    <path d="M435.381,880.976 C436.264,880.795 437.208,880.571 438.214,880.289 L438.214,880.289 C438.214,880.289 436.912,880.52 435.381,880.976 z" fill="url(#Gradient_21)"/>
    <path d="M417.088,877.31 C417.088,877.31 415.315,885.495 417.834,888.915 L417.834,888.915 L427.082,888.913 C427.082,888.913 429.727,881.325 427.964,877.323 L427.964,877.323 C427.964,877.323 423.345,876.321 420.122,876.321 L420.122,876.321 C418.519,876.321 417.262,876.569 417.088,877.31 z" fill="url(#Gradient_22)"/>
    <g>
      <g clip-path="url(#Clip_3)" opacity="0.69">
        <path d="M126.742,409.71 C126.742,409.71 156.675,314.85 187.585,299.29 C207.51,289.259 183.357,268.904 160.576,285.237 C153.879,290.381 148.23,296.923 143.52,303.904 C129.163,325.182 123.96,349.912 123.43,375.166 L123.43,375.185 C123.363,386.782 124.753,398.306 126.742,409.71 z" fill="url(#Gradient_23)"/>
      </g>
      <g clip-path="url(#Clip_4)" opacity="0.69">
        <path d="M30.738,269.015 C30.738,269.015 65.067,175.656 96.67,161.556 C117.041,152.466 93.865,131.006 70.346,146.258 C70.346,146.258 18.459,178.982 30.738,269.015 z" fill="url(#Gradient_24)"/>
      </g>
      <g clip-path="url(#Clip_5)" opacity="0.69">
        <path d="M537.488,256.637 C537.488,256.637 575.446,164.694 607.577,151.842 C628.289,143.557 605.971,121.205 581.872,135.525 C581.872,135.525 528.744,166.192 537.488,256.637 z" fill="url(#Gradient_25)"/>
      </g>
      <g clip-path="url(#Clip_6)" opacity="0.69">
        <path d="M305.427,154.661 C305.427,154.661 343.385,62.718 375.516,49.866 C396.228,41.581 373.91,19.23 349.811,33.549 C349.811,33.549 296.683,64.216 305.427,154.661 z" fill="url(#Gradient_26)"/>
      </g>
    </g>
    <path d="M542.046,569.114 L513.868,599.003 C511.427,601.593 512.765,605.857 516.25,606.586 L516.25,606.586 L557.075,615.131 C560.508,615.85 563.431,612.58 562.334,609.248 L562.334,609.248 L549.687,570.815 C549.027,568.81 547.203,567.682 545.344,567.682 L545.344,567.682 C544.162,567.682 542.966,568.138 542.046,569.114 z" fill="url(#Gradient_27)"/>
    <path d="M426.829,383.507 C406.94,478.531 458.285,569.685 541.513,587.105 L541.513,587.105 C624.74,604.525 708.333,541.615 728.222,446.591 L728.222,446.591 C748.111,351.568 696.766,260.414 613.538,242.994 L613.538,242.994 C604.201,241.039 594.855,240.096 585.599,240.096 L585.599,240.096 C512.352,240.093 444.486,299.144 426.829,383.507 z" fill="url(#Gradient_28)"/>
    <g clip-path="url(#Clip_7)" opacity="0.69">
      <path d="M454.079,393.825 C454.079,393.825 498.731,304.941 531.724,294.499 C552.992,287.768 532.387,263.828 507.296,276.326 C507.296,276.326 452.046,302.982 454.079,393.825 z" fill="url(#Gradient_29)"/>
    </g>
    <path d="M411.955,760.531 L381.132,818.925 C378.508,813.607 372.052,809.433 364.14,808.598 L364.14,808.598 C353.237,807.446 343.706,813.071 342.851,821.162 L342.851,821.162 C341.997,829.252 350.144,836.743 361.048,837.894 L361.048,837.894 C371.395,838.986 380.506,833.976 382.138,826.548 L382.138,826.548 C382.213,826.452 382.282,826.35 382.341,826.239 L382.341,826.239 L403.169,786.777 C405.371,790.35 411.14,799.571 415.555,805.346 L415.555,805.346 C421.123,812.631 407.435,822.061 407.435,822.061 L407.435,822.061 C415.192,821.086 441.13,814.502 428.261,800.467 L428.261,800.467 C418.046,789.327 415.955,770.611 415.527,763.367 L415.527,763.367 L415.919,762.624 C416.47,761.582 416.07,760.29 415.028,759.74 L415.028,759.74 L414.839,759.64 C414.521,759.472 414.18,759.393 413.844,759.393 L413.844,759.393 C413.078,759.393 412.337,759.807 411.955,760.531 z" fill="url(#Gradient_30)"/>
    <path d="M533.256,880.523 L532.725,883.047 L528.593,902.721 C527.155,901.414 524.889,900.676 522.416,900.897 L522.416,900.897 C518.431,901.254 515.413,903.966 515.681,906.955 L515.681,906.955 C515.949,909.943 519.386,912.074 523.37,911.716 L523.37,911.716 C527.306,911.363 530.329,908.72 530.095,905.764 L530.095,905.764 L534.824,883.25 L561.457,885.876 L557.302,905.661 C555.863,904.353 553.613,903.619 551.14,903.84 L551.14,903.84 C547.156,904.197 544.145,906.911 544.414,909.9 L544.414,909.9 C544.682,912.888 548.105,915.016 552.091,914.658 L552.091,914.658 C556.026,914.305 559.039,911.659 558.803,908.705 L558.803,908.705 L563.556,886.079 L563.66,886.091 L565.305,878.256 L534.371,875.212 z" fill="url(#Gradient_31)"/>
    <path d="M513.573,807.242 L503.824,852.38 C500.802,849.676 496.3,848.17 491.262,848.593 L491.262,848.593 C483.146,849.274 476.967,854.759 477.477,860.845 L477.477,860.845 C477.988,866.933 485.012,871.321 493.128,870.64 L493.128,870.64 C501.145,869.967 507.193,864.591 506.939,858.612 L506.939,858.612 L517.837,808.163 C518.048,807.186 517.345,806.241 516.368,806.029 L516.368,806.029 L515.659,805.877 C515.527,805.848 515.396,805.835 515.269,805.835 L515.269,805.835 C514.452,805.834 513.755,806.397 513.573,807.242 z" fill="url(#Gradient_32)"/>
    <path d="M327.722,688.119 L317.032,737.605 C313.721,734.641 308.784,732.989 303.262,733.453 L303.262,733.453 C294.364,734.2 287.589,740.212 288.149,746.885 L288.149,746.885 C288.709,753.56 296.41,758.37 305.308,757.623 L305.308,757.623 C314.097,756.885 320.728,750.992 320.449,744.438 L320.449,744.438 L332.396,689.129 C332.628,688.057 331.858,687.021 330.785,686.79 L330.785,686.79 L330.009,686.622 C329.864,686.591 329.72,686.576 329.58,686.576 L329.58,686.576 C328.685,686.576 327.922,687.192 327.722,688.119 z" fill="url(#Gradient_33)"/>
    <path d="M678.793,513.579 L678.147,513.911 C677.255,514.369 676.94,515.404 677.398,516.295 L677.398,516.295 L698.525,557.462 C694.468,557.287 690.021,558.981 686.388,562.509 L686.388,562.509 C680.532,568.194 679.229,576.37 683.492,580.761 L683.492,580.761 C687.757,585.153 695.987,584.09 701.842,578.405 L701.842,578.405 C707.626,572.789 708.896,564.78 704.901,560.31 L704.901,560.31 L681.287,514.299 C680.974,513.69 680.341,513.364 679.687,513.364 L679.687,513.364 C679.384,513.364 679.075,513.434 678.793,513.579 z" fill="url(#Gradient_34)"/>
    <path d="M14.908,90.916 L14.739,90.96 C13.81,91.207 13.256,92.159 13.502,93.089 L13.502,93.089 L27.286,145.146 C22.774,143.407 16.594,144.471 11.387,148.343 L11.387,148.343 C4.211,153.678 1.602,162.32 5.561,167.645 L5.561,167.645 C9.52,172.969 18.546,172.96 25.723,167.624 L25.723,167.624 C32.532,162.56 35.228,154.521 32.102,149.163 L32.102,149.163 C32.094,149.064 32.079,148.965 32.053,148.866 L32.053,148.866 L22.738,113.686 C26.032,114.613 34.588,116.955 40.428,117.979 L40.428,117.979 C47.794,119.271 44.796,132.492 44.796,132.492 L44.796,132.492 C48.909,127.621 60.827,109.335 45.353,108.03 L45.353,108.03 C33.07,106.994 21.472,96.924 17.212,92.815 L17.212,92.815 L17.036,92.153 C16.83,91.373 16.126,90.857 15.355,90.857 L15.355,90.857 C15.207,90.857 15.057,90.876 14.908,90.916 z" fill="url(#Gradient_35)"/>
    <path d="M89.937,31.586 L89.349,34.388 L84.763,56.218 C83.168,54.768 80.654,53.948 77.909,54.194 L77.909,54.194 C73.488,54.591 70.138,57.6 70.436,60.916 L70.436,60.916 C70.734,64.232 74.546,66.596 78.968,66.199 L78.968,66.199 C83.335,65.808 86.691,62.875 86.43,59.595 L86.43,59.595 L91.677,34.613 L121.23,37.527 L116.618,59.481 C115.024,58.029 112.526,57.214 109.782,57.46 L109.782,57.46 C105.361,57.857 102.02,60.868 102.318,64.183 L102.318,64.183 C102.616,67.5 106.415,69.861 110.837,69.465 L110.837,69.465 C115.205,69.072 118.546,66.136 118.284,62.858 L118.284,62.858 L123.558,37.752 L123.674,37.766 L125.5,29.072 L91.175,25.694 z" fill="url(#Gradient_36)"/>
    <g>
      <path d="M645.299,503.411 L651.87,472.13 L652.014,472.146 L654.289,461.314 L611.521,457.106 L609.979,464.448 L609.246,467.938 L603.532,495.139 C601.544,493.331 598.411,492.31 594.992,492.617 C589.483,493.111 585.309,496.86 585.68,500.992 C586.051,505.124 590.802,508.07 596.311,507.575 C601.753,507.087 605.933,503.433 605.608,499.347 L612.146,468.218 L648.969,471.85 L643.223,499.203 C641.236,497.395 638.125,496.379 634.705,496.686 C629.196,497.18 625.034,500.931 625.405,505.063 C625.776,509.195 630.51,512.137 636.019,511.643 C641.461,511.155 645.625,507.497 645.299,503.411" fill="#000000" opacity="0.1"/>
      <path d="M479.122,445.508 L491.194,389.623 C491.428,388.541 490.649,387.494 489.566,387.26 L488.782,387.09 C487.699,386.856 486.704,387.521 486.47,388.603 L475.67,438.603 C472.324,435.609 467.336,433.94 461.756,434.409 C452.765,435.164 445.92,441.238 446.486,447.981 C447.052,454.724 454.832,459.586 463.823,458.831 C472.704,458.085 479.403,452.13 479.122,445.508" fill="#000000" opacity="0.1"/>
      <path d="M388.353,364.03 C376.069,362.993 364.472,352.924 360.212,348.815 L360.036,348.153 C359.79,347.224 358.837,346.67 357.908,346.916 L357.74,346.96 C356.81,347.206 356.256,348.159 356.502,349.089 L370.286,401.147 C365.773,399.407 359.594,400.472 354.387,404.343 C347.211,409.679 344.602,418.32 348.561,423.645 C352.52,428.969 361.546,428.96 368.722,423.624 C375.532,418.561 378.228,410.521 375.102,405.163 C375.094,405.064 375.079,404.965 375.052,404.866 L365.738,369.686 C369.032,370.613 377.588,372.955 383.428,373.979 C390.794,375.271 387.795,388.492 387.795,388.492 C391.909,383.62 403.828,365.336 388.353,364.03" fill="#000000" opacity="0.1"/>
      <path d="M284.262,324.467 C274.047,313.326 271.956,294.611 271.527,287.367 L271.919,286.624 C272.47,285.582 272.071,284.29 271.028,283.74 L270.839,283.64 C269.797,283.09 268.506,283.489 267.955,284.532 L237.133,342.925 C234.509,337.607 228.052,333.433 220.141,332.598 C209.237,331.447 199.705,337.072 198.851,345.162 C197.997,353.252 206.144,360.743 217.048,361.894 C227.396,362.986 236.506,357.976 238.139,350.548 C238.213,350.452 238.282,350.35 238.341,350.239 L259.17,310.778 C261.371,314.35 267.14,323.571 271.555,329.346 C277.124,336.631 263.436,346.061 263.436,346.061 C271.192,345.086 297.131,338.501 284.262,324.467" fill="#000000" opacity="0.1"/>
      <path d="M132.299,306.411 L138.87,275.13 L139.014,275.146 L141.289,264.314 L98.521,260.106 L96.979,267.448 L96.245,270.938 L90.532,298.139 C88.544,296.331 85.411,295.31 81.992,295.617 C76.483,296.111 72.309,299.86 72.68,303.992 C73.051,308.124 77.802,311.07 83.311,310.575 C88.753,310.087 92.933,306.433 92.608,302.347 L99.146,271.218 L135.969,274.85 L130.223,302.203 C128.236,300.395 125.124,299.379 121.705,299.686 C116.196,300.18 112.034,303.931 112.405,308.063 C112.776,312.195 117.509,315.137 123.019,314.643 C128.461,314.155 132.625,310.497 132.299,306.411" fill="#000000" opacity="0.1"/>
      <path d="M62.481,230.482 L73.4,179.931 C73.612,178.952 72.908,178.005 71.928,177.793 L71.219,177.64 C70.239,177.428 69.34,178.029 69.128,179.008 L59.358,224.236 C56.332,221.528 51.819,220.018 46.772,220.442 C38.64,221.125 32.448,226.62 32.96,232.719 C33.472,238.819 40.51,243.216 48.642,242.533 C56.675,241.858 62.735,236.472 62.481,230.482" fill="#000000" opacity="0.1"/>
    </g>
    <path d="M605.979,453.449 L605.245,456.939 L599.532,484.14 C597.544,482.331 594.411,481.311 590.992,481.618 L590.992,481.618 C585.482,482.112 581.31,485.86 581.68,489.992 L581.68,489.992 C582.051,494.124 586.802,497.07 592.311,496.576 L592.311,496.576 C597.753,496.087 601.933,492.433 601.608,488.347 L601.608,488.347 L608.146,457.219 L644.969,460.85 L639.223,488.204 C637.236,486.396 634.125,485.38 630.706,485.687 L630.706,485.687 C625.197,486.181 621.034,489.932 621.405,494.064 L621.405,494.064 C621.776,498.196 626.51,501.138 632.019,500.644 L632.019,500.644 C637.461,500.155 641.624,496.497 641.3,492.411 L641.3,492.411 L647.87,461.13 L648.014,461.147 L650.29,450.314 L607.521,446.106 z" fill="url(#Gradient_37)"/>
    <path d="M482.47,377.603 L471.669,427.603 C468.323,424.609 463.335,422.94 457.755,423.408 L457.755,423.408 C448.765,424.164 441.92,430.239 442.486,436.981 L442.486,436.981 C443.052,443.724 450.832,448.586 459.823,447.831 L459.823,447.831 C468.704,447.085 475.402,441.13 475.122,434.508 L475.122,434.508 L487.193,378.624 C487.427,377.541 486.649,376.494 485.565,376.26 L485.565,376.26 L484.781,376.09 C484.635,376.058 484.49,376.043 484.349,376.043 L484.349,376.043 C483.444,376.043 482.673,376.666 482.47,377.603 z" fill="url(#Gradient_38)"/>
    <path d="M353.908,335.916 L353.74,335.96 C352.81,336.207 352.256,337.16 352.502,338.088 L352.502,338.088 L366.286,390.147 C361.773,388.407 355.594,389.472 350.387,393.343 L350.387,393.343 C343.211,398.679 340.602,407.32 344.561,412.644 L344.561,412.644 C348.52,417.969 357.547,417.96 364.722,412.624 L364.722,412.624 C371.533,407.561 374.228,399.521 371.102,394.163 L371.102,394.163 C371.094,394.065 371.079,393.965 371.052,393.866 L371.052,393.866 L361.738,358.686 C365.032,359.613 373.588,361.955 379.428,362.979 L379.428,362.979 C386.794,364.27 383.795,377.491 383.795,377.491 L383.795,377.491 C387.909,372.621 399.828,354.336 384.353,353.03 L384.353,353.03 C372.069,351.993 360.472,341.924 356.212,337.816 L356.212,337.816 L356.036,337.153 C355.829,336.373 355.125,335.857 354.355,335.857 L354.355,335.857 C354.207,335.857 354.057,335.876 353.908,335.916 z" fill="url(#Gradient_39)"/>
    <path d="M263.955,273.531 L233.132,331.925 C230.509,326.607 224.052,322.433 216.14,321.598 L216.14,321.598 C205.237,320.447 195.705,326.072 194.851,334.162 L194.851,334.162 C193.997,342.252 202.144,349.743 213.048,350.894 L213.048,350.894 C223.395,351.986 232.506,346.976 234.139,339.548 L234.139,339.548 C234.213,339.452 234.282,339.35 234.34,339.239 L234.34,339.239 L255.17,299.777 C257.37,303.35 263.139,312.571 267.555,318.346 L267.555,318.346 C273.124,325.631 259.436,335.061 259.436,335.061 L259.436,335.061 C267.192,334.086 293.13,327.501 280.262,313.467 L280.262,313.467 C270.047,302.326 267.955,283.611 267.527,276.367 L267.527,276.367 L267.919,275.624 C268.469,274.582 268.07,273.29 267.028,272.74 L267.028,272.74 L266.839,272.64 C266.521,272.473 266.181,272.393 265.845,272.393 L265.845,272.393 C265.078,272.393 264.338,272.807 263.955,273.531 z" fill="url(#Gradient_40)"/>
    <path d="M92.979,256.448 L92.245,259.939 L86.532,287.139 C84.544,285.331 81.411,284.311 77.992,284.618 L77.992,284.618 C72.482,285.112 68.31,288.86 68.68,292.992 L68.68,292.992 C69.051,297.125 73.802,300.07 79.311,299.576 L79.311,299.576 C84.753,299.088 88.934,295.433 88.608,291.347 L88.608,291.347 L95.146,260.219 L131.97,263.85 L126.223,291.204 C124.236,289.396 121.125,288.38 117.706,288.687 L117.706,288.687 C112.197,289.181 108.034,292.932 108.405,297.064 L108.405,297.064 C108.776,301.196 113.51,304.138 119.02,303.644 L119.02,303.644 C124.461,303.155 128.624,299.497 128.3,295.411 L128.3,295.411 L134.87,264.13 L135.014,264.147 L137.29,253.315 L94.521,249.106 z" fill="url(#Gradient_41)"/>
    <path d="M65.128,168.008 L55.359,213.237 C52.332,210.528 47.82,209.018 42.772,209.442 L42.772,209.442 C34.64,210.125 28.448,215.62 28.96,221.719 L28.96,221.719 C29.472,227.819 36.51,232.216 44.643,231.533 L44.643,231.533 C52.675,230.859 58.736,225.472 58.481,219.482 L58.481,219.482 L69.401,168.931 C69.612,167.952 68.908,167.005 67.928,166.793 L67.928,166.793 L67.219,166.64 C67.086,166.611 66.955,166.598 66.827,166.598 L66.827,166.598 C66.008,166.598 65.311,167.162 65.128,168.008 z" fill="url(#Gradient_42)"/>
    <path d="M346.712,661.769 C346.712,667.884 351.67,672.841 357.784,672.841 L357.784,672.841 C363.899,672.841 368.855,667.884 368.855,661.769 L368.855,661.769 C368.855,655.654 363.899,650.698 357.784,650.698 L357.784,650.698 C351.67,650.698 346.712,655.654 346.712,661.769 z" fill="url(#Gradient_43)"/>
    <path d="M282.482,369.043 C282.482,372.909 285.616,376.043 289.482,376.043 L289.482,376.043 C293.348,376.043 296.482,372.909 296.482,369.043 L296.482,369.043 C296.482,365.177 293.348,362.044 289.482,362.044 L289.482,362.044 C285.616,362.044 282.482,365.177 282.482,369.043 z" fill="url(#Gradient_44)"/>
    <path d="M310.278,366.897 C310.278,371.948 314.373,376.043 319.423,376.043 L319.423,376.043 C324.475,376.043 328.571,371.948 328.571,366.897 L328.571,366.897 C328.571,361.845 324.475,357.75 319.423,357.75 L319.423,357.75 C314.373,357.75 310.278,361.845 310.278,366.897 z" fill="url(#Gradient_45)"/>
    <path d="M171.499,295.55 C171.499,300.05 175.147,303.698 179.647,303.698 L179.647,303.698 C184.146,303.698 187.795,300.05 187.795,295.55 L187.795,295.55 C187.795,291.05 184.146,287.402 179.647,287.402 L179.647,287.402 C175.147,287.402 171.499,291.05 171.499,295.55 z" fill="url(#Gradient_46)"/>
    <path d="M73.438,220.852 C73.438,226.79 78.252,231.603 84.19,231.603 L84.19,231.603 C90.128,231.603 94.941,226.79 94.941,220.852 L94.941,220.852 C94.941,214.914 90.128,210.1 84.19,210.1 L84.19,210.1 C78.252,210.1 73.438,214.914 73.438,220.852 z" fill="url(#Gradient_47)"/>
    <path d="M49.184,144.033 C49.184,145.744 50.571,147.13 52.282,147.13 L52.282,147.13 C53.993,147.13 55.38,145.744 55.38,144.033 L55.38,144.033 C55.38,142.322 53.993,140.935 52.282,140.935 L52.282,140.935 C50.571,140.935 49.184,142.322 49.184,144.033 z" fill="url(#Gradient_48)"/>
    <path d="M69.439,106.001 C69.439,109.315 72.125,112.001 75.439,112.001 L75.439,112.001 C78.753,112.001 81.438,109.315 81.438,106.001 L81.438,106.001 C81.438,102.687 78.753,100.002 75.439,100.002 L75.439,100.002 C72.125,100.002 69.439,102.687 69.439,106.001 z" fill="url(#Gradient_49)"/>
    <path d="M136.037,58.555 C136.037,64.604 140.941,69.508 146.99,69.508 L146.99,69.508 C153.04,69.508 157.944,64.604 157.944,58.555 L157.944,58.555 C157.944,52.505 153.04,47.601 146.99,47.601 L146.99,47.601 C140.941,47.601 136.037,52.505 136.037,58.555 z" fill="url(#Gradient_50)"/>
    <path d="M159.208,22.436 C159.208,25.989 162.089,28.871 165.643,28.871 L165.643,28.871 C169.196,28.871 172.077,25.989 172.077,22.436 L172.077,22.436 C172.077,18.882 169.196,16.001 165.643,16.001 L165.643,16.001 C162.089,16.001 159.208,18.882 159.208,22.436 z" fill="url(#Gradient_51)"/>
    <path d="M404.06,409.015 C404.06,412.347 406.762,415.049 410.095,415.049 L410.095,415.049 C413.428,415.049 416.128,412.347 416.128,409.015 L416.128,409.015 C416.128,405.683 413.428,402.981 410.095,402.981 L410.095,402.981 C406.762,402.981 404.06,405.683 404.06,409.015 z" fill="url(#Gradient_52)"/>
    <path d="M427.013,383.398 C427.013,389.157 431.681,393.825 437.44,393.825 L437.44,393.825 C443.199,393.825 447.868,389.157 447.868,383.398 L447.868,383.398 C447.868,377.639 443.199,372.971 437.44,372.971 L437.44,372.971 C431.681,372.971 427.013,377.639 427.013,383.398 z" fill="url(#Gradient_53)"/>
    <path d="M512.624,450.22 C512.624,454.023 515.707,457.106 519.51,457.106 L519.51,457.106 C523.313,457.106 526.396,454.023 526.396,450.22 L526.396,450.22 C526.396,446.417 523.313,443.333 519.51,443.333 L519.51,443.333 C515.707,443.333 512.624,446.417 512.624,450.22 z" fill="url(#Gradient_54)"/>
    <path d="M547.29,489.201 C547.29,491.853 549.438,494.001 552.09,494.001 L552.09,494.001 C554.74,494.001 556.888,491.853 556.888,489.201 L556.888,489.201 C556.888,486.551 554.74,484.402 552.09,484.402 L552.09,484.402 C549.438,484.402 547.29,486.551 547.29,489.201 z" fill="url(#Gradient_55)"/>
    <path d="M667.221,495.713 C667.221,498.467 669.453,500.698 672.205,500.698 L672.205,500.698 C674.958,500.698 677.19,498.467 677.19,495.713 L677.19,495.713 C677.19,492.961 674.958,490.729 672.205,490.729 L672.205,490.729 C669.453,490.729 667.221,492.961 667.221,495.713 z" fill="url(#Gradient_56)"/>
    <path d="M667.221,603.865 C667.221,608.15 670.695,611.624 674.98,611.624 L674.98,611.624 C679.265,611.624 682.739,608.15 682.739,603.865 L682.739,603.865 C682.739,599.58 679.265,596.106 674.98,596.106 L674.98,596.106 C670.695,596.106 667.221,599.58 667.221,603.865 z" fill="url(#Gradient_57)"/>
    <path d="M631.316,618.158 C631.316,621.054 633.664,623.402 636.56,623.402 L636.56,623.402 C639.456,623.402 641.804,621.054 641.804,618.158 L641.804,618.158 C641.804,615.261 639.456,612.913 636.56,612.913 L636.56,612.913 C633.664,612.913 631.316,615.261 631.316,618.158 z" fill="url(#Gradient_58)"/>
    <path d="M707.217,540.209 C707.217,544.742 710.892,548.417 715.425,548.417 L715.425,548.417 C719.958,548.417 723.632,544.742 723.632,540.209 L723.632,540.209 C723.632,535.676 719.958,532.002 715.425,532.002 L715.425,532.002 C710.892,532.002 707.217,535.676 707.217,540.209 z" fill="url(#Gradient_59)"/>
    <path d="M447.868,664.688 C447.868,669.19 451.518,672.841 456.021,672.841 L456.021,672.841 C460.524,672.841 464.174,669.19 464.174,664.688 L464.174,664.688 C464.174,660.184 460.524,656.534 456.021,656.534 L456.021,656.534 C451.518,656.534 447.868,660.184 447.868,664.688 z" fill="url(#Gradient_60)"/>
    <path d="M380.149,640.152 C380.149,643.441 382.816,646.109 386.105,646.109 L386.105,646.109 C389.396,646.109 392.063,643.441 392.063,640.152 L392.063,640.152 C392.063,636.862 389.396,634.196 386.105,634.196 L386.105,634.196 C382.816,634.196 380.149,636.862 380.149,640.152 z" fill="url(#Gradient_61)"/>
    <path d="M328.571,777.001 C328.571,779.763 330.809,782.001 333.571,782.001 L333.571,782.001 C336.332,782.001 338.571,779.763 338.571,777.001 L338.571,777.001 C338.571,774.24 336.332,772.001 333.571,772.001 L333.571,772.001 C330.809,772.001 328.571,774.24 328.571,777.001 z" fill="url(#Gradient_62)"/>
    <path d="M268.867,774.542 C268.867,778.662 272.207,782.001 276.326,782.001 L276.326,782.001 C280.446,782.001 283.786,778.662 283.786,774.542 L283.786,774.542 C283.786,770.422 280.446,767.082 276.326,767.082 L276.326,767.082 C272.207,767.082 268.867,770.422 268.867,774.542 z" fill="url(#Gradient_63)"/>
    <path d="M319.27,825.001 C319.27,827.762 321.508,830.001 324.27,830.001 L324.27,830.001 C327.031,830.001 329.269,827.762 329.269,825.001 L329.269,825.001 C329.269,822.24 327.031,820.002 324.27,820.002 L324.27,820.002 C321.508,820.002 319.27,822.24 319.27,825.001 z" fill="url(#Gradient_64)"/>
    <path d="M436.797,841.326 C436.797,847.58 441.868,852.65 448.122,852.65 L448.122,852.65 C454.377,852.65 459.446,847.58 459.446,841.326 L459.446,841.326 C459.446,835.071 454.377,830.001 448.122,830.001 L448.122,830.001 C441.868,830.001 436.797,835.071 436.797,841.326 z" fill="url(#Gradient_65)"/>
    <path d="M469.246,832.332 C469.246,837.299 473.273,841.326 478.24,841.326 L478.24,841.326 C483.208,841.326 487.235,837.299 487.235,832.332 L487.235,832.332 C487.235,827.364 483.208,823.337 478.24,823.337 L478.24,823.337 C473.273,823.337 469.246,827.364 469.246,832.332 z" fill="url(#Gradient_66)"/>
    <path d="M534.371,863.931 C534.371,870.161 539.422,875.212 545.652,875.212 L545.652,875.212 C551.883,875.212 556.933,870.161 556.933,863.931 L556.933,863.931 C556.933,857.701 551.883,852.65 545.652,852.65 L545.652,852.65 C539.422,852.65 534.371,857.701 534.371,863.931 z" fill="url(#Gradient_67)"/>
    <path d="M576.139,867.32 C576.139,869.192 577.655,870.709 579.527,870.709 L579.527,870.709 C581.399,870.709 582.917,869.192 582.917,867.32 L582.917,867.32 C582.917,865.449 581.399,863.931 579.527,863.931 L579.527,863.931 C577.655,863.931 576.139,865.449 576.139,867.32 z" fill="url(#Gradient_68)"/>
  </g>
</svg>
