<?xml version="1.0" encoding="UTF-8" standalone="no"?>
<!-- Created with Inkscape (http://www.inkscape.org/) -->

<svg
   xmlns:dc="http://purl.org/dc/elements/1.1/"
   xmlns:cc="http://creativecommons.org/ns#"
   xmlns:rdf="http://www.w3.org/1999/02/22-rdf-syntax-ns#"
   xmlns:svg="http://www.w3.org/2000/svg"
   xmlns="http://www.w3.org/2000/svg"
   xmlns:sodipodi="http://sodipodi.sourceforge.net/DTD/sodipodi-0.dtd"
   xmlns:inkscape="http://www.inkscape.org/namespaces/inkscape"
   width="43.637726mm"
   height="97.137032mm"
   viewBox="0 0 154.62186 344.18633"
   id="svg2"
   version="1.1"
   inkscape:version="0.91 r13725"
   sodipodi:docname="Asian Indian Woman in an aqua dress.svg">
  <defs
     id="defs4">
    <pattern
       y="0"
       x="0"
       height="6"
       width="6"
       patternUnits="userSpaceOnUse"
       id="EMFhbasepattern" />
    <clipPath
       id="clipEmfPath1"
       clipPathUnits="userSpaceOnUse">
      <path
         inkscape:connector-curvature="0"
         id="path3513"
         d="m 4.4748,0 950.4462,0 0,1405.98 -950.4462,0 z" />
    </clipPath>
    <pattern
       y="0"
       x="0"
       height="6"
       width="6"
       patternUnits="userSpaceOnUse"
       id="EMFhbasepattern-8" />
    <clipPath
       id="clipEmfPath1-0"
       clipPathUnits="userSpaceOnUse">
      <path
         inkscape:connector-curvature="0"
         id="path3708"
         d="m 0.894959,-0.894959 539.660041,0 0,796.513959 -539.660041,0 z" />
    </clipPath>
    <pattern
       y="0"
       x="0"
       height="6"
       width="6"
       patternUnits="userSpaceOnUse"
       id="EMFhbasepattern-4" />
    <clipPath
       id="clipEmfPath1-4"
       clipPathUnits="userSpaceOnUse">
      <path
         inkscape:connector-curvature="0"
         id="path3903"
         d="m -0.894959,-1.78992 558.453959,0 0,1223.40992 -558.453959,0 z" />
    </clipPath>
    <clipPath
       id="clipEmfPath2"
       clipPathUnits="userSpaceOnUse">
      <path
         inkscape:connector-curvature="0"
         id="path3906"
         d="m 16.1093,562.034 -0.895,3.58 -0.895,10.74 -2.6848,34.903 -0.895,10.74 -1.78991,23.268 -0.89496,10.74 -1.78992,23.269 -0.89496,10.739 -1.78991,23.269 -0.89496,10.74 0,8.949 5.36975,0 23.26897,1.79 10.7395,0.895 11.6344,0.895 2.6849,0.895 0,-9.844 1.7899,-23.269 0.895,-10.74 2.6849,-34.903 0.8949,-10.74 1.7899,-23.269 0.895,-10.739 1.7899,-23.269 0.895,-10.74 0.8949,-11.634 0.895,-2.685 -23.2689,-1.79 -10.7395,-0.895 -11.6345,-0.895 z" />
    </clipPath>
    <clipPath
       id="clipEmfPath3"
       clipPathUnits="userSpaceOnUse">
      <path
         inkscape:connector-curvature="0"
         id="path3909"
         d="m 16.109375,562.0332 -0.894531,3.58008 -0.896485,10.74024 -2.683593,34.90429 -0.894532,10.73828 -1.7910152,23.26953 -0.8945313,10.74024 -1.7890625,23.26758 -0.8964844,10.74023 -1.7890625,23.26758 -0.8945312,10.74023 0,8.94922 5.3691406,0 23.2695315,1.79102 10.738281,0.89453 11.634766,0.89453 2.685546,0.89453 0,-9.84375 1.789063,-23.26953 0.894531,-10.73828 2.685547,-34.9043 0.894531,-10.74023 1.791016,-23.26758 0.894531,-10.74023 1.789063,-23.26758 0.896484,-10.74024 0.894531,-11.63476 0.894532,-2.68555 -23.269532,-1.78906 -10.738281,-0.89453 -11.634766,-0.89649 -8.054687,0 z" />
    </clipPath>
    <pattern
       y="0"
       x="0"
       height="6"
       width="6"
       patternUnits="userSpaceOnUse"
       id="EMFhbasepattern-2" />
  </defs>
  <sodipodi:namedview
     id="base"
     pagecolor="#ffffff"
     bordercolor="#666666"
     borderopacity="1.0"
     inkscape:pageopacity="0.0"
     inkscape:pageshadow="2"
     inkscape:zoom="0.7"
     inkscape:cx="127.77143"
     inkscape:cy="108.1436"
     inkscape:document-units="px"
     inkscape:current-layer="layer1"
     showgrid="false"
     fit-margin-top="0"
     fit-margin-left="0"
     fit-margin-right="0"
     fit-margin-bottom="0"
     inkscape:window-width="1366"
     inkscape:window-height="705"
     inkscape:window-x="-8"
     inkscape:window-y="-8"
     inkscape:window-maximized="1" />
  <metadata
     id="metadata7">
    <rdf:RDF>
      <cc:Work
         rdf:about="">
        <dc:format>image/svg+xml</dc:format>
        <dc:type
           rdf:resource="http://purl.org/dc/dcmitype/StillImage" />
        <dc:title></dc:title>
      </cc:Work>
    </rdf:RDF>
  </metadata>
  <g
     inkscape:label="Layer 1"
     inkscape:groupmode="layer"
     id="layer1"
     transform="translate(-247.22857,-239.17662)">
    <path
       inkscape:connector-curvature="0"
       id="path3912"
       d="m 301.80752,546.76365 c -4.26212,0 -7.73514,7.30955 -7.73514,16.33784 0,9.01418 3.47302,16.32373 7.73514,16.32373 4.27793,0 7.73515,-7.30955 7.73515,-16.32373 0,-9.02829 -3.45722,-16.33784 -7.73515,-16.33784 z"
       style="fill:#000000;fill-opacity:1;fill-rule:evenodd;stroke:none" />
    <path
       inkscape:connector-curvature="0"
       id="path3914"
       d="m 301.80752,546.76365 c -4.26212,0 -7.73514,7.30955 -7.73514,16.33784 0,9.01418 3.47302,16.32373 7.73514,16.32373 4.27793,0 7.73515,-7.30955 7.73515,-16.32373 0,-9.02829 -3.45722,-16.33784 -7.73515,-16.33784"
       style="fill:none;stroke:#000000;stroke-width:0.67880154px;stroke-linecap:butt;stroke-linejoin:round;stroke-miterlimit:4;stroke-dasharray:none;stroke-opacity:1" />
    <path
       inkscape:connector-curvature="0"
       id="path3916"
       d="m 363.89415,550.36198 c -4.27792,0 -7.73514,7.30956 -7.73514,16.32373 0,9.02829 3.45722,16.33785 7.73514,16.33785 4.27821,0 7.73515,-7.30956 7.73515,-16.33785 0,-9.01417 -3.45694,-16.32373 -7.73515,-16.32373 z"
       style="fill:#000000;fill-opacity:1;fill-rule:evenodd;stroke:none" />
    <path
       transform="matrix(0.28222222,0,0,0.28222222,245.05658,238.99749)"
       inkscape:connector-curvature="0"
       id="path3918"
       d="m 421.078,1103.26 c -15.158,0 -27.408,25.9 -27.408,57.84 0,31.99 12.25,57.89 27.408,57.89 15.159,0 27.408,-25.9 27.408,-57.89 0,-31.94 -12.249,-57.84 -27.408,-57.84"
       clip-path="url(#clipEmfPath1-4)"
       style="fill:none;stroke:#000000;stroke-width:2.40520239px;stroke-linecap:butt;stroke-linejoin:round;stroke-miterlimit:4;stroke-dasharray:none;stroke-opacity:1" />
    <path
       inkscape:connector-curvature="0"
       id="path3920"
       d=""
       clip-path="url(#clipEmfPath2)"
       style="fill:none;stroke:none"
       transform="translate(245.05659,238.99749)" />
    <path
       inkscape:connector-curvature="0"
       id="path3922"
       d=""
       clip-path="url(#clipEmfPath3)"
       style="fill:none;stroke:none"
       transform="translate(245.05659,238.99749)" />
    <path
       transform="matrix(0.28222222,0,0,0.28222222,245.05658,238.99749)"
       inkscape:connector-curvature="0"
       id="path3924"
       d="m 53.0263,627.198 c -0.839,8.894 -4.4748,39.602 -4.8104,53.251 0.7831,13.48 7.4394,24.835 2.9646,28.694 -4.5308,3.804 -9.0615,-17.507 -10.9633,-26.066 -1.8458,-8.558 -0.0559,-20.975 -0.1118,-25.17 z"
       clip-path="url(#clipEmfPath3)"
       style="fill:#ffccaa;fill-opacity:1;fill-rule:evenodd;stroke:none" />
    <path
       inkscape:connector-curvature="0"
       id="path3926"
       d=""
       clip-path="url(#clipEmfPath3)"
       style="fill:none;stroke:none"
       transform="translate(245.05659,238.99749)" />
    <path
       transform="matrix(0.28222222,0,0,0.28222222,245.05658,238.99749)"
       inkscape:connector-curvature="0"
       id="path3928"
       d="m 53.0263,627.198 c -0.839,8.894 -4.4748,39.602 -4.8104,53.251 0.7831,13.48 7.4394,24.835 2.9646,28.694 -4.5308,3.804 -9.0615,-17.507 -10.9633,-26.066 -1.8458,-8.558 -0.0559,-20.975 -0.1118,-25.17 z"
       clip-path="url(#clipEmfPath3)"
       style="fill:#ffccaa;fill-opacity:1;fill-rule:nonzero;stroke:none" />
    <path
       inkscape:connector-curvature="0"
       id="path3930"
       d=""
       clip-path="url(#clipEmfPath3)"
       style="fill:none;stroke:none"
       transform="translate(245.05659,238.99749)" />
    <path
       transform="matrix(0.28222222,0,0,0.28222222,245.05658,238.99749)"
       inkscape:connector-curvature="0"
       id="path3932"
       d="m 53.0263,627.198 c -0.839,8.894 -4.4748,39.602 -4.8104,53.251 0.7831,13.48 7.4394,24.835 2.9646,28.694 -4.5308,3.804 -9.0615,-17.507 -10.9633,-26.066 -1.8458,-8.558 -0.0559,-20.975 -0.1118,-25.17"
       clip-path="url(#clipEmfPath3)"
       style="fill:none;stroke:#000000;stroke-width:1.0068289px;stroke-linecap:butt;stroke-linejoin:round;stroke-miterlimit:4;stroke-dasharray:none;stroke-opacity:1" />
    <path
       inkscape:connector-curvature="0"
       id="path3934"
       d=""
       clip-path="url(#clipEmfPath3)"
       style="fill:none;stroke:none"
       transform="translate(245.05659,238.99749)" />
    <path
       transform="matrix(0.28222222,0,0,0.28222222,245.05658,238.99749)"
       inkscape:connector-curvature="0"
       id="path3936"
       d="m 49.894,618.473 c -1.0069,11.634 -6.2088,51.907 -6.3766,69.806 1.4543,17.676 12.5294,32.778 5.3138,37.645 C 41.6715,730.958 33.7847,702.767 30.7083,691.58 27.52,680.281 29.9811,664.004 29.9252,658.466 Z"
       clip-path="url(#clipEmfPath3)"
       style="fill:#ffccaa;fill-opacity:1;fill-rule:evenodd;stroke:none" />
    <path
       inkscape:connector-curvature="0"
       id="path3938"
       d=""
       clip-path="url(#clipEmfPath3)"
       style="fill:none;stroke:none"
       transform="translate(245.05659,238.99749)" />
    <path
       transform="matrix(0.28222222,0,0,0.28222222,245.05658,238.99749)"
       inkscape:connector-curvature="0"
       id="path3940"
       d="m 49.894,618.473 c -1.0069,11.634 -6.2088,51.907 -6.3766,69.806 1.4543,17.676 12.5294,32.778 5.3138,37.645 C 41.6715,730.958 33.7847,702.767 30.7083,691.58 27.52,680.281 29.9811,664.004 29.9252,658.466 Z"
       clip-path="url(#clipEmfPath3)"
       style="fill:#ffccaa;fill-opacity:1;fill-rule:nonzero;stroke:none" />
    <path
       inkscape:connector-curvature="0"
       id="path3942"
       d=""
       clip-path="url(#clipEmfPath3)"
       style="fill:none;stroke:none"
       transform="translate(245.05659,238.99749)" />
    <path
       transform="matrix(0.28222222,0,0,0.28222222,245.05658,238.99749)"
       inkscape:connector-curvature="0"
       id="path3944"
       d="m 49.894,618.473 c -1.0069,11.634 -6.2088,51.907 -6.3766,69.806 1.4543,17.676 12.5294,32.778 5.3138,37.645 C 41.6715,730.958 33.7847,702.767 30.7083,691.58 27.52,680.281 29.9811,664.004 29.9252,658.466"
       clip-path="url(#clipEmfPath3)"
       style="fill:none;stroke:#000000;stroke-width:1.0068289px;stroke-linecap:butt;stroke-linejoin:round;stroke-miterlimit:4;stroke-dasharray:none;stroke-opacity:1" />
    <path
       inkscape:connector-curvature="0"
       id="path3946"
       d=""
       clip-path="url(#clipEmfPath3)"
       style="fill:none;stroke:none"
       transform="translate(245.05659,238.99749)" />
    <path
       transform="matrix(0.28222222,0,0,0.28222222,245.05658,238.99749)"
       inkscape:connector-curvature="0"
       id="path3948"
       d="m 46.2582,627.198 c -1.3424,12.026 -8.2224,54.145 -7.8868,72.157 2.3492,17.787 19.0178,30.82 9.453,35.518 -9.5649,4.811 -21.0316,-23.604 -25.6182,-35.015 -4.5308,-11.299 -1.6221,-27.576 -2.0137,-33.169 z"
       clip-path="url(#clipEmfPath3)"
       style="fill:#ffccaa;fill-opacity:1;fill-rule:evenodd;stroke:none" />
    <path
       inkscape:connector-curvature="0"
       id="path3950"
       d=""
       clip-path="url(#clipEmfPath3)"
       style="fill:none;stroke:none"
       transform="translate(245.05659,238.99749)" />
    <path
       transform="matrix(0.28222222,0,0,0.28222222,245.05658,238.99749)"
       inkscape:connector-curvature="0"
       id="path3952"
       d="m 46.2582,627.198 c -1.3424,12.026 -8.2224,54.145 -7.8868,72.157 2.3492,17.787 19.0178,30.82 9.453,35.518 -9.5649,4.811 -21.0316,-23.604 -25.6182,-35.015 -4.5308,-11.299 -1.6221,-27.576 -2.0137,-33.169 z"
       clip-path="url(#clipEmfPath3)"
       style="fill:#ffccaa;fill-opacity:1;fill-rule:nonzero;stroke:none" />
    <path
       inkscape:connector-curvature="0"
       id="path3954"
       d=""
       clip-path="url(#clipEmfPath3)"
       style="fill:none;stroke:none"
       transform="translate(245.05659,238.99749)" />
    <path
       transform="matrix(0.28222222,0,0,0.28222222,245.05658,238.99749)"
       inkscape:connector-curvature="0"
       id="path3956"
       d="m 46.2582,627.198 c -1.3424,12.026 -8.2224,54.145 -7.8868,72.157 2.3492,17.787 19.0178,30.82 9.453,35.518 -9.5649,4.811 -21.0316,-23.604 -25.6182,-35.015 -4.5308,-11.299 -1.6221,-27.576 -2.0137,-33.169"
       clip-path="url(#clipEmfPath3)"
       style="fill:none;stroke:#000000;stroke-width:1.0068289px;stroke-linecap:butt;stroke-linejoin:round;stroke-miterlimit:4;stroke-dasharray:none;stroke-opacity:1" />
    <path
       inkscape:connector-curvature="0"
       id="path3958"
       d=""
       clip-path="url(#clipEmfPath3)"
       style="fill:none;stroke:none"
       transform="translate(245.05659,238.99749)" />
    <path
       transform="matrix(0.28222222,0,0,0.28222222,245.05658,238.99749)"
       inkscape:connector-curvature="0"
       id="path3960"
       d="m 65.8914,573.837 c -1.5103,4.81 -4.4189,19.8 -8.5581,29.309 -4.0832,9.565 -12.1379,17.172 -16.2771,28.08 -4.1391,10.851 -6.9918,25.226 -8.4461,37.197 -1.3425,12.081 -1.0628,24.275 0.1118,34.903 3.0205,17.899 18.0111,23.996 7.0478,28.695 -10.9073,4.642 -18.011,-19.074 -22.7095,-29.31 -4.5867,-10.572 -5.3139,-20.584 -4.6986,-34.009 1.0628,-13.592 5.7613,-35.183 8.2784,-46.426 2.5171,-11.243 5.2579,-11.634 6.8241,-20.864 1.6221,-9.229 2.1814,-27.408 2.7408,-34.623 z"
       clip-path="url(#clipEmfPath3)"
       style="fill:#ffccaa;fill-opacity:1;fill-rule:evenodd;stroke:none" />
    <path
       inkscape:connector-curvature="0"
       id="path3962"
       d=""
       clip-path="url(#clipEmfPath3)"
       style="fill:none;stroke:none"
       transform="translate(245.05659,238.99749)" />
    <path
       transform="matrix(0.28222222,0,0,0.28222222,245.05658,238.99749)"
       inkscape:connector-curvature="0"
       id="path3964"
       d="m 65.8914,573.837 c -1.5103,4.81 -4.4189,19.8 -8.5581,29.309 -4.0832,9.565 -12.1379,17.172 -16.2771,28.08 -4.1391,10.851 -6.9918,25.226 -8.4461,37.197 -1.3425,12.081 -1.0628,24.275 0.1118,34.903 3.0205,17.899 18.0111,23.996 7.0478,28.695 -10.9073,4.642 -18.011,-19.074 -22.7095,-29.31 -4.5867,-10.572 -5.3139,-20.584 -4.6986,-34.009 1.0628,-13.592 5.7613,-35.183 8.2784,-46.426 2.5171,-11.243 5.2579,-11.634 6.8241,-20.864 1.6221,-9.229 2.1814,-27.408 2.7408,-34.623 z"
       clip-path="url(#clipEmfPath3)"
       style="fill:#ffccaa;fill-opacity:1;fill-rule:nonzero;stroke:none" />
    <path
       inkscape:connector-curvature="0"
       id="path3966"
       d=""
       clip-path="url(#clipEmfPath3)"
       style="fill:none;stroke:none"
       transform="translate(245.05659,238.99749)" />
    <path
       transform="matrix(0.28222222,0,0,0.28222222,245.05658,238.99749)"
       inkscape:connector-curvature="0"
       id="path3968"
       d="m 65.8914,573.837 c -1.5103,4.81 -4.4189,19.8 -8.5581,29.309 -4.0832,9.565 -12.1379,17.172 -16.2771,28.08 -4.1391,10.851 -6.9918,25.226 -8.4461,37.197 -1.3425,12.081 -1.0628,24.275 0.1118,34.903 3.0205,17.899 18.0111,23.996 7.0478,28.695 -10.9073,4.642 -18.011,-19.074 -22.7095,-29.31 -4.5867,-10.572 -5.3139,-20.584 -4.6986,-34.009 1.0628,-13.592 5.7613,-35.183 8.2784,-46.426 2.5171,-11.243 5.2579,-11.634 6.8241,-20.864 1.6221,-9.229 2.1814,-27.408 2.7408,-34.623"
       clip-path="url(#clipEmfPath3)"
       style="fill:none;stroke:#000000;stroke-width:1.0068289px;stroke-linecap:butt;stroke-linejoin:round;stroke-miterlimit:4;stroke-dasharray:none;stroke-opacity:1" />
    <path
       inkscape:connector-curvature="0"
       id="path3970"
       d=""
       clip-path="url(#clipEmfPath3)"
       style="fill:none;stroke:none"
       transform="translate(245.05659,238.99749)" />
    <path
       transform="matrix(0.28222222,0,0,0.28222222,245.05658,238.99749)"
       inkscape:connector-curvature="0"
       id="path3972"
       d="m 38.4832,676.813 c -3.7476,1.174 -11.8022,0.895 -13.0328,-5.873 -1.1746,-6.713 1.5662,-27.241 5.7054,-34.344 4.1391,-7.16 16.5008,-12.866 19.1856,-8.279 2.7409,4.587 -0.5593,27.968 -2.7967,35.799 -2.2374,7.83 -5.3698,11.634 -9.0615,12.697 z"
       clip-path="url(#clipEmfPath3)"
       style="fill:#ffccaa;fill-opacity:1;fill-rule:evenodd;stroke:none" />
    <path
       inkscape:connector-curvature="0"
       id="path3974"
       d=""
       clip-path="url(#clipEmfPath3)"
       style="fill:none;stroke:none"
       transform="translate(245.05659,238.99749)" />
    <path
       transform="matrix(0.28222222,0,0,0.28222222,245.05658,238.99749)"
       inkscape:connector-curvature="0"
       id="path3976"
       d="m 59.4029,597.777 c 1.4543,7.831 2.8527,15.606 3.3002,22.933 0.4474,7.383 0.8949,14.375 -0.6713,21.311 -1.5661,7.048 -7.3274,12.865 -8.7258,20.696 -1.4543,7.831 1.678,21.367 -0.0559,26.29 -1.734,4.978 -7.7191,6.041 -10.4599,3.523 -2.6848,-2.628 -4.7544,-11.187 -5.7053,-18.794 -0.895,-7.663 0.839,-18.179 0.1118,-26.96 -0.6712,-8.67 -3.4679,-21.256 -4.1392,-25.507 z"
       clip-path="url(#clipEmfPath3)"
       style="fill:#ffccaa;fill-opacity:1;fill-rule:evenodd;stroke:none" />
    <path
       inkscape:connector-curvature="0"
       id="path3978"
       d=""
       clip-path="url(#clipEmfPath3)"
       style="fill:none;stroke:none"
       transform="translate(245.05659,238.99749)" />
    <path
       transform="matrix(0.28222222,0,0,0.28222222,245.05658,238.99749)"
       inkscape:connector-curvature="0"
       id="path3980"
       d="m 59.4029,597.777 c 1.4543,7.831 2.8527,15.606 3.3002,22.933 0.4474,7.383 0.8949,14.375 -0.6713,21.311 -1.5661,7.048 -7.3274,12.865 -8.7258,20.696 -1.4543,7.831 1.678,21.367 -0.0559,26.29 -1.734,4.978 -7.7191,6.041 -10.4599,3.523 -2.6848,-2.628 -4.7544,-11.187 -5.7053,-18.794 -0.895,-7.663 0.839,-18.179 0.1118,-26.96 -0.6712,-8.67 -3.4679,-21.256 -4.1392,-25.507 z"
       clip-path="url(#clipEmfPath3)"
       style="fill:#ffccaa;fill-opacity:1;fill-rule:nonzero;stroke:none" />
    <path
       inkscape:connector-curvature="0"
       id="path3982"
       d=""
       clip-path="url(#clipEmfPath3)"
       style="fill:none;stroke:none"
       transform="translate(245.05659,238.99749)" />
    <path
       transform="matrix(0.28222222,0,0,0.28222222,245.05658,238.99749)"
       inkscape:connector-curvature="0"
       id="path3984"
       d="m 59.4029,597.777 c 1.4543,7.831 2.8527,15.606 3.3002,22.933 0.4474,7.383 0.8949,14.375 -0.6713,21.311 -1.5661,7.048 -7.3274,12.865 -8.7258,20.696 -1.4543,7.831 1.678,21.367 -0.0559,26.29 -1.734,4.978 -7.7191,6.041 -10.4599,3.523 -2.6848,-2.628 -4.7544,-11.187 -5.7053,-18.794 -0.895,-7.663 0.839,-18.179 0.1118,-26.96 -0.6712,-8.67 -3.4679,-21.256 -4.1392,-25.507"
       clip-path="url(#clipEmfPath3)"
       style="fill:none;stroke:#000000;stroke-width:1.0068289px;stroke-linecap:butt;stroke-linejoin:round;stroke-miterlimit:4;stroke-dasharray:none;stroke-opacity:1" />
    <path
       inkscape:connector-curvature="0"
       id="path3986"
       d=""
       clip-path="url(#clipEmfPath3)"
       style="fill:none;stroke:none"
       transform="translate(245.05659,238.99749)" />
    <path
       transform="matrix(0.28222222,0,0,0.28222222,245.05658,238.99749)"
       inkscape:connector-curvature="0"
       id="path3988"
       d="m 34.2322,641.182 c -2.1815,0.671 -7.0478,0.448 -7.775,-3.412 -0.7271,-3.803 0.7831,-15.606 3.2443,-19.633 2.573,-4.027 10.0123,-7.327 11.6344,-4.754 1.6221,2.684 -0.2237,16.053 -1.6221,20.472 -1.3984,4.53 -3.2442,6.656 -5.4816,7.327 z"
       clip-path="url(#clipEmfPath3)"
       style="fill:#ffccaa;fill-opacity:1;fill-rule:evenodd;stroke:none" />
    <path
       transform="matrix(0.28222222,0,0,0.28222222,245.05658,238.99749)"
       inkscape:connector-curvature="0"
       id="path3990"
       d="M 23.6605,507.665 C 35.6865,469.63 44.0208,403.403 72.7714,358.095 101.466,312.788 163.554,250.98 195.884,235.822 c 32.275,-15.215 43.406,25.898 70.702,31.1 27.296,5.146 68.632,4.195 93.02,0 24.387,-4.196 29.533,-28.807 53.306,-25.227 23.772,3.636 66.059,19.186 89.44,46.873 23.38,27.688 45.866,79.092 50.845,119.366 4.922,40.329 -6.433,87.929 -21.088,122.441 -14.599,34.456 -52.747,79.484 -66.618,84.574 -13.872,5.146 -19.41,-32.946 -16.669,-53.922 2.797,-20.975 26.569,-47.488 33.449,-71.988 6.88,-24.499 10.572,-51.74 7.775,-75.065 -2.797,-23.268 -12.082,-55.04 -24.5,-64.772 -12.417,-9.789 -43.573,-10.628 -49.949,6.153 -6.377,16.78 5.034,50.397 11.746,94.586 6.768,44.244 22.486,112.429 28.639,170.769 6.208,58.284 5.146,98.222 8.502,179.104 3.356,80.882 73.554,261.946 11.69,306.296 -61.808,44.3 -326.101,22.43 -382.7067,-40.38 -56.6062,-62.87 33.8407,-251.149 42.9577,-336.618 9.118,-85.469 3.804,-121.323 11.691,-176.195 7.942,-54.928 29.142,-117.184 35.798,-153.206 6.712,-35.966 10.572,-58.676 4.307,-62.871 -6.265,-4.195 -30.764,20.976 -41.839,37.868 -11.075,16.893 -16.949,37.756 -24.556,63.486 -7.607,25.674 -13.704,62.424 -21.031,90.671 -7.3277,28.191 -7.8871,68.464 -22.7658,78.532 -14.9346,10.125 -57.6129,-1.51 -66.6744,-18.122 -9.06147,-16.613 9.7327,-64.605 12.3057,-81.61 z"
       clip-path="url(#clipEmfPath1-4)"
       style="fill:#6fd9ff;fill-opacity:1;fill-rule:evenodd;stroke:none" />
    <path
       transform="matrix(0.28222222,0,0,0.28222222,245.05658,238.99749)"
       inkscape:connector-curvature="0"
       id="path3992"
       d="M 23.6605,507.665 C 35.6865,469.63 44.0208,403.403 72.7714,358.095 101.466,312.788 163.554,250.98 195.884,235.822 c 32.275,-15.215 43.406,25.898 70.702,31.1 27.296,5.146 68.632,4.195 93.02,0 24.387,-4.196 29.533,-28.807 53.306,-25.227 23.772,3.636 66.059,19.186 89.44,46.873 23.38,27.688 45.866,79.092 50.845,119.366 4.922,40.329 -6.433,87.929 -21.088,122.441 -14.599,34.456 -52.747,79.484 -66.618,84.574 -13.872,5.146 -19.41,-32.946 -16.669,-53.922 2.797,-20.975 26.569,-47.488 33.449,-71.988 6.88,-24.499 10.572,-51.74 7.775,-75.065 -2.797,-23.268 -12.082,-55.04 -24.5,-64.772 -12.417,-9.789 -43.573,-10.628 -49.949,6.153 -6.377,16.78 5.034,50.397 11.746,94.586 6.768,44.244 22.486,112.429 28.639,170.769 6.208,58.284 5.146,98.222 8.502,179.104 3.356,80.882 73.554,261.946 11.69,306.296 -61.808,44.3 -326.101,22.43 -382.7067,-40.38 -56.6062,-62.87 33.8407,-251.149 42.9577,-336.618 9.118,-85.469 3.804,-121.323 11.691,-176.195 7.942,-54.928 29.142,-117.184 35.798,-153.206 6.712,-35.966 10.572,-58.676 4.307,-62.871 -6.265,-4.195 -30.764,20.976 -41.839,37.868 -11.075,16.893 -16.949,37.756 -24.556,63.486 -7.607,25.674 -13.704,62.424 -21.031,90.671 -7.3277,28.191 -7.8871,68.464 -22.7658,78.532 -14.9346,10.125 -57.6129,-1.51 -66.6744,-18.122 -9.06147,-16.613 9.7327,-64.605 12.3057,-81.61"
       clip-path="url(#clipEmfPath1-4)"
       style="fill:none;stroke:#000000;stroke-width:2.40520239px;stroke-linecap:butt;stroke-linejoin:round;stroke-miterlimit:4;stroke-dasharray:none;stroke-opacity:1" />
    <path
       inkscape:connector-curvature="0"
       id="path3994"
       d="m 305.95929,288.75524 c -3.59918,0.96295 -5.47765,5.57248 -4.23079,10.30817 1.26294,4.75178 5.19373,7.82997 8.77711,6.86703 3.58338,-0.94714 5.47793,-5.55667 4.23079,-10.30817 -1.26294,-4.73597 -5.19373,-7.81416 -8.77711,-6.86703 z"
       style="fill:#0c0c0c;fill-opacity:1;fill-rule:evenodd;stroke:none" />
    <path
       inkscape:connector-curvature="0"
       id="path3996"
       d="m 305.92768,284.77704 c -3.14141,0.82098 -5.20925,3.29946 -4.60953,5.52535 0.5842,2.24141 3.61498,3.36239 6.74059,2.54141 3.14142,-0.83651 5.19374,-3.31499 4.60954,-5.54087 -0.58392,-2.22589 -3.61498,-3.3624 -6.7406,-2.52589 z"
       style="fill:#0c0c0c;fill-opacity:1;fill-rule:evenodd;stroke:none" />
    <path
       inkscape:connector-curvature="0"
       id="path3998"
       d="m 303.24403,283.34053 c -0.22098,3.23624 1.45232,5.98311 3.74142,6.15668 2.30463,0.15776 4.35695,-2.33652 4.57793,-5.55668 0.23678,-3.23624 -1.43651,-5.99891 -3.74142,-6.15668 -2.28882,-0.17356 -4.34114,2.32072 -4.57793,5.55668 z"
       style="fill:#0c0c0c;fill-opacity:1;fill-rule:evenodd;stroke:none" />
    <path
       inkscape:connector-curvature="0"
       id="path4000"
       d="m 349.81296,288.73944 c -3.15722,0 -5.71444,3.33079 -5.71444,7.43514 0,4.10436 2.55722,7.43543 5.71444,7.43543 3.15722,0 5.71471,-3.33107 5.71471,-7.43543 0,-4.10435 -2.55749,-7.43514 -5.71471,-7.43514 z"
       style="fill:#0c0c0c;fill-opacity:1;fill-rule:evenodd;stroke:none" />
    <path
       inkscape:connector-curvature="0"
       id="path4002"
       d="m 354.1699,286.87677 c -3.61498,-0.41063 -7.00899,3.29918 -7.5929,8.28774 -0.5684,4.98828 1.89427,9.37683 5.52506,9.78718 3.61499,0.42616 7.00899,-3.28337 7.59319,-8.27193 0.56811,-4.98828 -1.89456,-9.37683 -5.52535,-9.80299 z"
       style="fill:#0c0c0c;fill-opacity:1;fill-rule:evenodd;stroke:none" />
    <path
       inkscape:connector-curvature="0"
       id="path4004"
       d="m 347.95029,277.43672 c -2.57302,1.83106 -2.73106,6.01444 -0.36322,9.37683 2.36813,3.3466 6.37766,4.59374 8.96648,2.7782 2.5733,-1.83106 2.73107,-6.03024 0.36322,-9.37683 -2.38365,-3.34659 -6.39346,-4.59373 -8.96648,-2.7782 z"
       style="fill:#0c0c0c;fill-opacity:1;fill-rule:evenodd;stroke:none" />
    <path
       inkscape:connector-curvature="0"
       id="path4006"
       d="m 310.53722,288.25007 c -0.0632,0.36322 -0.36294,1.43651 -0.39455,2.14686 -0.0316,0.71035 0.22098,1.49973 0.20518,2.14687 -0.0158,0.64741 -0.22098,1.35777 -0.2684,1.7207"
       style="fill:none;stroke:#c0c0c0;stroke-width:0.50515467px;stroke-linecap:butt;stroke-linejoin:round;stroke-miterlimit:4;stroke-dasharray:none;stroke-opacity:1" />
    <path
       inkscape:connector-curvature="0"
       id="path4008"
       d="m 310.37946,293.1596 c -0.66294,0 -1.19973,1.15232 -1.19973,2.57302 0,1.43651 0.53679,2.58883 1.19973,2.58883 0.66294,0 1.19972,-1.15232 1.19972,-2.58883 0,-1.4207 -0.53678,-2.57302 -1.19972,-2.57302 z"
       style="fill:#6fd9ff;fill-opacity:1;fill-rule:evenodd;stroke:none" />
    <path
       inkscape:connector-curvature="0"
       id="path4010"
       d="m 310.39526,293.17541 c -0.18965,0 -0.36322,1.15231 -0.36322,2.57302 0,1.4207 0.17357,2.57302 0.36322,2.57302 0.20518,0 0.36294,-1.15232 0.36294,-2.57302 0,-1.42071 -0.15776,-2.57302 -0.36294,-2.57302 z"
       style="fill:#00b0f0;fill-opacity:1;fill-rule:evenodd;stroke:none" />
    <path
       inkscape:connector-curvature="0"
       id="path4012"
       d="m 310.37946,292.43345 c -0.20518,0 -0.36322,0.17356 -0.36322,0.37874 0,0.20517 0.15804,0.37902 0.36322,0.37902 0.18937,0 0.36294,-0.17385 0.36294,-0.37902 0,-0.20518 -0.17357,-0.37874 -0.36294,-0.37874 z"
       style="fill:#00b0f0;fill-opacity:1;fill-rule:evenodd;stroke:none" />
    <path
       inkscape:connector-curvature="0"
       id="path4014"
       d="m 312.32115,275.46342 c -0.33161,0.0474 -1.26295,0.71036 -2.05232,0.22098 -0.78938,-0.47357 -1.98911,-2.77847 -2.65205,-3.14141 -0.67874,-0.34742 -1.37329,-0.12644 -1.35749,1.04168 0.0316,1.1526 1.15232,4.2466 1.48393,5.91989 0.33133,1.6891 0.31552,3.17303 0.5365,4.18338 0.22127,1.01036 0.69483,1.02616 0.80518,1.87847 0.12644,0.8526 -0.22098,2.36785 -0.12615,3.23625 0.0945,0.88392 0.20518,1.75231 0.67875,2.02043 0.45776,0.26839 1.35748,-0.12616 2.14686,-0.39455 0.78938,-0.2842 2.13106,-1.01036 2.55722,-1.21553 z"
       style="fill:#ffcd9b;fill-opacity:1;fill-rule:evenodd;stroke:none" />
    <path
       inkscape:connector-curvature="0"
       id="path4016"
       d="m 312.32115,275.46342 c -0.33161,0.0474 -1.26295,0.71036 -2.05232,0.22098 -0.78938,-0.47357 -1.98911,-2.77847 -2.65205,-3.14141 -0.67874,-0.34742 -1.37329,-0.12644 -1.35749,1.04168 0.0316,1.1526 1.15232,4.2466 1.48393,5.91989 0.33133,1.6891 0.31552,3.17303 0.5365,4.18338 0.22127,1.01036 0.69483,1.02616 0.80518,1.87847 0.12644,0.8526 -0.22098,2.36785 -0.12615,3.23625 0.0945,0.88392 0.20518,1.75231 0.67875,2.02043 0.45776,0.26839 1.35748,-0.12616 2.14686,-0.39455 0.78938,-0.2842 2.13106,-1.01036 2.55722,-1.21553"
       style="fill:none;stroke:#000000;stroke-width:0.25257733px;stroke-linecap:butt;stroke-linejoin:round;stroke-miterlimit:4;stroke-dasharray:none;stroke-opacity:1" />
    <path
       inkscape:connector-curvature="0"
       id="path4018"
       d="m 349.29197,289.27623 c -0.0629,0.34713 -0.36293,1.4207 -0.39454,2.13106 -0.0316,0.72615 0.22098,1.49973 0.20517,2.14686 0,0.64714 -0.22098,1.37329 -0.26839,1.72071"
       style="fill:none;stroke:#c0c0c0;stroke-width:0.50515467px;stroke-linecap:butt;stroke-linejoin:round;stroke-miterlimit:4;stroke-dasharray:none;stroke-opacity:1" />
    <path
       inkscape:connector-curvature="0"
       id="path4020"
       d="m 349.13421,294.16996 c -0.66294,0 -1.19972,1.15231 -1.19972,2.57302 0,1.43651 0.53678,2.58882 1.19972,2.58882 0.66294,0 1.19973,-1.15231 1.19973,-2.58882 0,-1.42071 -0.53679,-2.57302 -1.19973,-2.57302 z"
       style="fill:#6fd9ff;fill-opacity:1;fill-rule:evenodd;stroke:none" />
    <path
       inkscape:connector-curvature="0"
       id="path4022"
       d="m 349.16582,294.18576 c -0.20517,0 -0.36322,1.15232 -0.36322,2.57302 0,1.42071 0.15805,2.57302 0.36322,2.57302 0.18937,0 0.36294,-1.15231 0.36294,-2.57302 0,-1.4207 -0.17357,-2.57302 -0.36294,-2.57302 z"
       style="fill:#00b0f0;fill-opacity:1;fill-rule:evenodd;stroke:none" />
    <path
       inkscape:connector-curvature="0"
       id="path4024"
       d="m 349.13421,293.4438 c -0.20517,0 -0.36294,0.17357 -0.36294,0.37874 0,0.20518 0.15777,0.37875 0.36294,0.37875 0.18937,0 0.36322,-0.17357 0.36322,-0.37875 0,-0.20517 -0.17385,-0.37874 -0.36322,-0.37874 z"
       style="fill:#00b0f0;fill-opacity:1;fill-rule:evenodd;stroke:none" />
    <path
       inkscape:connector-curvature="0"
       id="path4026"
       d="m 346.81378,275.73182 c 0.63133,0.18937 2.84141,1.53105 3.77275,1.08909 0.91553,-0.45776 1.27875,-3.28337 1.75232,-3.77274 0.47356,-0.50518 1.1365,-0.20518 1.07329,0.80489 -0.0629,1.01036 -1.21553,4.02562 -1.48365,5.25696 -0.26839,1.23133 0.11035,1.23133 -0.12643,2.14686 -0.25259,0.93133 -1.1049,1.95749 -1.35749,3.3782 -0.23678,1.4049 0.31552,4.05695 -0.12644,5.11471 -0.45776,1.05749 -1.6891,1.32589 -2.55721,1.21554 -0.8842,-0.11063 -2.2575,-1.57875 -2.69946,-1.89428 z"
       style="fill:#ffcd9b;fill-opacity:1;fill-rule:evenodd;stroke:none" />
    <path
       inkscape:connector-curvature="0"
       id="path4028"
       d="m 346.81378,275.73182 c 0.63133,0.18937 2.84141,1.53105 3.77275,1.08909 0.91553,-0.45776 1.27875,-3.28337 1.75232,-3.77274 0.47356,-0.50518 1.1365,-0.20518 1.07329,0.80489 -0.0629,1.01036 -1.21553,4.02562 -1.48365,5.25696 -0.26839,1.23133 0.11035,1.23133 -0.12643,2.14686 -0.25259,0.93133 -1.1049,1.95749 -1.35749,3.3782 -0.23678,1.4049 0.31552,4.05695 -0.12644,5.11471 -0.45776,1.05749 -1.6891,1.32589 -2.55721,1.21554 -0.8842,-0.11063 -2.2575,-1.57875 -2.69946,-1.89428"
       style="fill:none;stroke:#000000;stroke-width:0.25257733px;stroke-linecap:butt;stroke-linejoin:round;stroke-miterlimit:4;stroke-dasharray:none;stroke-opacity:1" />
    <path
       inkscape:connector-curvature="0"
       id="path4030"
       d="m 299.13967,307.76178 c 0.96295,-1.29455 3.86758,-3.31526 6.34605,-4.04142 2.47848,-0.72616 6.99319,0.93133 8.50872,-0.2842 1.53134,-1.21553 0.39455,-5.77765 0.64714,-7.00899 0.26839,-1.23133 -0.0474,-0.2842 0.94714,-0.36294 0.97874,-0.0632 0.6,0.2684 4.97275,-0.0632 4.38856,-0.34741 17.28583,-1.56266 21.34277,-1.97329 4.04114,-0.39455 2.36785,-0.69455 2.95205,-0.41035 0.56811,0.28419 0.33133,0.71035 0.52098,2.09945 0.18937,1.4049 -0.44224,4.92534 0.63133,6.26702 1.07357,1.34197 3.42561,0.93162 5.80926,1.79974 2.38365,0.88391 6.77221,2.2891 8.50872,3.44141 1.73651,1.13651 3.56757,1.04197 1.87847,3.42562 -1.6891,2.38364 -7.43514,8.08228 -11.99726,10.87656 -4.56241,2.8098 -10.07167,5.03569 -15.34414,5.95122 -5.27248,0.9 -11.63433,0.9 -16.32289,-0.50518 -4.70408,-1.4049 -8.65068,-4.70408 -11.88692,-7.90871 -3.23624,-3.20464 -5.95122,-8.95068 -7.51417,-11.30272 z"
       style="fill:#ffd1a3;fill-opacity:1;fill-rule:evenodd;stroke:none" />
    <path
       inkscape:connector-curvature="0"
       id="path4032"
       d="m 299.13967,307.76178 c 0.96295,-1.29455 3.86758,-3.31526 6.34605,-4.04142 2.47848,-0.72616 6.99319,0.93133 8.50872,-0.2842 1.53134,-1.21553 0.39455,-5.77765 0.64714,-7.00899 0.26839,-1.23133 -0.0474,-0.2842 0.94714,-0.36294 0.97874,-0.0632 0.6,0.2684 4.97275,-0.0632 4.38856,-0.34741 17.28583,-1.56266 21.34277,-1.97329 4.04114,-0.39455 2.36785,-0.69455 2.95205,-0.41035 0.56811,0.28419 0.33133,0.71035 0.52098,2.09945 0.18937,1.4049 -0.44224,4.92534 0.63133,6.26702 1.07357,1.34197 3.42561,0.93162 5.80926,1.79974 2.38365,0.88391 6.77221,2.2891 8.50872,3.44141 1.73651,1.13651 3.56757,1.04197 1.87847,3.42562 -1.6891,2.38364 -7.43514,8.08228 -11.99726,10.87656 -4.56241,2.8098 -10.07167,5.03569 -15.34414,5.95122 -5.27248,0.9 -11.63433,0.9 -16.32289,-0.50518 -4.70408,-1.4049 -8.65068,-4.70408 -11.88692,-7.90871 -3.23624,-3.20464 -5.95122,-8.95068 -7.51417,-11.30272"
       style="fill:none;stroke:#000000;stroke-width:0.25257733px;stroke-linecap:butt;stroke-linejoin:round;stroke-miterlimit:4;stroke-dasharray:none;stroke-opacity:1" />
    <path
       inkscape:connector-curvature="0"
       id="path4034"
       d="m 329.55956,243.73332 c -11.20817,0 -20.28528,14.22327 -20.28528,31.74591 0,17.53813 9.07711,31.74576 20.28528,31.74576 11.19237,0 20.2692,-14.20763 20.2692,-31.74576 0,-17.52264 -9.07683,-31.74591 -20.2692,-31.74591 z"
       style="fill:#ffd1a3;fill-opacity:1;fill-rule:evenodd;stroke:none" />
    <path
       inkscape:connector-curvature="0"
       id="path4036"
       d="m 329.55956,243.73332 c -11.20817,0 -20.28528,14.22327 -20.28528,31.74591 0,17.53813 9.07711,31.74576 20.28528,31.74576 11.19237,0 20.2692,-14.20763 20.2692,-31.74576 0,-17.52264 -9.07683,-31.74591 -20.2692,-31.74591"
       style="fill:none;stroke:#000000;stroke-width:0.25257733px;stroke-linecap:butt;stroke-linejoin:round;stroke-miterlimit:4;stroke-dasharray:none;stroke-opacity:1" />
    <path
       inkscape:connector-curvature="0"
       id="path4038"
       d="m 339.26801,270.8855 c -2.16267,0 -3.91499,0.66294 -3.91499,1.48364 0,0.82098 1.75232,1.48392 3.91499,1.48392 2.16266,0 3.89918,-0.66294 3.89918,-1.48392 0,-0.8207 -1.73652,-1.48364 -3.89918,-1.48364 z"
       style="fill:#f3f3f3;fill-opacity:1;fill-rule:evenodd;stroke:none" />
    <path
       inkscape:connector-curvature="0"
       id="path4040"
       d="m 339.28381,270.58549 c -0.97875,0 -1.76812,0.78938 -1.76812,1.76813 0,0.97846 0.78937,1.76784 1.76812,1.76784 0.97875,0 1.76784,-0.78938 1.76784,-1.76784 0,-0.97875 -0.78909,-1.76813 -1.76784,-1.76813 z"
       style="fill:#402000;fill-opacity:1;fill-rule:evenodd;stroke:none" />
    <path
       inkscape:connector-curvature="0"
       id="path4042"
       d="m 334.73721,273.44271 c 0.52098,0.25259 1.95749,0.94714 3.20463,1.1049 1.24714,0.17385 3.12562,0.11063 4.30954,-0.11035 1.1684,-0.22098 2.49428,-0.83679 2.74687,-1.19972 0.25258,-0.36322 -0.72616,-0.91553 -1.24714,-0.96295 -0.53679,-0.0474 -1.26295,0.50518 -1.94169,0.64714 -0.69455,0.15804 -1.3733,0.23678 -2.17848,0.26839 -0.78937,0.0474 -1.95749,0 -2.57302,-0.0316 -0.6158,-0.0474 -0.78937,-0.15776 -1.15231,-0.18937 -0.36322,-0.0158 -0.8684,-0.0158 -1.04196,0.079 -0.17357,0.0787 -0.63162,0.14196 -0.12644,0.39455 z"
       style="fill:#ffd7af;fill-opacity:1;fill-rule:evenodd;stroke:none" />
    <path
       inkscape:connector-curvature="0"
       id="path4044"
       d="m 339.22059,271.56424 c -0.36322,0 -0.66294,0.3 -0.66294,0.66294 0,0.36322 0.29972,0.64714 0.66294,0.64714 0.36294,0 0.66294,-0.28392 0.66294,-0.64714 0,-0.36294 -0.3,-0.66294 -0.66294,-0.66294 z"
       style="fill:#000000;fill-opacity:1;fill-rule:evenodd;stroke:none" />
    <path
       inkscape:connector-curvature="0"
       id="path4046"
       d="m 336.09498,266.3074 c 0.41035,-0.41043 2.74659,-1.43651 4.16758,-1.38915 1.4207,0.0631 3.40981,1.02607 4.35694,1.73645 0.94714,0.71036 1.3891,2.32043 1.32588,2.52589 -0.0474,0.18937 -0.80489,-0.94713 -1.67329,-1.34196 -0.86812,-0.39455 -2.44687,-0.94714 -3.52016,-1.04186 -1.05777,-0.0789 -2.09973,0.63151 -2.8733,0.55248 -0.77329,-0.079 -2.17848,-0.63138 -1.78365,-1.04185 z"
       style="fill:#301800;fill-opacity:1;fill-rule:evenodd;stroke:none" />
    <path
       inkscape:connector-curvature="0"
       id="path4048"
       d="m 336.09498,266.3074 c 0.41035,-0.41043 2.74659,-1.43651 4.16758,-1.38915 1.4207,0.0631 3.40981,1.02607 4.35694,1.73645 0.94714,0.71036 1.3891,2.32043 1.32588,2.52589 -0.0474,0.18937 -0.80489,-0.94713 -1.67329,-1.34196 -0.86812,-0.39455 -2.44687,-0.94714 -3.52016,-1.04186 -1.05777,-0.0789 -2.09973,0.63151 -2.8733,0.55248 -0.77329,-0.079 -2.17848,-0.63138 -1.78365,-1.04185"
       style="fill:none;stroke:#000000;stroke-width:0.25257733px;stroke-linecap:butt;stroke-linejoin:round;stroke-miterlimit:4;stroke-dasharray:none;stroke-opacity:1" />
    <path
       inkscape:connector-curvature="0"
       id="path4050"
       d="m 328.70697,269.49612 c -0.0158,0.63161 0.079,2.65204 -0.11035,3.77303 -0.18965,1.1049 -0.5684,2.09945 -1.01036,2.88882 -0.45776,0.80518 -1.08937,1.07329 -1.67329,1.87847 -0.60001,0.80518 -1.54714,1.98911 -1.89428,2.95205 -0.33161,0.96294 -0.39483,2.19428 -0.14224,2.794 0.25259,0.61581 1.07358,0.80518 1.6733,0.8684 0.6,0.0632 1.35777,-0.5526 1.92588,-0.50518 0.5842,0.0474 1.04197,0.63133 1.54715,0.78937 0.50517,0.15777 1.07357,0.20518 1.51553,0.17357 0.42615,-0.0316 0.78909,-0.11063 1.1049,-0.36322 0.33161,-0.23678 0.47357,-0.93133 0.82098,-1.1207 0.34714,-0.17357 0.91553,-0.079 1.26295,0.0632 0.36293,0.14195 0.50489,0.88392 0.88392,0.80489 0.39454,-0.0787 1.15231,-0.75748 1.4049,-1.26266 0.25259,-0.52098 0.20517,-1.16812 0.11063,-1.83134 -0.11063,-0.66294 -0.41063,-1.4049 -0.71035,-2.13106"
       style="fill:none;stroke:#000000;stroke-width:0.25257733px;stroke-linecap:butt;stroke-linejoin:round;stroke-miterlimit:4;stroke-dasharray:none;stroke-opacity:1" />
    <path
       inkscape:connector-curvature="0"
       id="path4052"
       d="m 326.16556,284.22473 c -0.079,-0.33161 -0.17385,-0.66322 -0.0632,-0.91581 0.11063,-0.25259 0.37874,-0.58392 0.71035,-0.61553 0.34742,-0.0316 0.97875,0.12616 1.32616,0.41035 0.34714,0.2842 0.64714,0.94714 0.77329,1.26295 0.11063,0.33161 0.0316,0.63133 -0.0629,0.66294 -0.079,0.0316 -0.20546,-0.29972 -0.45776,-0.45777 -0.25259,-0.14195 -0.74196,-0.44196 -1.05777,-0.45776 -0.33161,-0.0158 -0.71035,0.31581 -0.8684,0.36322 z"
       style="fill:#301800;fill-opacity:1;fill-rule:evenodd;stroke:none" />
    <path
       inkscape:connector-curvature="0"
       id="path4054"
       d="m 332.08517,283.94053 c -0.14196,-0.079 0.2842,-0.41063 0.45776,-0.55259 0.15805,-0.15776 0.31581,-0.33161 0.53679,-0.34741 0.22098,-0.0155 0.5842,0.079 0.78937,0.25258 0.22098,0.15805 0.39455,0.5684 0.45777,0.75777 0.079,0.18965 0.0316,0.37903 -0.0316,0.39483 -0.0474,0.0158 -0.11035,-0.18965 -0.26839,-0.26839 -0.15777,-0.0948 -0.31553,-0.23679 -0.63133,-0.2842 -0.33162,-0.0316 -1.16812,0.14196 -1.31036,0.0474 z"
       style="fill:#301800;fill-opacity:1;fill-rule:evenodd;stroke:none" />
    <path
       inkscape:connector-curvature="0"
       id="path4056"
       d="m 337.51569,242.23365 c -2.96785,0 -5.3673,3.75708 -5.3673,8.39817 0,4.62534 2.39945,8.38242 5.3673,8.38242 2.95204,0 5.3515,-3.75708 5.3515,-8.38242 0,-4.64109 -2.39946,-8.39817 -5.3515,-8.39817 z"
       style="fill:#ffd1a3;fill-opacity:1;fill-rule:evenodd;stroke:none" />
    <path
       inkscape:connector-curvature="0"
       id="path4058"
       d="m 307.42741,272.52718 c 0.31581,0.63133 0.93134,0.37875 1.31036,1.59428 0.37874,1.21553 0.63133,5.9515 0.94714,5.68311 0.31552,-0.25259 0.67874,-5.19374 0.94714,-7.26158 0.28419,-2.05232 0.23678,-3.56786 0.72615,-5.09891 0.47357,-1.51553 1.6891,-2.73107 2.13106,-4.04131 0.44196,-1.29447 -0.36322,-2.90463 0.47357,-3.80444 0.83679,-0.88403 3.17303,-0.56831 4.51471,-1.53125 1.35777,-0.97875 2.03652,-3.15722 3.56786,-4.29382 1.53105,-1.12081 3.17302,-2.05218 5.63541,-2.49419 2.47847,-0.42624 7.67221,0.59986 9.21907,-0.11052 1.56295,-0.71035 0.18965,-3.0467 0.12643,-4.16752 -0.0632,-1.10501 -0.94713,-2.66785 -0.47356,-2.49419 0.47356,0.17365 2.96784,2.3679 3.33078,3.56765 0.34742,1.21553 -1.75232,2.50997 -1.19972,3.67815 0.55259,1.18398 3.1098,1.8312 4.48338,3.33087 1.3891,1.51547 2.73078,2.79414 3.83596,5.71455 1.12071,2.90466 2.33624,8.91904 2.82561,11.74493 0.50518,2.84141 -0.23678,4.38855 0.15805,5.22506 0.37874,0.82098 1.73623,0.44196 2.13106,-0.22098 0.39454,-0.64714 0.0158,-2.66785 0.23678,-3.69401 0.23678,-1.02587 0.89972,-0.48937 1.1207,-2.46267 0.22098,-1.97301 0.52099,-6.21958 0.18938,-9.40835 -0.33133,-3.18881 -0.83651,-6.78804 -2.14687,-9.74003 -1.29427,-2.95199 -3.63079,-6.09343 -5.69863,-7.97196 -2.05232,-1.87855 -4.83051,-2.731 -6.66185,-3.33087 -1.81526,-0.58409 -3.20464,0 -4.27793,-0.23679 -1.07357,-0.23679 -0.8842,-0.94717 -2.16267,-1.18396 -1.26294,-0.23679 -3.50463,-0.48937 -5.47793,-0.23679 -1.9733,0.25258 -4.26212,0.59987 -6.37738,1.78383 -2.11553,1.18395 -4.67275,3.67815 -6.29863,5.35147 -1.62617,1.65755 -2.5733,3.67818 -3.45722,4.62534 -0.8684,0.96295 -1.49973,0.39464 -1.83134,1.07344 -0.33133,0.6788 0.079,2.02062 -0.18938,2.96779 -0.26839,0.96294 -1.29455,1.79962 -1.4207,2.73098 -0.11063,0.93139 0.71035,1.76806 0.71035,2.8573 0,1.08924 -0.45776,2.08376 -0.71035,3.69392 -0.25259,1.59442 -0.78938,4.5781 -0.83679,5.93559 -0.0313,1.35749 0.2842,1.59427 0.6,2.22588 z"
       style="fill:#0c0c0c;fill-opacity:1;fill-rule:evenodd;stroke:none" />
    <path
       inkscape:connector-curvature="0"
       id="path4060"
       d="m 320.8928,270.75906 c 2.08393,0 3.78883,0.66294 3.78883,1.48393 0,0.82098 -1.7049,1.48392 -3.78883,1.48392 -2.09945,0 -3.78855,-0.66294 -3.78855,-1.48392 0,-0.82099 1.6891,-1.48393 3.78855,-1.48393 z"
       style="fill:#f3f3f3;fill-opacity:1;fill-rule:evenodd;stroke:none" />
    <path
       inkscape:connector-curvature="0"
       id="path4062"
       d="m 320.87728,270.45906 c 0.94714,0 1.72042,0.78937 1.72042,1.76812 0,0.97875 -0.77328,1.76812 -1.72042,1.76812 -0.94742,0 -1.72071,-0.78937 -1.72071,-1.76812 0,-0.97875 0.77329,-1.76812 1.72071,-1.76812 z"
       style="fill:#402000;fill-opacity:1;fill-rule:evenodd;stroke:none" />
    <path
       inkscape:connector-curvature="0"
       id="path4064"
       d="m 320.94021,271.43781 c 0.34742,0 0.63162,0.3 0.63162,0.66322 0,0.36294 -0.2842,0.64713 -0.63162,0.64713 -0.36293,0 -0.64713,-0.28419 -0.64713,-0.64713 0,-0.36322 0.2842,-0.66322 0.64713,-0.66322 z"
       style="fill:#000000;fill-opacity:1;fill-rule:evenodd;stroke:none" />
    <path
       inkscape:connector-curvature="0"
       id="path4066"
       d="m 323.95548,266.18113 c -0.37903,-0.41043 -2.65205,-1.43653 -4.02562,-1.38918 -1.3891,0.0631 -3.31498,1.02611 -4.23051,1.73646 -0.91553,0.71049 -1.35777,2.32057 -1.29456,2.52575 0.0474,0.18937 0.78938,-0.94714 1.62589,-1.34169 0.85259,-0.39483 2.38393,-0.94725 3.4098,-1.04199 1.04197,-0.0789 2.03652,0.63136 2.79429,0.55262 0.74196,-0.079 2.11525,-0.63153 1.72071,-1.04197 z"
       style="fill:#301800;fill-opacity:1;fill-rule:evenodd;stroke:none" />
    <path
       inkscape:connector-curvature="0"
       id="path4068"
       d="m 323.95548,266.18113 c -0.37903,-0.41043 -2.65205,-1.43653 -4.02562,-1.38918 -1.3891,0.0631 -3.31498,1.02611 -4.23051,1.73646 -0.91553,0.71049 -1.35777,2.32057 -1.29456,2.52575 0.0474,0.18937 0.78938,-0.94714 1.62589,-1.34169 0.85259,-0.39483 2.38393,-0.94725 3.4098,-1.04199 1.04197,-0.0789 2.03652,0.63136 2.79429,0.55262 0.74196,-0.079 2.11525,-0.63153 1.72071,-1.04197"
       style="fill:none;stroke:#000000;stroke-width:0.25257733px;stroke-linecap:butt;stroke-linejoin:round;stroke-miterlimit:4;stroke-dasharray:none;stroke-opacity:1" />
    <path
       inkscape:connector-curvature="0"
       id="path4070"
       d="m 325.24975,272.55879 c -0.14196,-0.33161 -0.45777,-1.43651 -1.15232,-1.92588 -0.69455,-0.47357 -1.9891,-0.90001 -3.01498,-0.93162 -1.02616,-0.0313 -2.33651,0.2842 -3.12561,0.75777 -0.78937,0.47357 -1.49973,1.6891 -1.62616,2.09973 -0.14196,0.42616 0.45776,0.59972 0.85259,0.45777 0.41035,-0.14224 1.01036,-0.93134 1.54686,-1.29456 0.52098,-0.36293 0.93162,-0.80518 1.62617,-0.88392 0.69454,-0.0948 1.73623,0.0316 2.49399,0.34714 0.77357,0.3158 1.6891,1.27875 2.11554,1.53133 0.42616,0.25259 0.42616,0.18938 0.28392,-0.15776 z"
       style="fill:#ffd7af;fill-opacity:1;fill-rule:evenodd;stroke:none" />
    <path
       inkscape:connector-curvature="0"
       id="path4072"
       d="m 325.24975,272.55879 c -0.14196,-0.33161 -0.45777,-1.43651 -1.15232,-1.92588 -0.69455,-0.47357 -1.9891,-0.90001 -3.01498,-0.93162 -1.02616,-0.0313 -2.33651,0.2842 -3.12561,0.75777 -0.78937,0.47357 -1.49973,1.6891 -1.62616,2.09973 -0.14196,0.42616 0.45776,0.59972 0.85259,0.45777 0.41035,-0.14224 1.01036,-0.93134 1.54686,-1.29456 0.52098,-0.36293 0.93162,-0.80518 1.62617,-0.88392 0.69454,-0.0948 1.73623,0.0316 2.49399,0.34714 0.77357,0.3158 1.6891,1.27875 2.11554,1.53133 0.42616,0.25259 0.42616,0.18938 0.28392,-0.15776"
       style="fill:none;stroke:#000000;stroke-width:0.25257733px;stroke-linecap:butt;stroke-linejoin:round;stroke-miterlimit:4;stroke-dasharray:none;stroke-opacity:1" />
    <path
       inkscape:connector-curvature="0"
       id="path4074"
       d="m 334.76882,272.68495 c 0.14224,-0.33133 0.47357,-1.45232 1.18392,-1.92589 0.72616,-0.47357 2.06813,-0.91553 3.12561,-0.93133 1.04197,-0.0316 2.39974,0.2842 3.20464,0.75776 0.82098,0.47357 1.56294,1.6891 1.6891,2.09946 0.12643,0.42615 -0.47357,0.6 -0.89973,0.45776 -0.41035,-0.14196 -1.02616,-0.93133 -1.57847,-1.29427 -0.53678,-0.36322 -0.96294,-0.80518 -1.67357,-0.8842 -0.71036,-0.0945 -1.78365,0.0316 -2.57303,0.34741 -0.80517,0.31581 -1.75231,1.27875 -2.17847,1.53134 -0.44196,0.25231 -0.45776,0.18937 -0.3,-0.15804 z"
       style="fill:#ffd7af;fill-opacity:1;fill-rule:evenodd;stroke:none" />
    <path
       inkscape:connector-curvature="0"
       id="path4076"
       d="m 334.76882,272.68495 c 0.14224,-0.33133 0.47357,-1.45232 1.18392,-1.92589 0.72616,-0.47357 2.06813,-0.91553 3.12561,-0.93133 1.04197,-0.0316 2.39974,0.2842 3.20464,0.75776 0.82098,0.47357 1.56294,1.6891 1.6891,2.09946 0.12643,0.42615 -0.47357,0.6 -0.89973,0.45776 -0.41035,-0.14196 -1.02616,-0.93133 -1.57847,-1.29427 -0.53678,-0.36322 -0.96294,-0.80518 -1.67357,-0.8842 -0.71036,-0.0945 -1.78365,0.0316 -2.57303,0.34741 -0.80517,0.31581 -1.75231,1.27875 -2.17847,1.53134 -0.44196,0.25231 -0.45776,0.18937 -0.3,-0.15804"
       style="fill:none;stroke:#000000;stroke-width:0.25257733px;stroke-linecap:butt;stroke-linejoin:round;stroke-miterlimit:4;stroke-dasharray:none;stroke-opacity:1" />
    <path
       inkscape:connector-curvature="0"
       id="path4078"
       d="m 325.28136,273.31656 c -0.50518,0.25259 -1.89428,0.94714 -3.10981,1.1049 -1.21553,0.17357 -3.04659,0.0948 -4.18338,-0.11063 -1.13651,-0.22098 -2.41526,-0.85231 -2.66785,-1.21553 -0.23678,-0.34714 0.71036,-0.89973 1.23134,-0.94714 0.52098,-0.0471 1.21553,0.48937 1.87875,0.64742 0.66294,0.15776 1.32588,0.23678 2.09945,0.28419 0.77357,0.0313 1.89428,-0.0158 2.51009,-0.0474 0.59972,-0.0316 0.75748,-0.15804 1.1207,-0.17384 0.34742,-0.0155 0.83679,-0.0155 0.99455,0.0632 0.17357,0.0948 0.61553,0.14224 0.12616,0.39482 z"
       style="fill:#ffd7af;fill-opacity:1;fill-rule:evenodd;stroke:none" />
    <path
       inkscape:connector-curvature="0"
       id="path4080"
       d="m 320.05629,290.64952 c 0.15777,-0.25259 0.67875,-0.8207 1.62589,-1.21553 0.96294,-0.41035 2.82589,-1.07329 4.07274,-1.16812 1.24714,-0.11063 2.5417,0.41035 3.40981,0.50518 0.8684,0.079 1.24714,0.0945 1.83134,0 0.58392,-0.11063 0.78938,-0.61581 1.6733,-0.61581 0.88392,0 2.57302,0.22098 3.61498,0.61581 1.04197,0.37874 2.13106,1.26294 2.63624,1.72071 0.50518,0.47357 0.50518,0.89972 0.41035,1.07329 -0.11035,0.17385 -0.69455,-0.29972 -1.02588,0 -0.3158,0.3 -0.39483,1.08938 -0.91581,1.78393 -0.50489,0.67874 -1.27846,1.76812 -2.17847,2.33623 -0.89973,0.55259 -2.38365,0.90001 -3.25176,1.01036 -0.8684,0.11063 -1.34197,-0.34714 -1.92589,-0.34714 -0.6,0 -0.80518,0.44196 -1.62616,0.34714 -0.83651,-0.0945 -2.43107,-0.48938 -3.3624,-0.96295 -0.93133,-0.47356 -1.62588,-1.29427 -2.24141,-1.87847 -0.6,-0.6 -1.07357,-1.18392 -1.42099,-1.6891 -0.33133,-0.48937 -0.36294,-1.04196 -0.59972,-1.26294 -0.25259,-0.22098 -0.8684,-0.0158 -0.72616,-0.25259 z"
       style="fill:#ff7391;fill-opacity:1;fill-rule:evenodd;stroke:none" />
    <path
       inkscape:connector-curvature="0"
       id="path4082"
       d="m 320.05629,290.64952 c 0.15777,-0.25259 0.67875,-0.8207 1.62589,-1.21553 0.96294,-0.41035 2.82589,-1.07329 4.07274,-1.16812 1.24714,-0.11063 2.5417,0.41035 3.40981,0.50518 0.8684,0.079 1.24714,0.0945 1.83134,0 0.58392,-0.11063 0.78938,-0.61581 1.6733,-0.61581 0.88392,0 2.57302,0.22098 3.61498,0.61581 1.04197,0.37874 2.13106,1.26294 2.63624,1.72071 0.50518,0.47357 0.50518,0.89972 0.41035,1.07329 -0.11035,0.17385 -0.69455,-0.29972 -1.02588,0 -0.3158,0.3 -0.39483,1.08938 -0.91581,1.78393 -0.50489,0.67874 -1.27846,1.76812 -2.17847,2.33623 -0.89973,0.55259 -2.38365,0.90001 -3.25176,1.01036 -0.8684,0.11063 -1.34197,-0.34714 -1.92589,-0.34714 -0.6,0 -0.80518,0.44196 -1.62616,0.34714 -0.83651,-0.0945 -2.43107,-0.48938 -3.3624,-0.96295 -0.93133,-0.47356 -1.62588,-1.29427 -2.24141,-1.87847 -0.6,-0.6 -1.07357,-1.18392 -1.42099,-1.6891 -0.33133,-0.48937 -0.36294,-1.04196 -0.59972,-1.26294 -0.25259,-0.22098 -0.8684,-0.0158 -0.72616,-0.25259"
       style="fill:none;stroke:#000000;stroke-width:0.25257733px;stroke-linecap:butt;stroke-linejoin:round;stroke-miterlimit:4;stroke-dasharray:none;stroke-opacity:1" />
    <path
       inkscape:connector-curvature="0"
       id="path4084"
       d="m 322.91351,290.90211 c -0.0632,0.3 0.18937,1.35749 0.39455,1.62588 0.20546,0.26839 0.67902,0.15804 0.82098,-0.0471 0.14224,-0.22126 0.12644,-0.93161 0.0474,-1.23134 -0.079,-0.28419 -0.3,-0.48937 -0.50518,-0.55259 -0.20517,-0.0632 -0.71035,-0.0948 -0.75776,0.20518 z"
       style="fill:#f3f3f3;fill-opacity:1;fill-rule:evenodd;stroke:none" />
    <path
       inkscape:connector-curvature="0"
       id="path4086"
       d="m 335.11623,292.21247 c -0.0632,-0.30001 0.17357,-1.37358 0.34714,-1.64197 0.17385,-0.26811 0.56839,-0.15776 0.67903,0.0632 0.12615,0.20517 0.11034,0.93133 0.0471,1.23133 -0.0629,0.30001 -0.25258,0.48938 -0.42615,0.5526 -0.17357,0.079 -0.59972,0.11034 -0.64714,-0.20518 z"
       style="fill:#f3f3f3;fill-opacity:1;fill-rule:evenodd;stroke:none" />
    <path
       inkscape:connector-curvature="0"
       id="path4088"
       d="m 324.01869,291.04407 c -0.0474,-0.41035 0.0629,-0.61553 0.28392,-0.59973 0.23678,0.0158 0.85259,0.2684 1.05777,0.69455 0.22098,0.42616 0.37874,1.57875 0.25259,1.86267 -0.12616,0.2842 -0.77357,0.15804 -1.01036,-0.14196 -0.25259,-0.3 -0.53679,-1.4207 -0.58392,-1.81553 z"
       style="fill:#f3f3f3;fill-opacity:1;fill-rule:evenodd;stroke:none" />
    <path
       inkscape:connector-curvature="0"
       id="path4090"
       d="m 325.54975,291.51792 c 0.0632,-0.45805 0.26839,-1.04197 0.55259,-1.08938 0.3,-0.0474 0.96294,0.31581 1.16812,0.77357 0.22098,0.45776 0.41035,1.65749 0.15804,1.9891 -0.25259,0.31553 -1.37357,0.18937 -1.68938,-0.0474 -0.31552,-0.23678 -0.25231,-1.18392 -0.18937,-1.62588 z"
       style="fill:#f3f3f3;fill-opacity:1;fill-rule:evenodd;stroke:none" />
    <path
       inkscape:connector-curvature="0"
       id="path4092"
       d="m 327.53885,292.43345 c 0,-0.52099 0.0316,-1.79974 0.33161,-2.05232 0.29972,-0.25259 1.1049,0.0632 1.45232,0.55259 0.34713,0.47357 0.86811,1.91008 0.63133,2.33623 -0.25259,0.42644 -1.70491,0.31581 -2.09945,0.18966 -0.39483,-0.12644 -0.31581,-0.52099 -0.31581,-1.02616 z"
       style="fill:#f3f3f3;fill-opacity:1;fill-rule:evenodd;stroke:none" />
    <path
       inkscape:connector-curvature="0"
       id="path4094"
       d="m 335.24239,290.74435 c 0,-0.37903 -0.15776,-0.5526 -0.39455,-0.50518 -0.23678,0.0632 -0.86811,0.41035 -1.02616,0.83651 -0.17357,0.44224 -0.14196,1.51553 0.0316,1.75231 0.18937,0.25259 0.8526,0.0158 1.07358,-0.3158 0.20517,-0.31553 0.33132,-1.3891 0.31552,-1.76784 z"
       style="fill:#f3f3f3;fill-opacity:1;fill-rule:evenodd;stroke:none" />
    <path
       inkscape:connector-curvature="0"
       id="path4096"
       d="m 333.85329,291.59666 c 0.0474,-0.44196 0,-1.05749 -0.22098,-1.13651 -0.20517,-0.0948 -0.77357,0.17357 -1.02616,0.58392 -0.25259,0.42643 -0.63133,1.57875 -0.48937,1.92616 0.12643,0.36294 1.01035,0.39455 1.29455,0.20518 0.2842,-0.18966 0.41035,-1.12099 0.44196,-1.57875 z"
       style="fill:#f3f3f3;fill-opacity:1;fill-rule:evenodd;stroke:none" />
    <path
       inkscape:connector-curvature="0"
       id="path4098"
       d="m 332.40097,292.38603 c 0,-0.52098 -0.0158,-1.79973 -0.3158,-2.06812 -0.31553,-0.25231 -1.16812,0.0474 -1.53106,0.50518 -0.36322,0.47357 -0.93161,1.91036 -0.67902,2.33651 0.25258,0.42616 1.76812,0.36294 2.17847,0.25259 0.42644,-0.12643 0.34741,-0.52098 0.34741,-1.02616 z"
       style="fill:#f3f3f3;fill-opacity:1;fill-rule:evenodd;stroke:none" />
    <path
       inkscape:connector-curvature="0"
       id="path4100"
       d="m 320.27727,290.68113 c 0.17357,0.0632 0.67875,0.41035 1.13651,0.39455 0.44196,-0.0158 0.97875,-0.31553 1.54714,-0.47357 0.5684,-0.15777 1.01036,-0.39455 1.86267,-0.45777 0.85259,-0.0787 2.08393,0 3.23624,0 1.13651,-0.0158 2.47848,-0.0632 3.6466,-0.0632 1.16811,-0.0155 2.47847,-0.12615 3.34659,0 0.88392,0.11063 1.31036,0.48938 1.92588,0.71064 0.60001,0.22098 1.32616,0.47357 1.73651,0.59972 0.41036,0.12644 0.5684,0.15776 0.71036,0.18937"
       style="fill:none;stroke:#000000;stroke-width:0.25257733px;stroke-linecap:butt;stroke-linejoin:round;stroke-miterlimit:4;stroke-dasharray:none;stroke-opacity:1" />
    <path
       inkscape:connector-curvature="0"
       id="path4102"
       d="m 321.477,291.09148 c 0.50518,0.63161 1.02616,1.24714 1.91008,1.7049 0.8842,0.44196 2.02071,0.80518 3.34659,0.97875 1.32616,0.17385 3.20463,0.18937 4.60954,0.079 1.42099,-0.12643 2.98365,-0.42615 3.89918,-0.78937 0.91581,-0.34714 1.23133,-1.04197 1.61036,-1.3733 0.37874,-0.33161 0.52098,-0.48937 0.66294,-0.61581"
       style="fill:none;stroke:#000000;stroke-width:0.25257733px;stroke-linecap:butt;stroke-linejoin:round;stroke-miterlimit:4;stroke-dasharray:none;stroke-opacity:1" />
  </g>
</svg>
